<svg width="480" height="240" viewBox="0 0 480 240" fill="none" xmlns="http://www.w3.org/2000/svg"><path d="M315.119 129.467C315.819 113.413 318.205 68.6482 319.034 53.2671C319.19 50.3104 321.635 48 324.597 48H374.291C377.318 48 379.79 50.4181 379.86 53.4394L381.642 129.57C381.718 132.699 379.203 135.273 376.074 135.273H320.688C317.516 135.273 314.985 132.634 315.125 129.467H315.119Z" fill="#F6DF11"/><path d="M338.543 163.234C338.543 164.161 337.725 164.872 336.815 164.737C334.068 164.333 329.012 162.879 329.012 157.623V139.312C329.012 138.472 329.69 137.793 330.53 137.793H337.025C337.865 137.793 338.543 138.472 338.543 139.312V163.229V163.234Z" fill="#605F5F"/><path d="M358.836 164C358.836 164.926 359.655 165.637 360.565 165.503C363.311 165.099 368.368 163.645 368.368 158.388V140.077C368.368 139.237 367.689 138.559 366.849 138.559H360.355C359.515 138.559 358.836 139.237 358.836 140.077V163.995V164Z" fill="#605F5F"/><path d="M315.628 137.174C316.016 137.557 316.398 137.939 316.786 138.321C317.4 139.178 318.014 140.039 318.622 140.896C319.387 141.967 320.141 143.05 320.922 144.116C321.616 145.064 322.365 145.98 323.35 146.642C324.255 147.256 325.305 147.638 326.371 147.859C327.465 148.085 328.585 148.161 329.699 148.188C330.938 148.215 332.177 148.188 333.415 148.177C334.772 148.166 336.135 148.155 337.492 148.145C338.843 148.134 340.195 148.118 341.547 148.107C342.904 148.096 344.266 148.08 345.623 148.069L349.678 148.032C351.03 148.021 352.382 148.005 353.733 147.994C355.09 147.983 356.453 147.967 357.81 147.956C359.162 147.945 360.513 147.929 361.865 147.919C363.222 147.908 364.584 147.892 365.941 147.881C367.159 147.87 368.386 147.892 369.603 147.768C370.767 147.655 371.93 147.402 372.964 146.831C373.949 146.287 374.752 145.473 375.441 144.59C376.152 143.685 376.782 142.711 377.417 141.752C378.074 140.761 378.71 139.754 379.275 138.704C379.544 138.203 379.798 137.691 380.024 137.169H315.617L315.628 137.174Z" fill="#605F5F"/><path d="M354.761 163.133V148.155H343.27V163.133H346.517V164.894H344.271V172.762H353.437V164.894H351.013V163.133H354.761Z" fill="#605F5F"/><path d="M384.43 129.209C383.3 127.82 381.399 127.243 379.611 127.276C377.818 127.308 376.083 127.857 374.36 128.347C365.997 130.739 357.284 131.843 348.587 131.719C348.409 131.719 348.237 131.713 348.059 131.719C347.881 131.719 347.709 131.719 347.531 131.719C338.834 131.853 330.121 130.744 321.758 128.353C320.035 127.857 318.295 127.308 316.507 127.281C314.714 127.249 312.819 127.825 311.688 129.214C310.196 131.051 310.46 133.873 311.785 135.828C313.109 137.783 315.274 139.011 317.471 139.878C321.026 141.284 324.871 141.935 328.689 141.784C329.238 141.763 329.852 141.747 330.261 142.113C330.579 142.398 330.681 142.845 330.773 143.26L331.871 148.349C331.995 148.915 332.135 149.518 332.561 149.911C333.094 150.407 333.902 150.423 334.629 150.412C339.104 150.337 343.584 150.267 348.059 150.191C352.534 150.267 357.015 150.337 361.49 150.412C362.217 150.423 363.024 150.412 363.558 149.911C363.978 149.518 364.123 148.915 364.247 148.349L365.345 143.26C365.437 142.845 365.539 142.398 365.857 142.113C366.266 141.747 366.88 141.763 367.43 141.784C371.248 141.941 375.098 141.284 378.647 139.878C380.844 139.005 383.009 137.783 384.334 135.828C385.658 133.873 385.922 131.046 384.43 129.214V129.209Z" fill="#FFB923"/><path d="M325.326 145.941H319.952C317.998 145.941 316.414 147.526 316.414 149.48V150.088C316.414 152.042 317.998 153.627 319.952 153.627H325.326C327.28 153.627 328.865 152.042 328.865 150.088V149.48C328.865 147.526 327.28 145.941 325.326 145.941Z" fill="#605F5F"/><path d="M319.625 186.382V182.116C319.625 181.427 320.082 180.824 320.739 180.635L342.576 174.42C343.556 174.14 344.536 174.878 344.536 175.901V179.784C344.536 180.533 343.998 181.174 343.26 181.303L324.837 184.48C324.121 184.604 323.588 185.213 323.561 185.94L323.54 186.452C323.507 187.276 322.829 187.933 321.999 187.933H321.159C320.308 187.933 319.619 187.243 319.619 186.392L319.625 186.382Z" fill="#605F5F"/><path d="M378.349 186.383V182.117C378.349 181.428 377.891 180.825 377.234 180.636L355.398 174.421C354.418 174.141 353.438 174.879 353.438 175.902V179.785C353.438 180.534 353.976 181.175 354.714 181.304L373.136 184.481C373.853 184.605 374.386 185.214 374.413 185.941L374.434 186.453C374.467 187.277 375.145 187.934 375.974 187.934H376.814C377.665 187.934 378.355 187.244 378.355 186.393L378.349 186.383Z" fill="#605F5F"/><path d="M374.425 196.377H378.787C379.962 196.377 380.914 195.425 380.914 194.25V188.358C380.914 187.183 379.962 186.231 378.787 186.231H374.425C373.25 186.231 372.298 187.183 372.298 188.358V194.25C372.298 195.425 373.25 196.377 374.425 196.377Z" fill="#605F5F"/><path d="M301.388 185.224V182.924C301.388 182.197 301.899 181.567 302.616 181.416L344.119 172.794C344.221 172.772 344.329 172.762 344.431 172.762H353.279C353.387 172.762 353.494 172.772 353.597 172.794L394.169 181.411C394.879 181.562 395.386 182.192 395.386 182.913V185.224C395.386 186.075 394.696 186.764 393.845 186.764H393.151C392.569 186.764 392.036 186.436 391.772 185.913L391.11 184.583C390.862 184.093 390.377 183.77 389.828 183.737L355.39 181.583C354.652 181.535 353.985 182.025 353.801 182.741L353.15 185.326C352.978 186.01 352.364 186.489 351.658 186.489H345.864C345.191 186.489 344.593 186.053 344.394 185.407L343.623 182.93C343.413 182.251 342.767 181.809 342.062 181.847L307.387 183.921C306.617 183.969 306.003 184.572 305.944 185.337C305.884 186.139 305.211 186.759 304.409 186.759H302.917C302.066 186.759 301.377 186.069 301.377 185.219L301.388 185.224Z" fill="#605F5F"/><path d="M305.388 186.236H301.026C299.851 186.236 298.898 187.189 298.898 188.364V194.255C298.898 195.43 299.851 196.383 301.026 196.383H305.388C306.562 196.383 307.515 195.43 307.515 194.255V188.364C307.515 187.189 306.562 186.236 305.388 186.236Z" fill="#605F5F"/><path d="M323.552 186.236H319.19C318.015 186.236 317.062 187.189 317.062 188.364V194.255C317.062 195.43 318.015 196.383 319.19 196.383H323.552C324.726 196.383 325.679 195.43 325.679 194.255V188.364C325.679 187.189 324.726 186.236 323.552 186.236Z" fill="#605F5F"/><path d="M351.038 186.236H346.676C345.501 186.236 344.549 187.189 344.549 188.364V194.255C344.549 195.43 345.501 196.383 346.676 196.383H351.038C352.213 196.383 353.165 195.43 353.165 194.255V188.364C353.165 187.189 352.213 186.236 351.038 186.236Z" fill="#605F5F"/><path d="M397.563 186.236H393.201C392.027 186.236 391.074 187.189 391.074 188.364V194.255C391.074 195.43 392.027 196.383 393.201 196.383H397.563C398.738 196.383 399.69 195.43 399.69 194.255V188.364C399.69 187.189 398.738 186.236 397.563 186.236Z" fill="#605F5F"/><path d="M362.038 127.313C362.307 127.69 362.775 127.851 363.168 128.088C364.192 128.713 364.752 130.022 364.499 131.196C364.396 131.68 364.175 132.23 364.466 132.634C364.666 132.908 365.042 133 365.376 132.935C365.71 132.871 366.001 132.682 366.27 132.483C367.638 131.487 368.747 130.146 369.48 128.621C369.652 128.266 369.787 127.797 369.523 127.507C369.334 127.302 369.022 127.275 368.742 127.259C367.794 127.189 366.744 126.898 366.281 126.069C365.651 124.938 366.356 121.502 363.949 123.177C363.104 123.769 362.431 124.609 362.038 125.562C361.946 125.783 361.876 126.02 361.838 126.257C361.784 126.634 361.822 127.006 362.038 127.307V127.313ZM369.194 127.345C369.124 127.35 369.054 127.356 368.984 127.356C368.952 127.356 368.92 127.356 368.887 127.356C368.92 127.356 368.952 127.356 368.984 127.35C369.054 127.35 369.124 127.345 369.194 127.35V127.345Z" fill="#FBFAF3"/><path d="M363.071 132.241C363.437 132.887 364.127 133.318 364.444 133.991C364.789 134.724 364.708 135.316 364.52 136.108C365.575 135.93 366.555 136.086 367.627 136.032C367.708 135.262 367.643 134.481 367.702 133.711C367.762 132.941 367.966 132.139 368.499 131.573C368.941 131.099 369.56 130.835 370.093 130.469C370.971 129.866 371.639 128.929 371.827 127.873C372.14 126.112 370.81 123.899 368.806 124.292C368.058 124.437 367.401 124.976 367.11 125.681C366.857 126.295 366.873 127.001 366.62 127.615C366.394 128.159 365.947 128.611 365.408 128.848C364.961 129.042 364.466 129.09 364.024 129.295C363.324 129.624 362.883 130.378 362.84 131.142C362.818 131.525 362.893 131.907 363.082 132.241H363.071Z" fill="#FBFAF3"/><path d="M369.309 130.947C368.157 131.394 367.026 131.89 365.922 132.439Z" fill="#FBFAF3"/><path d="M366.074 137.173C366.933 137.173 367.63 136.477 367.63 135.617C367.63 134.757 366.933 134.061 366.074 134.061C365.214 134.061 364.518 134.757 364.518 135.617C364.518 136.477 365.214 137.173 366.074 137.173Z" fill="#FBFAF3"/><path d="M355.676 101.618C355.342 101.688 355.056 102.038 354.787 102.302C354.313 102.76 353.651 103.013 352.994 102.986C352.595 102.383 352.192 101.785 351.793 101.182C351.728 101.085 351.664 100.977 351.68 100.864C351.701 100.735 351.825 100.654 351.928 100.573C352.337 100.25 352.531 99.5714 352.148 99.2214C351.971 99.0598 351.718 99.006 351.502 98.8929C351.287 98.7798 351.093 98.5374 351.185 98.3113C351.26 98.1335 351.475 98.0635 351.664 98.0204C352.326 97.8642 353.048 97.7188 353.667 98.0043C354.119 98.2143 354.469 98.6344 354.96 98.7259C355.53 98.8336 356.112 98.4297 356.365 97.9019C356.618 97.3742 356.618 96.7656 356.559 96.184C356.516 95.7585 356.376 95.2469 355.961 95.1284C355.46 94.9883 355.062 95.5215 354.679 95.8824C354.206 96.3294 353.532 96.5556 352.881 96.4855C352.908 95.9739 352.402 95.57 351.89 95.5054C351.378 95.4407 350.878 95.6131 350.388 95.7477C348.697 96.2055 346.887 96.2055 345.196 95.7477C344.701 95.6131 344.2 95.4354 343.694 95.5054C343.188 95.5754 342.681 95.9954 342.73 96.5017C342.03 96.5609 341.308 96.3024 340.797 95.8177C340.441 95.4784 340.053 94.9937 339.585 95.1392C339.24 95.2469 339.1 95.6562 339.036 96.0116C338.917 96.6902 338.912 97.428 339.273 98.015C339.633 98.602 340.452 98.936 341.039 98.5805C341.357 98.3867 341.561 98.0312 341.906 97.8966C342.137 97.8104 342.396 97.8373 342.638 97.8642C343.123 97.9235 343.608 97.9773 344.087 98.0366C344.178 98.0474 344.27 98.0581 344.345 98.112C344.545 98.2574 344.448 98.5913 344.254 98.7475C344.06 98.9037 343.801 98.9521 343.597 99.0921C343.247 99.3399 343.139 99.8677 343.354 100.234C343.478 100.439 343.678 100.589 343.769 100.805C343.936 101.203 343.672 101.645 343.376 101.957C343.08 102.27 342.724 102.571 342.654 102.997C341.992 103.04 341.319 102.803 340.834 102.35C340.63 102.162 340.452 101.936 340.226 101.78C340 101.623 339.682 101.543 339.439 101.677C339.192 101.817 339.1 102.13 339.046 102.415C338.922 103.094 338.885 103.837 339.219 104.44C339.553 105.043 340.366 105.426 340.969 105.081C341.157 104.973 341.308 104.806 341.486 104.677C342.202 104.16 343.188 104.343 344.044 104.548C344.211 104.585 344.405 104.65 344.458 104.812C344.512 104.968 344.405 105.14 344.265 105.232C344.125 105.323 343.958 105.356 343.807 105.431C343.457 105.603 343.231 105.996 343.252 106.39C343.274 106.783 343.554 107.144 343.92 107.273C343.548 107.547 343.613 108.167 343.936 108.501C344.259 108.835 344.738 108.953 345.196 109.034C346.979 109.352 348.815 109.362 350.592 109.018C351.018 108.937 351.47 108.813 351.761 108.49C352.051 108.167 352.078 107.58 351.712 107.348C351.928 107.127 352.148 106.907 352.267 106.621C352.385 106.336 352.385 105.98 352.175 105.754C352.003 105.56 351.728 105.501 351.502 105.372C351.276 105.242 351.077 104.962 351.211 104.736C351.298 104.591 351.481 104.542 351.648 104.51C352.466 104.338 353.403 104.187 354.076 104.682C354.34 104.876 354.545 105.162 354.852 105.275C355.17 105.399 355.546 105.302 355.821 105.102C356.656 104.494 356.769 103.25 356.5 102.329C356.408 102.027 356.236 101.699 355.929 101.623C355.837 101.602 355.746 101.602 355.66 101.623L355.676 101.618Z" fill="#FBFAF3"/><path d="M333.988 126.262C333.95 126.025 333.88 125.788 333.788 125.567C333.395 124.614 332.722 123.774 331.877 123.182C329.475 121.501 330.18 124.943 329.545 126.074C329.082 126.903 328.032 127.194 327.084 127.264C326.804 127.285 326.492 127.307 326.303 127.512C326.034 127.802 326.174 128.271 326.346 128.626C327.079 130.151 328.188 131.492 329.556 132.488C329.825 132.687 330.121 132.876 330.45 132.94C330.778 133.005 331.161 132.913 331.36 132.639C331.651 132.235 331.435 131.685 331.327 131.201C331.074 130.027 331.634 128.723 332.658 128.093C333.051 127.851 333.519 127.689 333.788 127.318C334.004 127.016 334.042 126.639 333.988 126.268V126.262ZM326.842 127.345C326.874 127.345 326.906 127.345 326.939 127.35C326.906 127.35 326.874 127.35 326.842 127.35C326.772 127.35 326.702 127.35 326.632 127.339C326.702 127.334 326.772 127.339 326.842 127.339V127.345Z" fill="#FBFAF3"/><path d="M332.848 131.077C332.805 130.312 332.363 129.558 331.663 129.23C331.221 129.025 330.726 128.977 330.279 128.783C329.735 128.546 329.294 128.093 329.067 127.549C328.814 126.935 328.83 126.23 328.577 125.616C328.286 124.91 327.629 124.372 326.881 124.227C324.878 123.833 323.548 126.047 323.86 127.808C324.043 128.858 324.711 129.795 325.594 130.404C326.127 130.77 326.746 131.034 327.188 131.508C327.716 132.073 327.92 132.87 327.985 133.646C328.044 134.416 327.985 135.197 328.06 135.967C329.127 136.021 330.112 135.865 331.167 136.042C330.979 135.251 330.893 134.664 331.243 133.926C331.561 133.253 332.25 132.827 332.616 132.176C332.805 131.842 332.88 131.459 332.858 131.077H332.848Z" fill="#FBFAF3"/><path d="M326.363 130.889C327.516 131.336 328.647 131.831 329.75 132.38Z" fill="#FBFAF3"/><path d="M370.562 106.955C370.562 106.955 370.562 106.944 370.557 106.939C369.884 105.113 368.247 103.794 366.48 102.98C364.52 102.076 362.21 101.699 360.201 102.485C358.106 103.304 356.674 105.221 354.881 106.583C350.874 109.632 344.8 109.583 340.847 106.465C339.388 105.318 338.203 103.81 336.577 102.916C331.655 100.207 324.185 104.391 325.149 110.267C325.435 112.001 326.318 113.595 327.406 114.979C328.515 116.385 329.947 118.006 329.398 119.713C329.07 120.742 328.03 121.695 328.429 122.697C328.897 123.871 330.814 123.682 331.488 124.749C331.983 125.535 331.558 126.628 331.961 127.463C332.279 128.126 333.028 128.454 333.502 129.02C334.703 130.436 333.852 132.822 334.977 134.303C335.704 135.261 337.088 135.515 338.257 135.24C339.425 134.965 340.443 134.254 341.423 133.56C342.775 132.601 344.127 131.648 345.478 130.689C346.604 129.892 347.869 128.756 347.568 127.415C347.336 126.37 346.211 125.767 345.155 125.594C344.1 125.422 343.001 125.546 341.967 125.287C340.551 124.932 339.377 123.887 338.618 122.643C337.858 121.394 337.481 119.956 337.234 118.518C337.094 117.705 337.002 116.837 337.341 116.083C337.691 115.303 338.515 114.759 339.371 114.742C340.228 114.726 341.073 115.238 341.456 116.003C342.016 117.128 341.676 118.722 342.667 119.493C343.389 120.053 344.536 119.896 345.144 120.575C345.699 121.189 345.521 122.153 345.753 122.95C346.033 123.914 347.008 124.625 348.009 124.598C349.011 124.571 349.942 123.806 350.169 122.832C350.346 122.067 350.158 121.162 350.686 120.586C351.235 119.983 352.226 120.112 352.926 119.697C354.251 118.906 353.809 116.805 354.708 115.556C355.511 114.446 357.428 114.441 358.236 115.545C358.86 116.401 358.79 117.564 358.618 118.609C358.386 120.01 358.015 121.415 357.282 122.632C356.55 123.849 355.419 124.873 354.046 125.244C352.969 125.535 351.822 125.411 350.723 125.605C349.625 125.799 348.462 126.472 348.284 127.576C348.074 128.874 349.285 129.914 350.357 130.668C351.806 131.68 353.249 132.698 354.698 133.71C355.613 134.351 356.55 135.003 357.632 135.278C358.715 135.552 359.986 135.369 360.729 134.54C362.043 133.08 361.144 130.501 362.415 129.003C362.894 128.438 363.642 128.088 363.944 127.409C364.294 126.623 363.922 125.643 364.332 124.889C364.989 123.666 367.218 123.806 367.541 122.455C367.767 121.517 366.836 120.731 366.496 119.826C365.947 118.34 367.057 116.811 368.02 115.561C369.927 113.089 371.607 109.895 370.541 106.966L370.562 106.955ZM342.156 127.339C342.554 127.42 342.985 127.544 343.216 127.878C343.249 127.921 343.27 127.964 343.292 128.012C343.453 128.373 343.356 128.831 343.13 129.165C342.872 129.542 342.473 129.795 342.086 130.037C341.326 130.517 340.567 130.996 339.808 131.475C339.307 131.788 338.758 132.116 338.171 132.057C337.234 131.96 336.684 130.942 336.485 130.021C336.377 129.526 336.318 129.003 336.442 128.508C336.975 126.364 340.615 127.027 342.161 127.339H342.156ZM344.39 109.998C344.961 110.019 345.532 110.089 346.076 110.262C346.55 110.418 347.045 110.709 347.175 111.188C347.175 111.204 347.185 111.22 347.185 111.236C347.271 111.651 347.04 112.087 346.701 112.341C346.361 112.594 345.931 112.691 345.51 112.734C344.902 112.793 344.288 112.739 343.701 112.588C343.529 112.545 343.351 112.486 343.222 112.367C343.076 112.238 342.996 112.055 342.947 111.867C342.64 110.714 343.233 109.96 344.39 110.003V109.998ZM344.057 113.606C344.52 113.515 344.999 113.455 345.473 113.493C345.887 113.525 346.345 113.665 346.544 114.026C346.55 114.037 346.555 114.053 346.566 114.064C346.717 114.382 346.614 114.78 346.388 115.049C346.162 115.319 345.834 115.486 345.5 115.599C345.02 115.766 344.514 115.841 344.008 115.83C343.863 115.83 343.706 115.814 343.577 115.744C343.437 115.669 343.335 115.534 343.26 115.394C342.786 114.522 343.12 113.795 344.067 113.606H344.057ZM343.453 118.577C342.98 117.705 343.313 116.977 344.261 116.789C344.724 116.697 345.204 116.638 345.677 116.676C346.092 116.708 346.55 116.848 346.749 117.209C346.754 117.22 346.76 117.236 346.771 117.247C346.921 117.565 346.819 117.963 346.593 118.232C346.367 118.502 346.038 118.669 345.704 118.782C345.225 118.949 344.719 119.024 344.213 119.013C344.067 119.013 343.911 118.997 343.782 118.927C343.642 118.852 343.54 118.717 343.464 118.577H343.453ZM352.797 111.861C352.748 112.05 352.667 112.233 352.522 112.362C352.387 112.481 352.215 112.54 352.043 112.583C351.456 112.739 350.836 112.788 350.233 112.728C349.813 112.691 349.382 112.588 349.043 112.335C348.704 112.082 348.472 111.646 348.559 111.231C348.559 111.215 348.564 111.199 348.569 111.183C348.699 110.709 349.194 110.412 349.668 110.256C350.212 110.079 350.783 110.014 351.353 109.992C352.517 109.949 353.109 110.703 352.797 111.856V111.861ZM352.5 115.394C352.425 115.534 352.323 115.669 352.183 115.744C352.053 115.814 351.897 115.825 351.752 115.83C351.246 115.841 350.74 115.76 350.26 115.599C349.926 115.486 349.598 115.319 349.372 115.049C349.146 114.78 349.043 114.382 349.194 114.064C349.199 114.053 349.205 114.037 349.215 114.026C349.409 113.665 349.872 113.525 350.287 113.493C350.761 113.455 351.235 113.515 351.703 113.606C352.651 113.795 352.985 114.522 352.511 115.394H352.5ZM351.973 118.927C351.843 118.997 351.687 119.008 351.542 119.013C351.036 119.024 350.529 118.943 350.05 118.782C349.716 118.669 349.388 118.502 349.162 118.232C348.935 117.963 348.833 117.565 348.984 117.247C348.989 117.236 348.995 117.22 349.005 117.209C349.199 116.848 349.662 116.708 350.077 116.676C350.551 116.638 351.025 116.697 351.493 116.789C352.441 116.977 352.775 117.705 352.301 118.577C352.226 118.717 352.123 118.852 351.983 118.927H351.973ZM359.566 130.005C359.367 130.899 358.839 131.885 357.929 131.982C357.358 132.041 356.825 131.723 356.345 131.416C355.608 130.953 354.87 130.49 354.132 130.027C353.755 129.79 353.373 129.542 353.12 129.181C352.899 128.858 352.802 128.416 352.964 128.066C352.985 128.023 353.007 127.975 353.039 127.937C353.265 127.614 353.68 127.495 354.068 127.415C355.57 127.113 359.097 126.472 359.614 128.546C359.733 129.025 359.679 129.531 359.571 130.011L359.566 130.005Z" fill="#FBFAF3"/><path d="M329.605 137.114C330.465 137.114 331.161 136.417 331.161 135.557C331.161 134.698 330.465 134.001 329.605 134.001C328.746 134.001 328.049 134.698 328.049 135.557C328.049 136.417 328.746 137.114 329.605 137.114Z" fill="#FBFAF3"/><path d="M322.053 116.568C322.705 116.234 323.206 115.47 322.985 114.77C322.716 113.913 321.644 113.66 320.75 113.585C314.498 113.046 307.713 114.468 303.388 119.008C302.215 120.236 299.689 123.806 302.548 124.41C305.763 125.088 307.465 123.844 308.607 122.444C309.506 121.345 311.1 119.428 312.166 119.708C313.233 119.988 316.824 120.99 317.853 120.591C318.882 120.193 319.495 118.679 318.655 117.963C318.316 117.672 317.848 117.597 317.406 117.532C316.081 117.338 314.762 117.145 313.437 116.951C315.591 116.94 317.745 116.929 319.894 116.918C320.276 116.918 320.664 116.913 321.041 116.864C321.391 116.816 321.73 116.73 322.043 116.574L322.053 116.568Z" fill="#FBC6D4"/><path d="M315.973 111.119C315.946 111.103 316.161 107.521 316.161 107.521C314.26 107.543 310.792 107.408 307.518 110.02C304.007 112.821 300.566 116.655 300.151 117.259C299.753 117.846 299.343 118.449 299.117 119.127C298.401 121.276 300.259 123.409 302.397 123.538C303.479 123.603 304.562 123.22 305.434 122.585C306.441 121.858 307.028 120.802 307.674 119.774C308.014 119.235 308.385 118.707 308.875 118.293C309.327 117.905 309.871 117.63 310.426 117.42C311.552 116.989 312.752 116.79 313.883 116.375C315.03 115.955 316.334 115.39 317.152 114.447C317.809 113.688 318.1 112.406 317.271 111.641C316.603 111.027 315.504 111.044 314.659 111.178C313.851 111.308 313.081 111.582 312.306 111.835C310.878 112.298 309.424 112.67 307.954 112.95" fill="#FBC6D4"/><path d="M299.192 113.897C296.101 113.811 280.672 116.935 278.804 115.395C277.942 114.43 272.11 104.43 270.317 102.572C267.586 99.7441 267.834 96.6851 263.666 97.8753C261.636 98.4569 258.873 103.74 259.121 105.948C259.536 109.594 263.144 119.207 267.468 126.214C269.24 129.085 273.801 131.228 280.446 130.695C288.863 130.022 295.681 130.07 299.192 130.07C302.703 130.07 299.397 122.687 300.872 117.883C301.696 115.206 299.967 113.919 299.192 113.897Z" fill="#3759FF"/><path d="M291.247 77.5446C290.019 75.5896 288.043 74.2109 285.958 73.22C283.088 71.852 279.814 71.1142 276.707 71.7766C273.599 72.4391 270.729 74.6848 269.895 77.7546C269.308 79.9142 269.749 82.2246 269.431 84.4435C269.329 85.1436 269.065 87.621 268.661 88.2026C268.295 88.7304 262.786 93.5935 262.856 93.7282C264.768 97.3419 269.905 102.97 270.982 102.173C272.059 101.376 274.86 97.4603 276.206 97.4711C276.901 97.4711 279.345 98.3867 281.392 98.6452C284.224 99.0006 286.519 98.3005 287.854 95.3762C288.258 94.4875 288.586 93.642 289.949 93.642C292.383 93.642 292.706 91.1108 291.274 89.382C290.708 88.6981 290.482 87.7771 290.423 87.0716C290.337 85.9891 291.187 85.0951 291.71 84.1419C291.769 84.0342 291.823 83.9211 291.877 83.8134C292.781 81.8422 292.405 79.408 291.241 77.5607L291.247 77.5446Z" fill="#FBC6D4"/><path d="M289.968 86.5872C290.044 86.2415 289.884 85.9126 289.611 85.8527C289.338 85.7927 289.055 86.0244 288.979 86.3701C288.903 86.7159 289.063 87.0447 289.336 87.1046C289.609 87.1646 289.892 86.9329 289.968 86.5872Z" fill="#1A1A1A"/><path d="M231.793 177.032C232.062 177.054 269.161 188.121 274.282 187.976C286.091 187.647 291.067 176.892 285.941 170.484C283.464 167.392 266.91 143.804 261.745 139.409C261.718 139.371 261.686 139.339 261.659 139.301C258.783 135.79 255.972 132.23 253.221 128.622C252.197 127.281 251.142 125.428 249.176 125.821C248.153 126.026 247.157 126.5 246.193 126.888C245.148 127.308 244.114 127.749 243.086 128.218C238.982 130.081 243.877 132.93 240.162 135.478C237.625 137.217 231.745 149.814 233.042 150.767C233.942 151.43 255.919 170.204 259.737 172.369C259.737 172.369 235.552 151.424 233.042 150.767L231.804 177.032H231.793Z" fill="#3759FF"/><path d="M220.325 175.282C220.6 174.367 220.912 173.489 221.241 172.681C222.926 168.475 219.281 164.123 220.234 159.691C220.552 158.226 220.896 156.627 222.054 155.668C223.007 154.882 224.321 154.704 225.56 154.747C227.768 154.828 234.978 155.566 236.61 157.063C238.242 158.555 239.184 160.86 238.78 163.036C238.177 166.267 235.016 168.303 233.277 171.098C232.178 172.859 231.656 174.965 231.796 177.033C231.893 178.471 233.142 181.793 234.122 184.195C235.926 188.649 227.919 187.615 224.343 186.479C220.681 185.316 219.302 178.708 220.331 175.277L220.325 175.282Z" fill="#FFB923"/><path d="M248.938 179.499C246.45 178.535 246.116 173.505 245.115 171.103C244.819 170.392 246.192 169.859 246.057 169.084C245.567 166.202 240.295 159.605 237.672 160.273C235.147 160.914 227.893 164.436 226.805 166.805C225.475 169.697 226.94 173.042 228.378 175.88C229.665 178.422 230.957 180.959 232.244 183.501C233.305 185.59 233.634 187.335 235.852 188.1C241.297 189.985 247.172 188.515 252.686 188.515C253.155 188.445 258.373 183.145 248.938 179.499Z" fill="#F6DF57"/><path d="M285.895 158.593C294.08 152.696 290.149 139.151 286.967 137.772C279.966 134.735 264.01 134.719 256.708 132.511C256.04 132.306 255.367 132.112 254.693 131.918C254.65 131.864 240.035 132.877 236.352 133.528C234.811 133.803 229.389 147.111 228.775 150.531C228.032 154.656 232.878 166.973 238.872 163.801C243.309 161.447 270.639 148.053 270.493 148.123C263.665 151.532 241.699 162.018 238.872 163.801C237.31 164.786 251.527 180.302 254.553 182.639C257.58 184.977 259.465 179.483 262.863 176.403C270.106 169.832 281.792 161.549 285.9 158.593H285.895Z" fill="#3793FF"/><path d="M272.648 99.6952C270.591 95.893 265.346 91.1914 265.346 91.1914C243.181 98.0203 227.354 145.095 227.246 158.005C227.246 158.565 261.302 161.408 262.4 136.866C263.036 122.643 266.989 108.56 271.566 104.348C273.198 102.851 272.805 99.9752 272.654 99.6952H272.648Z" fill="#3793FF"/><path d="M269.75 103.67C272.066 92.5114 256.158 91.1597 253.158 100.913C251.295 106.966 249.19 117.301 249.168 125.821C249.13 138.289 256.406 139.457 261.759 140.254C267.106 141.051 273.428 141.057 279.293 140.928C282.459 140.858 284.231 131.368 282.782 129.526C281.339 127.701 268.361 127.232 266.234 126.99C263.627 126.694 269.271 105.991 269.756 103.665L269.75 103.67Z" fill="#3793FF"/><path d="M282.669 140.362C285.318 140.729 287.182 141.709 289.32 140.093C290.068 139.528 290.725 138.731 291.651 138.564C292.389 138.429 293.132 138.736 293.795 139.097C295.636 140.104 295.9 140.863 296.999 142.651C297.516 143.491 297.947 144.412 298.69 145.053C299.433 145.694 300.634 145.963 301.388 145.333C301.862 144.94 302.05 144.278 302.002 143.658C301.953 143.039 301.705 142.463 301.431 141.908C299.067 137.18 295.803 134.519 290.784 132.877C288.14 132.009 285.792 131.105 283.035 131.46C276.831 132.257 276.751 139.544 282.669 140.357V140.362Z" fill="#FBC6D4"/><path d="M289.133 139.856C291.26 142.091 293.344 142.43 293.818 143.071C294.319 143.744 295.552 145.726 296.042 146.399C296.537 147.083 297.065 147.853 297.819 148.268C298.212 148.483 298.675 148.586 299.117 148.456C299.515 148.338 299.844 148.042 300.049 147.681C300.528 146.841 300.275 145.861 299.946 145.015C299.488 143.846 297.033 137.12 290.312 135.429" fill="#FBC6D4"/><path d="M283.875 140.637C287.731 140.885 290.526 143.917 291 144.557C291.5 145.231 291.883 145.952 292.373 146.631C292.868 147.315 293.396 148.085 294.15 148.5C294.543 148.715 295.006 148.817 295.448 148.688C295.846 148.57 296.175 148.274 296.379 147.913C296.859 147.073 296.606 146.092 296.277 145.247C295.819 144.078 292.524 138.876 289.136 138.062" fill="#FBC6D4"/><path d="M263.733 89.5656C269.064 94.0733 282.812 99.5612 283.653 99.3027C285.462 98.7426 284.062 97.5847 284.073 96.2329C284.089 93.6532 285.01 90.0718 285.758 87.616C285.904 87.1421 286.065 86.6574 286.41 86.3019C286.711 85.995 287.121 85.8172 287.519 85.6449C289.792 84.6863 292.333 83.5553 293.184 81.2395C293.874 79.3707 293.2 77.2488 292.113 75.5793C290.562 73.2096 288.208 71.4378 285.629 70.2637C280.728 68.0395 274.282 68.2065 270.664 72.1918C266.442 76.8341 267.556 84.5732 263.582 89.4309C263.636 89.474 263.684 89.5171 263.738 89.5602L263.733 89.5656Z" fill="#F66041"/></svg>