<svg width="480" height="240" viewBox="0 0 480 240" fill="none" xmlns="http://www.w3.org/2000/svg"><path d="M331.441 186.779L325.066 178.277V172.857L331.441 177.69V186.779Z" fill="#0349A4"/><path d="M452.474 158.227C454.139 159.965 452.765 162.47 450.018 162.701C434.421 164.013 394.067 167.473 380.751 169.221C364.108 171.408 344.997 178.207 344.997 178.207L344.691 184.239L331.445 186.779L331.455 180.695C329.21 178.34 323.831 179.346 318.194 180.181C311.202 181.219 292.292 186.222 279.039 189.136C267.782 191.612 230.074 203.895 218.961 207.542C216.979 208.191 214.741 208.148 212.8 207.424C211.003 206.754 209.614 205.553 208.926 204.083L171.341 123.501C170.656 122.034 171.018 120.393 172.287 119.192C172.962 118.555 173.85 118.081 174.853 117.828C186.526 114.876 260.956 96.0972 265.783 95.8715C271.024 95.6283 282.119 98.5424 282.119 98.5424L293.524 90.284L378.009 84.9498C380.482 84.7943 382.888 85.6445 384.383 87.2044L452.471 158.222L452.474 158.227Z" fill="#F3AB65"/><path d="M279.928 95.8107L337.553 180.433L340.586 180.122C340.586 180.122 339.745 172.551 356.614 167.719C373.484 162.883 416.044 162.883 425.246 162.583C434.448 162.282 445.388 160.388 445.388 160.388L371.771 84.5554C371.771 84.5554 355.462 86.4489 348.177 86.7498C340.892 87.0508 317.488 81.2325 306.382 82.519C282.926 85.2376 279.926 95.8132 279.926 95.8132L279.928 95.8107Z" fill="#F66441"/><path d="M277.489 95.4877L336.172 180.657L339.308 179.82C339.308 179.82 337.826 166.784 354.696 161.949C371.567 157.113 414.177 161.023 423.379 160.722C432.581 160.421 443.521 158.528 443.521 158.528L369.904 82.6951C369.904 82.6951 353.595 84.5885 346.31 84.8895C339.025 85.1904 315.621 79.3722 304.515 80.6587C281.059 83.3772 277.484 95.4877 277.484 95.4877H277.489Z" fill="#F3DCBE"/><path d="M333.843 154.854L294.051 97.4241C294.051 97.4241 298.18 87.9143 310.851 86.9186C328.018 85.5719 345.499 92.3582 352.694 91.5908C359.891 90.8234 368.129 89.266 368.129 89.266L420.528 139.012C420.528 139.012 363.667 143.165 356.622 144.053C340.168 146.129 333.843 154.852 333.843 154.852V154.854Z" fill="#3D73B9"/><path d="M371.858 97.3812C371.795 96.9824 371.675 96.5812 371.532 96.2075C370.669 93.9153 369.214 91.6733 366.821 90.1962C363.758 88.3052 359.761 88.1548 356.884 90.1284C353.412 92.5134 350.329 94.9511 346.347 96.8645C344.494 97.7548 342.281 98.9661 342.554 100.659C342.752 101.888 344.253 102.725 345.738 103.144C348.412 103.897 351.355 103.786 354.167 103.468C359.144 102.906 363.971 101.737 368.775 100.571C369.683 100.35 370.646 100.105 371.254 99.5304C371.878 98.9411 371.981 98.1636 371.858 97.3837V97.3812Z" fill="#53C274"/><path d="M337.545 180.433L337.495 177.84L279.923 95.8107C279.923 95.8107 278.772 89.4658 266.505 89.4658C254.235 89.4658 222.793 105.178 211.675 108.197C200.556 111.219 183.686 115.447 183.686 115.447L176.4 119.074L221.644 207.596C221.644 207.596 246.987 200.684 269.465 192.426C281.617 187.96 292.188 183.119 297.002 181.261C303.026 178.936 327.029 171.882 333.185 178.021C334.648 179.478 335.001 180.882 335.001 180.882L337.548 180.433H337.545Z" fill="#F66441"/><path d="M337.542 180.433L337.492 177.84L279.92 95.8107C279.92 95.8107 278.769 89.4658 266.501 89.4658C241.816 89.4658 216.222 106.931 205.101 109.95C193.983 112.972 183.68 115.447 183.68 115.447L228.359 200.953C228.359 200.953 246.635 196.158 269.113 187.899C281.265 183.433 297.87 175.149 302.538 172.953C318.235 165.567 326.238 167.415 331.779 174.798C333.019 176.451 334.998 180.88 334.998 180.88L337.544 180.431L337.542 180.433Z" fill="#F3EAD1"/><path d="M212.41 149.485L197.055 118.249L219.098 111.631L235.197 142.071L212.41 149.485Z" fill="#FAFFA9"/><path d="M212.863 141.083L209.02 133.116L223.678 128.451L227.757 136.411L212.863 141.083Z" fill="#53C274"/><path d="M278.059 164.775L296.721 164.058L296.536 160.494L277.818 161.239L278.059 164.775Z" fill="#A2DDEE"/><path d="M233.443 185.522L215.18 153.166L270.358 135.31L285.295 158.705L279.916 168.805L233.443 185.522Z" fill="#EF98B9"/><path d="M217.801 154.187L269.6 137.427L283.237 158.786L280.322 166.184L234.258 183.341L217.801 154.187Z" fill="#F6DF11"/><path d="M226.391 111.364L242.986 106.07C242.986 106.07 244.39 111.618 249.297 119.354C254.204 127.091 263.125 132.282 263.125 132.282L246.332 136.493C235.949 132.062 229.424 117.79 228.31 115.532C227.073 113.03 226.393 111.364 226.393 111.364H226.391Z" fill="#79D5FF"/><path d="M237.078 129.351C239.667 132.303 242.773 134.976 246.333 136.496L263.126 132.285C263.126 132.285 258.635 129.67 254.275 125.389C248.673 127.081 242.861 128.233 237.078 129.351Z" fill="#F6A141"/><path d="M249.602 104.371L265.12 100.697C265.12 100.697 269.651 106.874 274.558 114.608C279.465 122.345 289.469 125.119 289.469 125.119L272.676 129.33C262.293 124.898 257.647 116.863 256.533 114.608C255.296 112.106 249.604 104.369 249.604 104.369L249.602 104.371Z" fill="#53C274"/><path d="M344.69 184.236L344.996 178.207L331.454 180.695L331.441 186.779L344.69 184.236Z" fill="#0349A4"/><path d="M205.221 119.613L216.146 116.458" stroke="#19191A" stroke-width="1.09756" stroke-linecap="round" stroke-linejoin="round"/><path d="M206.633 121.677L214.048 119.438" stroke="#19191A" stroke-width="1.09756" stroke-linecap="round" stroke-linejoin="round"/><path d="M207.539 123.383L214.955 121.146" stroke="#19191A" stroke-width="1.09756" stroke-linecap="round" stroke-linejoin="round"/><path d="M209.893 127.5L217.306 125.261" stroke="#19191A" stroke-width="1.09756" stroke-linecap="round" stroke-linejoin="round"/><path d="M210.531 128.669L217.947 126.432" stroke="#19191A" stroke-width="1.09756" stroke-linecap="round" stroke-linejoin="round"/><path d="M211.484 130.226L218.9 127.986" stroke="#19191A" stroke-width="1.09756" stroke-linecap="round" stroke-linejoin="round"/><path d="M220.848 140.853L224.3 139.656" stroke="#19191A" stroke-width="1.09756" stroke-linecap="round" stroke-linejoin="round"/><path d="M219.043 143.774L228.014 140.853" stroke="#19191A" stroke-width="1.09756" stroke-linecap="round" stroke-linejoin="round"/><path d="M249.17 164.107C249.128 163.977 245.608 162.131 243.912 162.489C243.345 162.61 244.198 164.388 243.9 166.673C243.747 167.831 241.173 169.782 240.132 170.56C238.16 172.034 241.215 175.187 244.379 173.507C247.515 171.841 249.767 165.883 249.168 164.11L249.17 164.107Z" fill="#ED7E5B"/><path d="M268.198 158.244C267.779 157.62 267.225 157.05 266.522 156.619C265.715 156.125 264.656 155.831 263.775 156.067C262.895 156.303 262.365 157.191 262.865 157.898C263.103 158.237 263.512 158.475 263.868 158.741C266.146 160.446 265.629 162.282 264.867 164.158C264.606 164.797 264.53 165.567 265.02 166.186C265.622 166.946 266.921 166.502 267.847 166.174C268.77 165.848 269.34 165.763 269.533 164.943C269.726 164.122 269.608 163.255 269.488 162.405C269.34 161.354 269.184 160.298 268.755 159.28C268.607 158.926 268.421 158.578 268.198 158.244Z" fill="#ED7E5B"/><path d="M267.008 152.069C266.241 151.194 266.293 151.628 266.19 150.663C266.083 149.649 266.569 148.827 266.17 147.741C265.159 144.995 261.813 143.274 258.426 143.036C256.748 142.918 252.684 144.35 256.69 145.419C258.697 145.953 260.842 145.258 261.652 147.693C262.39 149.905 259.139 152.107 256.951 152.699C253.391 153.664 254.003 154.311 251.113 156.396C249.751 157.379 246.856 157.371 244.929 157.785C243.693 158.051 242.039 157.873 240.86 158.026C238.806 159.934 237.729 162.362 241.332 163.739C245.341 165.271 247.413 163.272 250.032 166.941C252.242 170.038 247.255 172.223 248.585 173.311C250.316 174.725 254.199 173.614 255.002 171.949C256.394 169.058 254.645 166.816 254.61 163.879C254.598 162.876 258.409 164.423 262.259 162.347C265.179 160.772 266.71 157.82 267.465 157.973C268.579 158.199 273.287 158.577 274.01 159.327C275.678 161.055 276.235 162.432 278.014 162.073C281.626 161.346 281.084 156.985 276.694 155.708C273.812 154.871 269.359 154.743 267.008 152.069Z" fill="#ED7E5B"/><path d="M279.922 168.804C280.582 168.069 280.456 158.061 280.456 158.061L285.3 158.705L279.922 168.804Z" fill="#00956B"/><path d="M236.674 158.545C238.669 160.691 241.443 162.685 244.689 162.246C245.823 162.093 246.812 161.469 247.161 160.581C247.544 159.608 247.023 158.55 246.114 157.75C245.239 156.977 244.06 156.543 242.891 156.27C242.286 156.129 241.674 156.019 241.069 155.879C240.543 155.756 239.978 155.603 239.569 155.427C234.835 153.413 231.737 156.787 232.056 158.635C232.141 159.136 232.101 159.638 232.121 160.142C232.139 160.571 232.076 160.985 231.9 161.308C231.464 162.113 230.731 162.693 230.089 163.427C229.361 164.26 229.632 163.824 229.249 164.827C228.882 165.785 229.033 166.913 230.026 167.718C230.495 168.099 234.622 169.321 236.699 167.257C237.023 166.933 237.171 166.299 237.442 166.041C237.505 165.98 237.507 165.97 237.577 165.945C237.665 165.913 237.836 165.885 237.961 165.865C238.27 165.817 238.581 165.785 238.879 165.709C240.181 165.381 241.202 164.651 241.596 163.568C241.759 163.116 241.777 162.617 241.657 162.131C241.639 162.061 241.614 161.993 241.591 161.925C241.737 161.968 241.885 162.005 242.033 162.043" fill="#ED7E5B"/><path d="M230.493 166.272C230.927 166.846 230.749 167.559 230.094 167.86C229.437 168.16 228.551 167.937 228.114 167.36C227.68 166.784 227.864 166.074 228.521 165.773C229.176 165.475 230.059 165.698 230.493 166.272Z" fill="#3D73B9"/><path d="M233.544 160.602C233.694 160.797 233.634 161.038 233.411 161.138C233.187 161.239 232.884 161.163 232.733 160.968C232.583 160.772 232.643 160.531 232.869 160.431C233.092 160.331 233.396 160.406 233.544 160.602Z" fill="#3D73B9"/><path d="M243.051 161.842C243.051 161.842 243.056 161.842 243.058 161.842H243.063C243.001 161.832 243.024 161.842 243.051 161.842Z" fill="white"/><path d="M247.625 158.234C247.459 157.86 247.173 157.504 246.809 157.226C246.601 157.068 246.383 156.935 246.132 156.822C245.868 156.704 245.585 156.626 245.299 156.564C244.745 156.443 244.18 156.411 243.618 156.336C243.473 156.315 243.327 156.293 243.182 156.265C243.109 156.253 243.039 156.238 242.966 156.22C242.953 156.218 242.941 156.215 242.926 156.21C242.886 156.2 242.848 156.19 242.808 156.183C242.509 156.107 242.213 156.02 241.92 155.924C240.741 155.548 239.532 155.104 238.272 155.194C237.715 155.235 237.181 155.393 236.78 155.689C233.782 157.916 239.687 162.003 242.595 162.319C243.187 162.384 243.769 162.337 244.313 162.191C244.893 162.036 245.409 161.768 245.886 161.477C246.315 161.216 246.724 160.932 247.068 160.601C247.414 160.265 247.667 159.877 247.77 159.438C247.865 159.042 247.79 158.623 247.615 158.229L247.625 158.234Z" fill="#79D5FF"/><path d="M342.212 114.891C341.731 114.653 341.214 114.51 340.68 114.467C340.06 114.42 339.43 114.492 338.826 114.633C338.798 114.638 338.773 114.648 338.745 114.653C339.556 114.179 340.399 113.763 341.267 113.407C341.681 113.236 342.097 113.083 342.516 112.945C342.619 112.912 342.699 112.85 342.722 112.737C342.742 112.632 342.702 112.524 342.611 112.464C341.522 111.736 340.205 111.46 338.908 111.563C337.632 111.664 336.375 112.158 335.381 112.965C335.11 113.186 334.859 113.432 334.636 113.7C334.867 112.494 335.366 111.345 336.106 110.347C336.377 109.981 336.646 109.677 336.979 109.356C337.115 109.226 337.08 108.98 336.889 108.92C335.727 108.544 334.466 108.847 333.482 109.532C332.489 110.224 331.854 111.338 331.588 112.504C331.49 112.933 331.44 113.366 331.428 113.8C330.685 112.958 329.679 112.358 328.58 112.095C327.243 111.774 325.68 111.897 324.551 112.744C323.937 113.206 323.455 113.948 323.631 114.743C323.661 114.876 323.786 114.956 323.919 114.934C324.029 114.916 324.14 114.899 324.25 114.889C324.373 114.876 324.438 114.871 324.544 114.866C324.765 114.856 324.988 114.859 325.209 114.874C325.429 114.889 325.65 114.916 325.871 114.954C325.896 114.959 325.924 114.964 325.949 114.969C325.984 114.976 325.956 114.969 325.991 114.976C326.049 114.989 326.104 115.002 326.159 115.014C326.267 115.039 326.375 115.069 326.483 115.099C326.696 115.162 326.907 115.237 327.113 115.323C327.331 115.413 327.494 115.491 327.695 115.601C327.89 115.709 328.079 115.827 328.262 115.952C328.352 116.015 328.442 116.082 328.53 116.15C328.573 116.183 328.613 116.215 328.655 116.25C328.676 116.268 328.696 116.286 328.716 116.301C328.716 116.301 328.731 116.313 328.736 116.316C328.736 116.316 328.756 116.333 328.761 116.336C328.926 116.481 329.084 116.639 329.232 116.802C327.813 116.346 326.307 116.145 324.817 116.228C323.937 116.278 323.049 116.403 322.211 116.679C321.383 116.953 320.58 117.371 319.983 118.018C319.449 118.598 319.07 119.325 318.98 120.113C318.957 120.308 318.959 120.506 318.975 120.702C318.992 120.903 319.022 121.121 319.112 121.304C319.215 121.509 319.403 121.647 319.634 121.672C319.832 121.695 320.031 121.63 320.209 121.552C320.387 121.474 320.555 121.374 320.728 121.291C320.906 121.206 321.087 121.126 321.267 121.048C321.636 120.898 321.982 120.777 322.369 120.672C323.119 120.464 323.904 120.336 324.672 120.301C325.628 120.258 326.586 120.346 327.514 120.561C327.624 120.637 327.735 120.714 327.843 120.795C328.292 121.126 328.716 121.489 329.172 121.81C329.621 122.126 330.111 122.407 330.642 122.555C331.282 122.733 331.959 122.713 332.592 122.513C333.929 122.094 334.947 121.106 335.868 120.095C336.743 119.132 337.622 118.104 338.821 117.582C340.178 116.99 341.733 117.153 343.166 117.374C343.346 117.402 343.529 117.432 343.71 117.462C343.893 117.492 344.011 117.299 343.989 117.143C343.853 116.135 343.1 115.325 342.215 114.884L342.212 114.891Z" fill="#53C274"/><path d="M332.268 70.2867C332.427 70.0534 332.84 70.1939 333.119 70.239C334.587 70.4848 336.037 69.6722 336.323 68.3506L338.089 69.1381L339.677 64.0446C339.677 64.0446 336.824 63.4628 336.651 63.1668C333.676 58.0458 328.122 59.9167 327.091 63.0891C326.208 65.8101 327.198 68.6942 329.554 68.8898C330.229 68.9475 330.169 69.4967 330.352 70.1086C330.635 71.044 331.925 70.7983 332.268 70.2867Z" fill="#FAC6E3"/><path d="M333.524 65.2635C333.075 64.4635 332.581 63.345 331.061 63.6058C329.46 63.8791 329.621 65.3864 330.865 66.0083C331.03 66.0911 330.99 66.7632 330.835 66.866C330.343 67.192 330.383 66.7005 329.861 67.0541C328.755 67.7989 328.642 67.0992 327.922 67.493C327.202 67.8892 326.289 66.9738 326.254 66.4522C326.189 65.4465 326.297 64.0246 326.432 63.2522C326.881 60.6992 329.096 58.4095 332.49 59.1368C334.465 59.5606 336.065 61.2935 336.622 62.5199C336.803 62.9161 337.272 63.1418 336.971 63.533C336.667 63.9293 336.113 64.7468 335.523 65.1657C334.708 65.745 333.833 65.8152 333.524 65.2635Z" fill="black"/><path d="M338.064 66.482C338.029 67.7911 338.661 69.0952 339.7 69.8927C341.476 71.257 343.964 71.0137 346.184 70.7052C347.471 70.5272 348.758 70.3466 350.045 70.1685C350.555 70.0983 351.096 70.0331 351.561 70.2513C351.949 70.4344 352.223 70.7905 352.474 71.1366C353.66 72.7767 354.681 74.5347 355.519 76.378C355.983 77.3962 356.741 79.42 358.051 79.6332C359.36 79.8464 361.653 78.1762 362.656 77.4163C363.093 77.0852 363.524 76.704 363.705 76.1874C363.926 75.5529 363.72 74.8608 363.514 74.2213C362.855 72.1748 360.554 69.4764 359.531 67.5855C358.51 65.6945 358.166 65.5741 356.304 64.4983C354.165 63.2619 345.204 62.023 342.973 62.3039C341.912 62.4368 340.821 62.6199 339.918 63.1917C338.837 63.8763 338.132 65.1127 338.066 66.3892C338.066 66.4193 338.064 66.4494 338.064 66.477V66.482Z" fill="#F6DF11"/><path d="M338.73 71.1373C339.771 71.9323 340.973 72.4991 342.164 73.0659C343.373 73.6402 346.63 74.8139 347.673 75.6364C348.699 76.4465 354.178 81.4371 355.27 81.4095C357.548 81.3493 366.589 81.3293 367.196 75.5336C367.276 74.7637 366.524 71.0445 357.151 66.8188C355.997 66.2997 354.848 65.773 353.659 65.3241C351.283 64.4238 348.817 63.7166 346.291 63.215C345.064 62.9717 343.818 62.746 342.556 62.6357C341.399 62.5329 340.17 62.5454 339.026 62.9667C337.965 63.3605 337.079 64.1504 336.65 65.1937C336.241 66.1918 336.241 67.2953 336.54 68.2583C336.909 69.4445 337.759 70.3975 338.725 71.1373H338.73Z" fill="#FAFFA9"/><path d="M343.055 68.646C343.344 70.4341 344.071 79.0336 341.947 82.5095C339.27 86.8907 334.747 87.8261 331.109 90.0933C329.436 91.1365 326.395 85.3308 327.993 84.3202C329.591 83.3095 331.686 81.7897 334.812 79.7784C336.177 78.9007 336.322 77.5715 335.537 74.685C333.638 67.693 336.688 63.5952 339.608 62.7852" fill="#FAFFA9"/><path d="M349.792 114.084C354.736 115.202 358.946 115.666 363.885 116.785C371.228 118.447 368.885 110.977 364.109 109.299C363.444 109.066 362.764 108.862 362.087 108.662C361.364 108.449 360.632 108.253 359.892 108.108C358.454 107.827 357.032 107.782 355.827 108.178C355.193 108.386 352.88 108.735 350.454 109.743C347.203 111.092 347.135 113.482 349.789 114.084H349.792Z" fill="black"/><path d="M357.906 110.383C358.789 110.343 367.068 111.657 366.96 111.233C365.982 107.368 364.763 99.1501 363.039 94.7713C362.816 94.2021 362.387 92.6773 363.445 90.6083C366.004 85.6026 369.94 79.9724 367.193 75.5335C365.327 72.5191 362.445 72.0752 362.445 72.0752C359.783 72.1605 350.27 90.4528 350.957 92.1531C352.525 96.0203 355.937 110.476 357.906 110.385V110.383Z" fill="#F63541"/><path d="M343.294 119.767C348.238 120.886 352.448 121.35 357.387 122.468C364.73 124.131 362.387 116.66 357.611 114.982C356.946 114.749 356.266 114.546 355.589 114.345C354.866 114.132 354.134 113.937 353.393 113.791C351.956 113.51 350.534 113.465 349.329 113.861C348.695 114.07 346.382 114.418 343.956 115.426C340.705 116.776 340.637 119.166 343.291 119.767H343.294Z" fill="black"/><path d="M362.451 72.0719C358.613 72.4331 356.654 75.2895 354.609 79.3397C353.121 82.2839 349.853 91.242 349.353 95.5681C348.852 99.9092 349.582 106.425 349.238 110.801C349.103 112.529 346.822 115.664 348.531 116.985C352.467 120.03 362.017 118.701 361.967 118.212C361.187 111.25 359.697 104.591 358.199 97.6973C357.725 95.5129 361.184 89.0426 365.151 83.751C366.37 82.1234 368.419 78.3516 367.198 75.5303C367.198 75.5303 366.287 71.7108 362.449 72.0719H362.451Z" fill="#F66041"/><path d="M319.927 94.5528L319.367 98.3121L322.242 95.8243L330.207 80.6016L327.892 79.3301L319.927 94.5528Z" fill="#F6DF11"/><path d="M328.319 84.2981C325.863 85.043 322.556 87.9646 322.265 88.3483C321.723 89.058 321.54 90.1264 321.483 90.3722C321.141 91.8368 322.546 91.8969 322.955 91.127C323.116 90.8236 323.367 90.322 323.693 89.6775C323.954 89.1634 325.243 88.4662 325.243 88.4662C325.243 88.4662 324.009 89.7251 324.756 90.4926C325.266 91.0117 325.634 91.0041 326.151 90.8737C326.041 91.5709 328.09 91.5759 329.229 91.3904C329.463 91.3527 334.51 88.3985 333.145 86.1439C332.473 85.0329 330.777 83.5533 328.324 84.2981H328.319Z" fill="#FAC6E3"/><path d="M325.784 87.6816C325.3 88.0428 324.846 88.4465 324.43 88.8854C324.076 89.2566 323.875 89.708 324.056 90.2096C324.249 90.7488 324.673 91.0497 325.207 90.7212C325.493 90.5456 325.732 90.2672 325.99 90.0516C326.316 89.7782 326.65 89.5149 326.966 89.2315" fill="#FAC6E3"/><path d="M326.872 88.7549C326.388 89.116 325.934 89.5198 325.518 89.9587C325.164 90.3298 324.963 90.7812 325.144 91.2828C325.337 91.822 325.761 92.1229 326.295 91.7944C326.581 91.6189 326.82 91.3405 327.078 91.1248C327.404 90.8514 327.738 90.5881 328.054 90.3047" fill="#FAC6E3"/><path d="M328.043 90.1084C327.318 90.62 326.693 91.1893 326.547 91.9015C326.475 92.2551 326.65 92.3379 327.027 92.6589C327.172 92.7843 327.747 93.1153 328.652 92.5987C329.192 92.2927 329.166 91.7636 328.785 91.6808L328.176 92.0971C328.208 92.052 329.367 91.3072 329.392 91.252" fill="#FAC6E3"/><path d="M329.402 68.7016C329.402 68.8019 329.545 68.8847 329.721 68.8847C329.897 68.8847 330.04 68.8019 330.04 68.7016C330.04 68.6013 329.897 68.5186 329.721 68.5186C329.545 68.5186 329.402 68.6013 329.402 68.7016Z" fill="black"/><path d="M329.748 141.874C329.186 141.35 327.641 138.41 327.51 137.921C327.289 137.089 327.56 136.214 327.874 134.965C328.403 132.856 329.665 131.404 330.749 129.573C331.888 127.649 331.777 126.561 331.198 124.494C330.44 121.798 331.238 118.862 334.549 118.47C336.009 118.297 337.374 119.135 338.834 118.771C340.094 118.458 340.916 117.344 342.075 116.798C344.424 115.689 347.045 116.249 348.106 118.751C348.58 119.87 348.716 121.62 350.256 121.751C351.827 121.884 353.086 120.329 354.845 120.773C356.094 121.089 358.063 123.662 358.146 124.923C358.221 126.082 356.413 125.6 357.11 126.704C357.757 127.732 358.635 127.431 359.689 127.278C362.19 126.912 365.288 127.958 365.416 130.899C365.476 132.296 348.598 128.261 331.667 140.096C330.751 140.735 330.265 142.35 329.753 141.874H329.748Z" fill="#A2DDEE"/><path d="M329.746 141.873C328.23 140.459 328.619 139.413 329.118 137.43C329.648 135.32 330.91 133.868 331.993 132.038C333.132 130.114 333.022 129.026 332.442 126.959C331.685 124.263 332.482 121.327 335.794 120.935C337.254 120.762 338.619 121.6 340.079 121.236C341.338 120.923 342.161 119.809 343.32 119.263C345.668 118.154 348.29 118.713 349.351 121.216C349.825 122.335 349.96 124.085 351.501 124.216C353.071 124.349 354.331 122.794 356.089 123.238C357.338 123.554 358.304 124.619 358.387 125.881C358.462 127.039 357.657 128.065 358.352 129.171C358.999 130.199 359.877 129.898 360.931 129.745C363.432 129.379 366.53 130.425 366.658 133.367C366.718 134.764 349.84 130.729 332.909 142.563C331.993 143.203 330.26 142.352 329.748 141.876L329.746 141.873Z" fill="#EF98B9"/><path d="M305.744 104.259C307.116 103.137 308.125 101.44 309.625 100.304C312.422 98.1845 315.821 96.7826 319.329 96.4816C321.938 96.2584 324.597 97.3569 326.29 99.3782C327.023 100.253 327.57 101.5 328.586 102.107C330.715 103.376 331.91 101.861 333.475 100.667C334.862 99.6089 337.205 99.7945 338.773 100.552C338.708 101.723 336.834 102.014 335.991 102.676C334.897 103.534 334.25 104.785 333.159 105.698C331.573 107.027 329.541 108.118 327.577 108.75C325.309 109.48 323.117 109.099 320.796 109.287C317.959 109.515 314.509 111.153 312.058 112.549C311.434 111.842 310.059 110.082 310.23 109.028C310.438 107.737 312.237 107.835 313.378 107.689C315.646 107.403 321.298 107.484 322.166 104.537C322.67 102.832 320.934 102.2 319.682 101.711C317.482 100.853 316.09 102.047 313.935 102.892C311.502 103.845 309.332 104.256 305.744 104.256V104.259Z" fill="#F6DF11"/><path d="M400.307 136.522C400.307 136.522 400.267 125.763 399.479 124.517C398.34 122.718 395.555 119.927 392.43 119.671C390.4 119.506 387.402 120.381 385.751 121.685C383.614 123.371 382.591 125.512 380.135 126.578C378.647 127.225 376.979 127.3 375.526 128.038C372.925 129.357 371.164 132.326 372.097 135.218C372.165 135.428 374.751 138.842 374.957 138.774C389.023 134.119 400.309 136.522 400.309 136.522H400.307Z" fill="#F3A561"/><path d="M406.559 136.374C407.211 134.99 407.351 131.975 405.482 130.19C403.807 128.59 402.301 129.671 401.065 127.659C400.289 126.403 400.269 125.763 399.482 124.517C398.343 122.719 396.296 121.711 394.259 121.673C392.222 121.635 390.215 122.486 388.564 123.79C386.426 125.475 384.763 127.933 382.307 129.001C380.82 129.648 379.151 129.723 377.699 130.461C375.097 131.78 373.687 135.341 374.621 138.232C374.688 138.443 374.779 138.664 374.959 138.774C375.145 138.89 375.378 138.857 375.591 138.822C382.493 137.678 406.318 136.888 406.561 136.374H406.559Z" fill="#A2DDEE"/><path d="M266.702 109.251C270.963 109.251 274.417 106.637 274.417 103.413C274.417 100.188 270.963 97.5742 266.702 97.5742C262.442 97.5742 258.988 100.188 258.988 103.413C258.988 106.637 262.442 109.251 266.702 109.251Z" fill="#F66041"/><path d="M431.852 154.32C431.861 154.323 431.864 154.326 431.864 154.326C431.861 154.326 431.858 154.323 431.852 154.32Z" fill="#1A1A1A"/></svg>