<svg width="480" height="240" viewBox="0 0 480 240" fill="none" xmlns="http://www.w3.org/2000/svg"><path d="M331.155 192.322C368.796 192.322 399.31 161.806 399.31 124.161C399.31 86.5168 368.796 56 331.155 56C293.514 56 263 86.5168 263 124.161C263 161.806 293.514 192.322 331.155 192.322Z" fill="#417EFF"/><path d="M312.293 59.4414C310.542 62.5838 313.732 66.5898 316.934 67.5853C320.316 68.6287 323.938 67.8012 327.44 67.2854C330.941 66.7697 334.839 66.6618 337.633 68.8326C338.929 69.8401 339.9 71.5073 339.468 73.0905C339.025 74.6857 337.358 75.5852 335.823 76.2089C331.145 78.1039 326.156 79.1474 321.455 80.9824C316.754 82.8175 312.173 85.6361 309.666 90.0258C307.172 94.4156 307.376 100.616 311.189 103.927C319.428 111.099 333.844 99.5609 342.682 105.978C346.1 108.448 347.527 112.994 350.933 115.465C355.467 118.751 362.039 117.24 366.512 113.882C370.985 110.523 374.068 105.678 377.833 101.54C381.599 97.4021 386.672 93.7559 392.249 94.1277C385.269 79.807 373.084 68.101 358.489 61.7083C348.811 57.4625 338.125 55.5914 327.571 56.1431C324.441 56.311 314.979 56.1911 312.796 58.7218C312.592 58.9617 312.425 59.2016 312.281 59.4534L312.293 59.4414Z" fill="#8EF191"/><path d="M397.747 131.371C392.015 135.881 385.671 140.331 378.439 140.271C373.702 140.235 369.228 138.232 364.899 136.337C360.558 134.442 356 132.571 351.275 132.823C337.34 133.554 339.762 148.187 346.982 155.467C350.867 159.389 355.605 162.448 359.107 166.705C362.884 171.311 365.031 177.212 365.091 183.173C383.992 172.51 397.052 152.133 398.851 130.508C398.491 130.796 398.119 131.084 397.747 131.383V131.371Z" fill="#8EF191"/><path d="M325.687 188.702C324.68 181.757 326.419 174.513 327.198 167.449C328.11 159.209 327.15 149.662 320.554 144.624C316.321 141.398 310.624 140.786 305.323 141.206C300.023 141.626 294.794 142.957 289.481 143.149C283.64 143.353 277.032 141.638 274.214 136.516C272.595 133.578 272.535 130.028 272.871 126.694C273.519 120.313 275.473 114.136 276.289 107.767C277.104 101.398 276.613 94.5019 272.859 89.3086C257.892 112.421 260.59 144.396 277.236 165.901C288.953 181.038 307.314 190.837 326.419 192.132C326.083 191.005 325.843 189.865 325.675 188.714L325.687 188.702Z" fill="#8EF191"/><path d="M420.804 64.6088C425.114 64.6088 428.607 61.1147 428.607 56.8044C428.607 52.4941 425.114 49 420.804 49C416.494 49 413 52.4941 413 56.8044C413 61.1147 416.494 64.6088 420.804 64.6088Z" fill="#FFFF99"/></svg>