<svg width="480" height="240" viewBox="0 0 480 240" fill="none" xmlns="http://www.w3.org/2000/svg"><path d="M294.661 56.8323C294.683 56.985 294.795 57.0139 294.923 57.0495C294.973 57.0631 295.038 57.0393 295.087 57.0342C295.136 57.0291 295.138 57.0257 295.192 57.024C295.606 57.0122 295.961 57.1496 296.397 57.1428C296.833 57.136 297.274 56.968 297.587 56.6457C297.74 56.4896 297.855 56.3335 297.784 56.1198C297.713 55.906 297.552 55.811 297.33 55.7414C296.926 55.6142 296.568 55.5107 296.11 55.5531C295.654 55.5972 295.224 55.7889 294.897 56.1418C294.722 56.3301 294.624 56.5846 294.66 56.8323H294.661Z" fill="#E47944"/><path d="M293.542 58.0656C293.579 58.2183 293.686 58.2403 293.818 58.2624C293.871 58.2709 293.932 58.2369 293.981 58.2267C294.03 58.2166 294.03 58.2115 294.085 58.203C294.487 58.1419 294.841 58.2471 295.264 58.1623C295.688 58.0774 296.088 57.8111 296.348 57.4446C296.473 57.2682 296.551 57.068 296.466 56.8627C296.381 56.6574 296.217 56.5539 295.995 56.5047C295.588 56.4131 295.242 56.3758 294.807 56.5013C294.373 56.6269 293.986 56.9441 293.72 57.3377C293.577 57.5481 293.484 57.8145 293.544 58.0656H293.542Z" fill="#E49544"/><path d="M292.424 59.6604C292.473 59.8097 292.574 59.8266 292.706 59.8419C292.758 59.8487 292.811 59.808 292.857 59.7944C292.903 59.7808 292.901 59.7757 292.954 59.7622C293.349 59.6638 293.705 59.7367 294.119 59.5925C294.533 59.4483 294.891 59.1056 295.089 58.6916C295.186 58.4915 295.25 58.2658 295.145 58.0656C295.04 57.8654 294.877 57.7891 294.653 57.7789C294.243 57.7602 293.909 57.7772 293.498 57.9519C293.088 58.1267 292.742 58.4847 292.528 58.9071C292.414 59.1328 292.343 59.4161 292.423 59.6604H292.424Z" fill="#E47944"/><path d="M291.301 61.4401C291.357 61.5894 291.467 61.603 291.603 61.6098C291.657 61.6115 291.711 61.569 291.759 61.5538C291.806 61.5368 291.804 61.5368 291.857 61.5215C292.262 61.4096 292.617 61.4706 293.041 61.301C293.465 61.1313 293.801 60.7174 293.955 60.2661C294.03 60.0472 294.076 59.8012 293.954 59.6061C293.831 59.4127 293.665 59.3618 293.443 59.3737C293.036 59.3957 292.72 59.4297 292.334 59.6502C291.947 59.8708 291.599 60.2576 291.394 60.6868C291.285 60.9142 291.209 61.1992 291.301 61.4418V61.4401Z" fill="#E49544"/><path d="M290.363 63.1872C290.44 63.3297 290.548 63.3314 290.684 63.3195C290.74 63.3144 290.786 63.2686 290.832 63.2482C290.877 63.2279 290.872 63.2245 290.925 63.2058C291.313 63.0616 291.673 63.0972 292.075 62.9038C292.479 62.7104 292.789 62.3219 292.933 61.8757C293.003 61.6586 293.038 61.4109 292.906 61.2242C292.772 61.0376 292.606 60.9833 292.38 61.0105C291.968 61.0597 291.636 61.1157 291.24 61.3345C290.845 61.5534 290.528 61.9521 290.36 62.405C290.27 62.646 290.24 62.9547 290.363 63.1872Z" fill="#E47944"/><path d="M290.116 64.9944C290.209 65.125 290.314 65.1081 290.447 65.0809C290.501 65.069 290.54 65.0215 290.581 64.9961C290.622 64.9706 290.618 64.9672 290.664 64.9418C291.012 64.7518 291.361 64.7416 291.721 64.516C292.08 64.2903 292.331 63.8933 292.425 63.4556C292.47 63.2435 292.481 62.9975 292.335 62.8279C292.189 62.6582 292.016 62.6226 291.794 62.6599C291.388 62.7278 291.061 62.7753 290.696 63.045C290.331 63.3148 290.079 63.7508 289.984 64.2258C289.933 64.4786 289.963 64.7823 290.114 64.9944H290.116Z" fill="#E49544"/><path d="M289.686 66.8898C289.795 67.0018 289.907 66.9781 290.035 66.9424C290.088 66.9272 290.127 66.8712 290.166 66.8406C290.205 66.8101 290.205 66.8067 290.247 66.7762C290.577 66.5437 290.946 66.4674 291.275 66.1943C291.605 65.9211 291.766 65.4953 291.769 65.0559C291.771 64.8421 291.74 64.6097 291.579 64.4638C291.416 64.3179 291.236 64.2737 291.024 64.3433C290.636 64.4706 290.334 64.5723 290.032 64.9015C289.728 65.2306 289.545 65.7039 289.498 66.1722C289.472 66.4216 289.506 66.7083 289.684 66.8915L289.686 66.8898Z" fill="#E47944"/><path d="M289.327 68.4228C289.429 68.5297 289.554 68.5009 289.681 68.4669C289.732 68.4534 289.787 68.4041 289.829 68.3753C289.871 68.3482 289.875 68.3448 289.922 68.3159C290.287 68.1056 290.672 68.0309 291.02 67.7476C291.368 67.4643 291.563 67.0215 291.542 66.56C291.532 66.336 291.456 66.1172 291.271 65.9967C291.084 65.8746 290.91 65.8712 290.706 65.9594C290.334 66.1206 290.033 66.2936 289.749 66.616C289.468 66.9383 289.264 67.3472 289.179 67.7815C289.135 68.0139 289.161 68.2481 289.327 68.4211V68.4228Z" fill="#E49544"/><path d="M307.002 52.9171C306.939 53.0308 306.971 53.1478 307.015 53.2632C307.034 53.309 307.076 53.3412 307.105 53.3752C307.134 53.4091 307.134 53.4057 307.163 53.4464C307.389 53.7484 307.463 54.0894 307.738 54.3846C308.013 54.6798 308.417 54.7969 308.834 54.7273C309.036 54.6934 309.227 54.6052 309.309 54.4033C309.39 54.2014 309.331 54.0131 309.224 53.8315C309.029 53.499 308.827 53.1987 308.52 52.9578C308.211 52.7169 307.875 52.5863 307.48 52.6134C307.27 52.6287 307.104 52.7305 307 52.9171H307.002Z" fill="#E47944"/><path d="M305.828 52.8994C305.774 53.0182 305.808 53.1335 305.862 53.2455C305.884 53.2913 305.93 53.3168 305.961 53.349C305.991 53.3812 305.993 53.3778 306.022 53.4135C306.247 53.6849 306.347 54.0242 306.598 54.2906C306.849 54.5587 307.17 54.6604 307.54 54.5671C307.72 54.523 307.874 54.4128 307.938 54.2227C308.003 54.0327 307.962 53.8274 307.867 53.6527C307.693 53.3337 307.528 53.0385 307.246 52.8027C306.965 52.5669 306.665 52.4753 306.291 52.5414C306.093 52.5771 305.915 52.7077 305.828 52.8994Z" fill="#E49544"/><path d="M304.166 52.9621C304.095 53.0893 304.151 53.1911 304.222 53.3014C304.251 53.3455 304.313 53.3743 304.352 53.4032C304.391 53.432 304.398 53.4337 304.437 53.4677C304.736 53.7221 304.944 54.0988 305.251 54.3465C305.558 54.5925 305.882 54.6586 306.249 54.5195C306.427 54.4517 306.547 54.3261 306.598 54.1361C306.649 53.9461 306.615 53.7391 306.515 53.5678C306.334 53.2539 306.186 53.0062 305.869 52.789C305.552 52.5702 305.158 52.5278 304.756 52.6109C304.542 52.655 304.285 52.7568 304.169 52.9655L304.166 52.9621Z" fill="#E47944"/><path d="M302.172 52.9877C302.096 53.12 302.172 53.2201 302.252 53.3236C302.284 53.366 302.354 53.3915 302.396 53.4203C302.438 53.4492 302.44 53.4492 302.486 53.4831C302.829 53.7511 303.042 54.1142 303.416 54.3721C303.79 54.63 304.26 54.7097 304.705 54.5926C304.92 54.535 305.103 54.4315 305.163 54.2194C305.222 54.0056 305.163 53.8309 305.024 53.6544C304.767 53.3304 304.511 53.0759 304.118 52.8723C303.724 52.6687 303.234 52.5924 302.778 52.6552C302.535 52.6891 302.294 52.7722 302.17 52.9877H302.172Z" fill="#E49544"/><path d="M300.273 53.1727C300.213 53.3152 300.305 53.3984 300.395 53.4917C300.432 53.529 300.503 53.546 300.548 53.5697C300.592 53.5935 300.595 53.5918 300.643 53.6206C301.001 53.8463 301.25 54.1703 301.635 54.3892C302.02 54.608 302.5 54.6827 302.939 54.5826C303.153 54.5334 303.338 54.4418 303.385 54.2229C303.433 54.004 303.352 53.8327 303.192 53.6596C302.904 53.3458 302.622 53.0862 302.21 52.886C301.798 52.6858 301.302 52.6315 300.843 52.752C300.598 52.8165 300.369 52.9403 300.271 53.171L300.273 53.1727Z" fill="#E47944"/><path d="M298.769 53.9464C298.733 54.094 298.834 54.1601 298.935 54.2382C298.976 54.2687 299.046 54.2755 299.091 54.2925C299.137 54.3094 299.141 54.3044 299.19 54.3264C299.561 54.4876 299.839 54.7607 300.231 54.9168C300.623 55.0729 301.073 55.1 301.478 54.9524C301.675 54.8812 301.841 54.7777 301.867 54.5622C301.892 54.3468 301.79 54.189 301.624 54.0329C301.319 53.7479 301.039 53.4968 300.608 53.3543C300.175 53.2135 299.688 53.2423 299.254 53.4272C299.024 53.5256 298.83 53.7038 298.772 53.9447L298.769 53.9464Z" fill="#E49544"/><path d="M297.059 54.71C297.049 54.861 297.156 54.917 297.266 54.9849C297.31 55.012 297.383 55.0086 297.431 55.0188C297.478 55.029 297.485 55.0256 297.536 55.0392C297.929 55.1444 298.267 55.3666 298.679 55.4531C299.091 55.5397 299.514 55.4582 299.868 55.2292C300.04 55.1172 300.18 54.99 300.177 54.7779C300.174 54.5658 300.07 54.4098 299.882 54.2859C299.538 54.0586 299.232 53.8804 298.784 53.8295C298.335 53.7786 297.857 53.9042 297.463 54.1536C297.253 54.2859 297.076 54.464 297.061 54.7084L297.059 54.71Z" fill="#E47944"/><path d="M295.676 55.5258C295.672 55.6734 295.784 55.731 295.898 55.7921C295.944 55.8176 296.018 55.8159 296.068 55.8244C296.117 55.8328 296.122 55.8311 296.176 55.8447C296.583 55.9397 296.924 56.1467 297.362 56.1925C297.8 56.24 298.246 56.1229 298.595 55.8413C298.765 55.7056 298.863 55.5529 298.828 55.3408C298.792 55.1288 298.666 54.9998 298.465 54.9031C298.095 54.7267 297.744 54.6028 297.309 54.5893C296.873 54.5757 296.404 54.7199 296.034 54.971C295.837 55.105 295.683 55.2848 295.678 55.5241L295.676 55.5258Z" fill="#E49544"/><path d="M354.919 64.0394C351.701 93.4476 351.87 123.302 355.417 152.664C355.972 157.253 356.617 161.865 358.009 166.235C358.371 167.37 358.915 168.622 359.969 168.948C361.763 169.503 363.03 167.051 363.487 165.066C366.031 154.003 366.068 142.461 367.047 131.101C367.785 122.532 369.067 114.018 369.51 105.424C370.121 93.563 369.13 81.6803 368.141 69.8501C367.765 65.3492 367.383 60.8177 366.262 56.4694C365.409 53.1594 362.516 47.2469 358.615 49.902C355.241 52.1974 355.329 60.2883 354.919 64.0411V64.0394Z" fill="#261F1A"/><path d="M361.163 50.6517C357.926 48.9263 324.289 49.5659 312.316 51.8851C311.809 51.9835 304.01 54.1008 299.499 55.9127C297.36 56.7729 299.16 65.897 300.062 65.6204C300.627 65.4474 303.913 65.3049 300.249 70.7797C298.415 73.5196 288.911 90.5056 287.223 94.8657C284.986 100.643 291.43 104.694 294.912 98.5625C296.037 96.5826 306.966 77.588 306.965 77.9612C306.965 77.9612 295.652 96.9203 294.912 98.5625C293.827 100.975 290.94 106.906 296.665 108.467C301.122 109.682 302.408 102.193 307.18 95.3425C309.823 91.5473 317.678 83.4988 317.678 83.4988C317.678 83.4988 309.606 96.3977 306.32 103.466C303.034 110.533 311.261 113.049 314.469 108.241C317.677 103.432 324.101 90.9093 326.097 90.9619C339.949 91.325 351.082 93.1726 361.858 87.8505C363.366 87.1057 361.936 51.069 361.16 50.6551L361.163 50.6517Z" fill="#FBBDC9"/><path d="M326.318 84.0249C323.614 87.6623 321.301 91.9767 319.204 95.9924C318.045 98.2098 315.996 101.583 315.998 104.192C316 108.547 321.847 110.247 324.624 107.331C326.863 104.979 329.872 98.142 331.236 95.2493C332.294 93.0031 336.058 89.3555 336.849 87.5979" fill="#FBBDC9"/><path d="M366.047 146.226C365.317 117.863 365.229 89.4842 365.784 61.1178C365.872 56.5676 365.852 51.6136 363.046 48.0288C360.111 48.1934 357.177 48.3562 354.244 48.5208C353.579 48.5581 352.841 48.6294 352.402 49.1282C352.023 49.5574 351.983 50.1783 351.961 50.7484C351.051 75.5317 353.518 100.79 357.988 125.158C359.44 133.077 361.265 141.229 366.084 147.68C366.07 147.194 366.059 146.711 366.047 146.226Z" fill="#FCFFE0"/><path d="M326.152 204.195L276.769 205.179C276.769 205.179 273.913 202.283 273.986 201.348C274.306 197.217 278.062 187.608 277.892 179.09C277.76 172.459 275.407 131.007 274.793 100.215C274.6 90.519 275.921 80.17 275.808 74.5035C275.714 69.8091 275.658 67.025 275.658 67.025L320.588 65.7577C320.588 65.7577 321.324 65.5287 323.099 66.4363C324.873 67.3423 324.647 69.8634 324.647 69.8634C324.647 69.8634 323.843 93.2267 323.999 100.999C324.605 131.347 327.037 169.864 327.209 178.494C327.475 191.882 326.154 204.195 326.154 204.195H326.152Z" fill="#6D6D67"/><path d="M324.004 203.281L274.516 204.748L271.23 200.689C271.23 200.689 276.933 187.002 276.764 178.484C276.631 171.854 274.279 130.402 273.665 99.6092C273.471 89.9134 274.793 79.5644 274.679 73.8979C274.586 69.2035 274.53 66.4195 274.53 66.4195L319.909 66.1514C319.909 66.1514 320.545 65.5237 322.32 66.4313C324.094 67.3373 323.663 70.6049 323.663 70.6049C323.663 70.6049 322.716 92.6228 322.871 100.393C323.476 130.741 325.909 169.258 326.08 177.888C326.347 191.276 324.004 203.283 324.004 203.283V203.281Z" fill="#EBE4CC"/><path d="M320.036 201.644L269 202.662C269 202.662 273.719 189.254 273.51 178.807C273.378 172.177 271.025 130.725 270.411 99.9321C270.218 90.2363 271.539 79.8872 271.426 74.2207C271.332 69.5264 271.276 66.7423 271.276 66.7423L320.584 65.7583C320.584 65.7583 319.621 66.9306 319.658 68.7782C319.679 69.8029 320.379 70.037 320.698 71.4944C320.883 72.3342 320.752 74.2394 320.773 75.2472C320.874 80.3657 319.46 92.944 319.616 100.716C320.221 131.064 322.654 169.581 322.825 178.211C323.092 191.599 320.035 201.646 320.035 201.646L320.036 201.644Z" fill="#FFF7DC"/><path d="M308.572 53.1509C308.235 53.2018 294.457 56.8545 286.101 58.495C278.583 59.971 280.551 70.7442 291.821 68.973C294.096 68.615 301.159 66.8438 303.324 66.06" fill="#FBBDC9"/><path d="M284.181 61.1024C284.32 61.2314 284.463 61.3569 284.609 61.479C284.683 61.5418 284.76 61.6046 284.836 61.6657C284.858 61.6843 284.882 61.7013 284.906 61.72C284.909 61.7217 284.914 61.7267 284.919 61.7301C284.95 61.7539 284.98 61.7776 285.011 61.7997C285.303 62.0186 285.606 62.2221 285.922 62.4037C286.078 62.4936 286.237 62.5767 286.398 62.6548C286.482 62.6938 286.565 62.7311 286.648 62.7684C286.655 62.7718 286.67 62.7769 286.678 62.782C286.688 62.7854 286.697 62.7905 286.707 62.7939C286.75 62.8108 286.792 62.8278 286.834 62.8431C287.155 62.9652 287.486 63.0619 287.823 63.1281C287.913 63.1451 288.001 63.1603 288.091 63.1739C288.091 63.1739 288.132 63.179 288.14 63.1807C288.152 63.1807 288.164 63.1841 288.164 63.1841C288.205 63.1892 288.246 63.1926 288.286 63.1977C288.466 63.2146 288.648 63.2231 288.827 63.2231C289.009 63.2231 289.189 63.2146 289.369 63.1977C289.421 63.1926 289.475 63.1875 289.528 63.1807C289.547 63.179 289.567 63.1756 289.586 63.1739C289.591 63.1739 289.593 63.1739 289.599 63.1722C289.688 63.1586 289.777 63.1451 289.866 63.1281C290.271 63.0518 290.67 62.9347 291.056 62.7905C291.109 62.7701 291.162 62.7498 291.214 62.7294C291.241 62.7192 291.267 62.7074 291.294 62.6972C291.299 62.6955 291.321 62.6853 291.333 62.6802C291.428 62.6395 291.521 62.5971 291.615 62.5547C291.765 62.4834 291.916 62.4105 292.061 62.3256C292.181 62.2544 292.3 62.178 292.413 62.0949C292.42 62.0898 292.5 62.0338 292.498 62.0321C292.498 62.0321 292.442 62.0762 292.481 62.0457C292.498 62.0321 292.515 62.0186 292.532 62.005C292.583 61.9643 292.632 61.9235 292.68 61.8794C292.89 61.6945 293.084 61.4926 293.262 61.2755C293.287 61.2449 293.312 61.2127 293.336 61.1805C293.287 61.2432 293.336 61.1805 293.357 61.1516C293.397 61.0956 293.438 61.0396 293.477 60.982C293.555 60.8683 293.63 60.7512 293.699 60.6308C293.769 60.512 293.832 60.3899 293.891 60.266C293.91 60.227 293.927 60.188 293.945 60.1489C293.949 60.1405 293.952 60.1337 293.955 60.1252C293.955 60.1048 293.988 60.0472 293.994 60.0302C294.006 59.9996 294.018 59.9708 294.028 59.9403C294.12 59.6892 294.191 59.4313 294.234 59.1666C294.237 59.1497 294.239 59.131 294.242 59.114C294.245 59.0869 294.249 59.0615 294.251 59.036C294.257 58.9766 294.261 58.9172 294.264 58.8562C294.271 58.7289 294.269 58.6 294.259 58.4727C294.256 58.4371 294.252 58.4015 294.249 58.3659C294.249 58.3608 294.249 58.3608 294.249 58.3574C294.249 58.354 294.249 58.354 294.249 58.3506C294.239 58.2912 294.229 58.2301 294.215 58.1708C294.188 58.052 294.154 57.9366 294.11 57.8247C294.106 57.8145 294.101 57.8026 294.096 57.7907C294.084 57.7653 294.072 57.7381 294.059 57.7127C294.032 57.6584 294.003 57.6041 293.972 57.5515C293.938 57.4955 293.905 57.4412 293.865 57.3886C293.859 57.3785 293.847 57.3581 293.838 57.3445C293.842 57.3513 293.843 57.3547 293.852 57.3683C293.837 57.3411 293.81 57.3157 293.789 57.2919C293.704 57.1935 293.611 57.1019 293.513 57.0171C293.494 57.0018 293.453 56.9526 293.43 56.9492C293.469 56.9798 293.474 56.9832 293.445 56.9628C293.44 56.9577 293.433 56.9543 293.428 56.9492C293.416 56.9408 293.404 56.9323 293.392 56.9238C293.372 56.9102 293.352 56.8983 293.333 56.8848C290.853 57.4837 288.344 58.0537 286.107 58.4931C284.853 58.7391 283.849 59.2786 283.096 59.9963C283.442 60.3797 283.8 60.7512 284.18 61.1007L284.181 61.1024Z" fill="#FBA1B8"/><path d="M320.698 71.4927H271.72C271.72 71.4927 269.629 70.9209 269.629 68.6255C269.629 66.33 270.932 65.7583 270.932 65.7583H320.696C320.696 65.7583 320.323 66.0348 320.19 67.5414C320.06 69.0479 320.696 71.4927 320.696 71.4927H320.698Z" fill="#FFF7DC"/><path d="M314.797 60.9141C323.665 70.6031 335.865 74.0166 344.355 73.7214Z" fill="#FBBDC9"/><path d="M321.482 50.5963V50.5928C321.486 50.6034 321.486 50.6016 321.484 50.5981L321.482 50.5963Z" fill="#19191A"/><path d="M318.796 44.0368C318.364 44.4033 318.091 44.919 317.746 45.3703C315.599 48.1985 311.014 48.2681 308.973 51.1743C308.729 51.5221 308.525 51.9207 308.585 52.3585C308.619 52.6079 308.754 52.8403 308.973 52.9624C309.445 53.2271 309.97 52.8708 310.35 52.5196C311.129 51.8003 311.728 50.8757 312.573 50.2412C313.311 49.6881 314.154 49.303 315.007 48.9619C316.705 48.285 319.454 46.7055 320.276 45.2092C320.793 44.2676 318.986 43.874 318.795 44.0351L318.796 44.0368Z" fill="#E47944"/><path d="M323.213 52.5193C317.556 53.673 312.572 50.2408 309.042 52.5193C308.712 52.7331 308.654 52.9248 308.871 53.2404C309.176 53.6832 309.838 53.6475 310.376 53.5406C311.534 53.3082 312.433 52.7042 316.771 53.6407C318.745 54.0666 321.015 55.6783 323.094 55.3695C325.445 55.02 324.35 52.2869 323.213 52.5193Z" fill="#E49544"/><path d="M323.734 50.0185C323.821 49.6487 323.809 49.2076 323.772 48.685C323.755 48.4526 323.706 48.1913 323.51 48.0658C323.346 47.9589 323.129 47.9877 322.941 48.0437C322.31 48.2303 321.792 48.6698 321.227 49.0074C317.711 51.1094 312.712 49.1363 309.368 51.503C308.815 51.8949 308.305 52.6465 308.697 53.1996C309.022 53.661 309.723 53.6 310.257 53.4184C311.324 53.0554 312.281 52.4192 313.346 52.0561C315.355 51.3724 317.512 51.6896 319.59 51.6455C320.606 51.6235 321.633 51.5302 322.593 51.1756C323.3 50.9143 323.616 50.536 323.736 50.0185H323.734Z" fill="#E47944"/><path d="M321.028 47.5384C318.113 50.3275 311.852 48.9177 308.577 52.1327C308.293 52.4109 308.28 53.0624 308.594 53.305C309.036 53.6443 309.673 53.4136 310.164 53.1489C311.225 52.5788 312.146 51.7323 313.255 51.2742C314.224 50.8755 315.258 50.6906 316.293 50.5582C318.353 50.2953 320.532 50.2478 322.357 49.1348C322.586 48.9957 322.766 48.7972 322.919 48.5767C323.482 47.7572 322.651 45.9843 321.026 47.5401L321.028 47.5384Z" fill="#E49544"/><path d="M322.316 54.747C318.518 56.1059 313.653 51.8679 309.7 52.6704C309.31 52.7501 308.915 52.879 308.625 53.1505C308.335 53.4219 308.666 53.824 309.224 53.8308C310.428 53.8461 313.911 54.316 316.402 55.5596C318.26 56.4876 320.29 57.6226 322.397 57.2528C324.221 56.9338 323.963 54.1565 322.316 54.7453V54.747Z" fill="#E47944"/><path d="M305.338 173.126C305.158 172.746 304.773 172.465 304.352 172.431C303.643 172.371 303.028 172.935 302.324 173.023C301.769 173.092 300.332 172.621 300.422 173.588C300.459 173.986 301.177 175.055 304.01 174.875C304.317 174.855 304.629 174.796 304.89 174.631C305.311 174.366 305.533 173.82 305.416 173.337C305.399 173.264 305.373 173.192 305.341 173.125L305.338 173.126Z" fill="#261F1A"/><path d="M307.281 147.508C307.018 146.885 306.277 146.437 305.693 146.121C303.449 144.907 301.534 143.059 300.292 140.825C300.117 140.509 299.954 140.185 299.805 139.854C299.746 139.724 299.524 139.785 299.534 139.926C299.586 140.784 299.725 141.636 299.951 142.465C300.177 143.295 300.485 144.101 300.87 144.869C301.049 145.224 301.249 145.568 301.461 145.904C300.842 145.947 300.221 145.976 299.6 145.979C298.894 145.984 298.189 145.964 297.485 145.918C297.223 145.901 296.962 145.875 296.701 145.852C296.994 145.631 297.266 145.38 297.508 145.105C297.843 144.725 298.128 144.304 298.355 143.851C298.582 143.399 298.757 142.918 298.869 142.425C298.981 141.931 299.033 141.422 299.018 140.916C299.003 140.416 298.877 139.919 298.789 139.427C299.739 139.379 300.714 139.089 301.395 138.424C302.075 137.759 302.385 136.667 301.961 135.815C301.537 134.963 300.295 134.575 299.558 135.175C299.69 133.843 298.686 132.496 297.371 132.242C296.742 132.12 296.092 132.225 295.459 132.328C295.388 132.34 295.31 132.357 295.269 132.417C295.232 132.471 295.242 132.544 295.254 132.608C295.522 134.115 296.121 135.562 296.996 136.819C295.787 137.549 294.491 138.136 293.146 138.565C293.938 137.829 294.603 136.872 294.684 135.793C294.765 134.714 294.101 133.536 293.04 133.316C292.275 133.156 291.478 133.511 290.905 134.042C290.331 134.573 289.938 135.264 289.532 135.932C288.701 137.304 287.782 138.64 287.214 140.141C286.94 140.86 286.767 141.719 287.195 142.359C288.353 144.089 290.959 142.226 292.362 141.946C292.981 141.822 293.636 141.804 294.25 141.963C295.251 142.221 294.823 142.55 294.229 143.058C294.072 143.192 293.911 143.322 293.748 143.449C293.597 143.566 293.439 143.684 293.273 143.802C292.599 144.279 291.885 144.698 291.139 145.049C290.465 145.367 289.768 145.636 289.11 145.986C288.464 146.328 287.839 146.764 287.404 147.362C287.066 147.825 286.901 148.414 286.895 148.984C286.89 149.533 287.035 150.103 287.395 150.529C287.571 150.738 287.799 150.896 288.053 150.992C289.158 151.415 290.082 150.607 291.001 150.142C292.05 149.611 293.159 149.199 294.297 148.909C297.171 148.176 300.229 148.218 303.042 149.177C303.873 149.46 304.741 149.806 305.639 149.686C306.321 149.594 306.999 149.153 307.264 148.503C307.416 148.13 307.398 147.799 307.276 147.508H307.281Z" fill="#261F1A"/><path d="M310.429 165.62C308.383 164.529 304.22 160.159 301.204 157.344C300.802 156.969 300.376 156.552 300.285 156.009C300.205 155.527 301.829 154.104 301.918 153.624C302.144 152.429 301.627 151.127 300.643 150.412C298.539 148.887 294.802 151.619 293.042 152.765C291.742 153.61 292.132 153.453 290.804 154.442C290.199 154.893 289.452 155.466 289.023 155.734C288.913 155.802 288.991 155.972 289.115 155.935C291.211 155.297 291.574 154.908 293.769 154.209C294.553 153.96 297.009 152.916 297.452 153.609C297.866 154.255 292.127 161.991 284.223 168.075C286.362 167.824 288.363 168.065 290.497 166.446C293.074 164.492 295.43 162.341 297.705 159.608C300.685 161.637 303.949 166.173 307.345 167.393C309.745 168.255 314.581 167.992 314.734 167.393C314.914 166.681 312.663 166.81 310.429 165.62Z" fill="#261F1A"/><path d="M310.716 188.807C309.603 187.642 307.885 187.343 306.29 187.107C306.28 186.643 306.261 185.84 306.256 185.1C306.251 184.281 305.439 184.351 305.33 184.725C305.115 185.212 304.585 186.687 304.565 186.732C304.061 186.716 299.9 187.431 299.659 187.498C300.134 187.231 301.047 186.439 301.517 186.164C302.014 185.872 302.509 185.575 302.999 185.273C303.493 184.97 307.992 181.94 308.512 181.546C308.979 181.193 309.457 180.827 309.747 180.318C310.037 179.811 310.09 179.12 309.715 178.67C309.116 177.954 307.971 178.273 307.118 178.653C304.521 179.805 299.327 182.111 299.327 182.111C299.327 182.111 299.271 180.974 300.1 180.501C301.452 179.731 304.18 177.871 305.88 178.009C307.24 178.119 308.37 175.944 306.467 175.279C304.404 174.558 299.067 177.729 299.089 177.944C299.011 177.171 298.487 173.033 298.96 172.425C299.429 171.823 301.875 171.574 304.165 171.138C304.716 171.033 307.316 170.588 307.489 170.055C307.686 169.448 306.801 168.533 305.442 168.008C303.361 167.202 299.044 169.886 298.484 169.799C297.922 169.713 297.049 169.445 296.513 169.633C296.262 169.721 295.992 169.828 295.853 170.055C295.734 170.247 295.983 172.732 295.985 172.958C295.995 174.772 295.824 175.544 295.834 177.357C295.563 176.027 294.246 174.994 292.891 175.043C293.366 174.202 293.237 173.029 292.513 172.391C291.787 171.754 290.516 171.827 289.948 172.607C289.687 172.967 289.587 173.414 289.504 173.852C289.225 175.318 289.071 176.806 289.041 178.297C288.306 177.754 288.567 176.631 288.7 175.729C288.827 174.851 288.737 173.906 288.236 173.175C287.834 172.588 287.03 172.091 286.293 172.222C285.819 172.307 285.913 172.605 286.018 172.978C286.147 173.438 286.23 173.908 286.276 174.383C286.46 176.304 286.04 178.234 285.504 180.067C284.769 182.584 283.806 185.1 283.853 187.722C283.875 188.943 284.159 190.234 285.017 191.105C285.36 191.451 285.801 191.724 286.284 191.768C286.767 191.812 287.293 191.595 287.524 191.164C287.721 190.796 287.678 190.351 287.643 189.934C287.368 186.726 287.812 183.458 288.932 180.438C289.85 184.968 288.569 189.623 288.454 194.243C288.442 194.701 288.666 195.346 289.107 195.217C289.268 195.169 289.375 195.024 289.466 194.883C291.017 192.509 291.247 189.539 291.434 186.71C292.637 187.572 294.542 187.175 295.302 185.906C295.325 186.804 295.235 187.705 295.037 188.58C294.08 188.612 293.144 189.425 293.193 190.382C293.241 191.337 294.521 192.046 295.259 191.437C295.235 193 295.252 194.694 296.206 195.931C297.174 197.188 298.998 197.641 300.502 197.137C302.007 196.634 303.152 195.28 303.573 193.749C305.912 194.255 308.355 194.287 310.706 193.843C310.986 193.79 311.282 193.722 311.483 193.519C311.681 193.32 311.749 193.028 311.79 192.75C311.83 192.475 311.851 192.194 311.851 191.914C311.851 190.77 311.499 189.623 310.716 188.804V188.807ZM292.133 177.953C292.146 177.707 292.16 177.461 292.174 177.213C292.762 177.164 293.337 177.233 293.895 177.42C293.894 177.457 293.894 177.496 293.889 177.534C293.885 177.566 293.882 177.598 293.877 177.63C293.877 177.634 293.877 177.641 293.875 177.644C293.875 177.647 293.875 177.651 293.875 177.654C293.872 177.673 293.868 177.692 293.865 177.71C293.839 177.849 293.805 177.987 293.761 178.121C293.739 178.19 293.714 178.258 293.687 178.328C293.675 178.358 293.663 178.389 293.649 178.419C293.646 178.426 293.643 178.435 293.641 178.441C293.641 178.441 293.641 178.441 293.641 178.443C293.632 178.462 293.626 178.479 293.617 178.496C293.558 178.628 293.49 178.757 293.42 178.884C293.129 179.408 292.771 179.889 292.44 180.387C292.25 180.674 292.07 180.971 291.919 181.281C291.999 180.172 292.072 179.061 292.133 177.949V177.953ZM295.393 183.056C295.244 183.178 295.09 183.299 294.949 183.404C294.791 183.521 294.632 183.635 294.47 183.743C293.822 184.181 293.134 184.559 292.416 184.87C292.218 184.956 292.034 185.029 291.821 185.109C291.75 185.134 291.678 185.156 291.607 185.182C291.607 185.172 291.609 185.161 291.61 185.151C291.658 184.61 291.697 184.069 291.741 183.528C291.782 183.597 291.828 183.665 291.882 183.728C291.985 183.848 292.126 183.943 292.28 183.982C292.496 184.038 292.711 183.987 292.91 183.903C293.234 183.762 293.527 183.541 293.775 183.294C294.274 182.796 294.621 182.167 294.917 181.534C295.264 180.793 295.588 180.028 295.766 179.225C295.8 179.073 295.827 178.918 295.849 178.764C295.853 179.113 295.855 179.463 295.858 179.814C295.863 180.459 295.868 181.103 295.873 181.748C295.873 181.907 295.875 182.065 295.877 182.225C295.877 182.269 295.9 182.31 295.934 182.338C295.943 182.406 295.96 182.471 295.985 182.533C295.793 182.713 295.597 182.89 295.393 183.056ZM298.996 184.632C299.01 184.52 299.023 184.408 299.037 184.296C299.59 183.911 300.177 183.575 300.789 183.294C301.106 183.148 301.403 183.027 301.737 182.91C302.068 182.793 302.406 182.691 302.745 182.606C303.01 182.54 303.278 182.486 303.547 182.438C303.535 182.454 303.527 182.469 303.517 182.483C303.512 182.489 303.507 182.496 303.5 182.503C303.491 182.513 303.483 182.525 303.473 182.535C303.451 182.562 303.427 182.589 303.405 182.617C303.364 182.664 303.32 182.712 303.278 182.757C303.099 182.946 302.904 183.119 302.699 183.28C302.675 183.299 302.65 183.319 302.626 183.338C302.624 183.339 302.624 183.338 302.623 183.339C302.623 183.339 302.623 183.339 302.621 183.339C302.616 183.344 302.609 183.348 302.604 183.353C302.589 183.365 302.574 183.377 302.558 183.387C302.506 183.426 302.453 183.463 302.401 183.501C302.292 183.577 302.182 183.652 302.071 183.723C301.848 183.869 301.62 184.006 301.393 184.144C300.942 184.415 300.487 184.683 300.065 185C299.634 185.324 299.235 185.689 298.91 186.12C298.869 186.174 298.835 186.232 298.798 186.288C298.864 185.737 298.93 185.185 298.994 184.634L298.996 184.632ZM302.56 189.837C302.494 190.092 302.395 190.338 302.29 190.579C302.082 191.059 301.829 191.522 301.535 191.954C301.271 192.345 300.971 192.733 300.586 193.013C300.304 193.242 299.982 193.449 299.608 193.463C299.347 193.473 299.1 193.356 298.916 193.174C298.726 192.986 298.608 192.743 298.513 192.497C298.316 191.995 298.243 191.447 298.18 190.913C298.172 190.838 298.219 190.758 298.268 190.706C298.321 190.648 298.401 190.624 298.477 190.621C298.55 190.618 298.633 190.657 298.684 190.709C298.716 190.741 298.735 190.777 298.747 190.814C298.906 190.779 299.062 190.723 299.215 190.662C299.418 190.577 299.617 190.48 299.814 190.382C300.2 190.187 300.582 189.981 300.979 189.81C301.396 189.632 301.826 189.486 302.282 189.462C302.479 189.452 302.608 189.662 302.562 189.837H302.56ZM307.567 190.499C307.561 190.519 307.552 190.54 307.545 190.56C307.544 190.565 307.54 190.573 307.539 190.575C307.534 190.585 307.528 190.597 307.523 190.607C307.5 190.655 307.472 190.701 307.444 190.745C307.383 190.836 307.333 190.896 307.252 190.981C307.177 191.06 307.096 191.135 307.014 191.206C306.843 191.356 306.668 191.502 306.489 191.639C306.456 191.664 306.411 191.698 306.367 191.731C306.319 191.764 306.273 191.798 306.226 191.832C306.131 191.9 306.036 191.966 305.939 192.031C305.749 192.156 305.556 192.275 305.359 192.389C305.162 192.502 304.96 192.608 304.757 192.708C304.652 192.759 304.546 192.808 304.441 192.855C304.338 192.901 304.231 192.947 304.141 192.984C304.041 193.025 303.939 193.057 303.839 193.095C304.014 192.689 304.188 192.282 304.363 191.876C304.574 191.388 304.784 190.898 304.994 190.409C305.099 190.165 305.205 189.92 305.31 189.674C305.323 189.644 305.337 189.613 305.35 189.581C305.35 189.579 305.356 189.571 305.357 189.567C305.362 189.557 305.366 189.547 305.371 189.535C305.391 189.488 305.413 189.442 305.439 189.396C305.462 189.352 305.49 189.308 305.52 189.267C305.52 189.265 305.52 189.267 305.522 189.264C305.53 189.254 305.539 189.243 305.549 189.233C305.566 189.215 305.585 189.198 305.603 189.182C305.607 189.179 305.613 189.176 305.617 189.174C305.627 189.167 305.635 189.162 305.646 189.157C305.657 189.15 305.669 189.145 305.681 189.14C305.685 189.14 305.693 189.137 305.693 189.135C305.72 189.128 305.746 189.12 305.775 189.114C305.78 189.114 305.78 189.114 305.78 189.114C305.783 189.114 305.783 189.114 305.788 189.114C305.808 189.114 305.829 189.113 305.849 189.113C305.875 189.113 305.902 189.113 305.927 189.116C305.956 189.12 305.968 189.12 305.983 189.123C306.041 189.133 306.098 189.145 306.154 189.159C306.333 189.203 306.509 189.254 306.68 189.318C306.719 189.333 306.758 189.349 306.797 189.364C306.801 189.366 306.84 189.383 306.809 189.369C306.816 189.372 306.825 189.376 306.831 189.379C306.853 189.389 306.877 189.399 306.899 189.411C306.981 189.45 307.059 189.493 307.135 189.54C307.171 189.562 307.204 189.586 307.238 189.61C307.247 189.615 307.254 189.622 307.262 189.627C307.266 189.629 307.264 189.627 307.266 189.63C307.266 189.63 307.266 189.63 307.269 189.634C307.286 189.649 307.305 189.662 307.322 189.678C307.35 189.703 307.376 189.729 307.403 189.756C307.417 189.771 307.43 189.786 307.444 189.802C307.449 189.808 307.456 189.815 307.461 189.822C307.462 189.825 307.466 189.829 307.467 189.83C307.486 189.863 307.51 189.893 307.528 189.927C307.537 189.942 307.545 189.959 307.554 189.975C307.559 189.985 307.562 189.995 307.567 190.003C307.551 189.97 307.567 190.003 307.567 190.009C307.581 190.046 307.593 190.085 307.601 190.124C307.605 190.141 307.608 190.156 307.61 190.173C307.61 190.175 307.61 190.178 307.61 190.178C307.61 190.192 307.612 190.205 307.613 190.219C307.618 190.334 307.61 190.39 307.574 190.495L307.567 190.499Z" fill="#261F1A"/><path d="M310.7 135.662C310.692 135.63 310.683 135.598 310.673 135.564C310.435 134.741 309.845 134.057 309.165 133.536C307.925 132.585 306.334 132.103 304.773 132.206C304.127 132.249 303.489 132.391 302.885 132.624C302.03 132.951 302.115 133.562 302.911 133.428C303.706 133.294 304.517 133.255 305.321 133.311C305.669 133.334 306.04 133.389 306.297 133.625C307.331 134.576 306.035 136.697 305.513 137.62C305.05 138.438 304.468 139.189 303.8 139.849C303.46 140.183 302.057 141.639 301.547 141.527C302.063 141.639 302.597 141.481 303.097 141.313C304.841 140.73 306.534 139.993 308.151 139.116C309.565 138.349 311.182 137.542 310.7 135.662Z" fill="#261F1A"/><path d="M311.186 122.808C311.157 122.675 311.128 122.543 311.1 122.411C311.076 122.302 311.039 122.177 310.935 122.132C310.789 122.07 310.643 122.216 310.55 122.346C309.822 123.357 309.096 124.369 308.37 125.38C308.109 125.744 307.766 126.204 307.339 125.795C306.38 124.878 305.548 123.827 304.874 122.684C304.781 122.526 304.688 122.355 304.693 122.172C304.703 121.78 305.12 121.547 305.471 121.371C305.9 121.155 306.319 120.896 306.616 120.517C306.913 120.141 307.069 119.625 306.922 119.169C306.725 118.556 306.021 118.212 305.381 118.266C304.742 118.32 304.169 118.695 303.705 119.141C303.532 119.308 303.364 119.489 303.147 119.591C302.93 119.693 302.642 119.691 302.477 119.518C302.269 119.298 302.365 118.914 302.593 118.714C302.82 118.514 303.132 118.449 303.427 118.385C304.311 118.193 305.181 117.945 306.033 117.642C306.633 117.428 307.305 117.092 307.425 116.466C307.546 115.84 307.022 115.258 306.44 114.997C305.665 114.647 304.727 114.685 303.98 115.092C303.536 115.334 303.152 115.701 302.666 115.84C302.196 115.974 301.056 115.557 301.675 114.981C301.677 114.98 301.683 114.973 301.69 114.97C301.699 114.963 301.721 114.948 301.721 114.948C301.748 114.929 301.775 114.912 301.804 114.897C301.829 114.883 301.856 114.87 301.889 114.854C301.902 114.849 301.918 114.844 301.931 114.839C301.992 114.817 302.055 114.798 302.118 114.781C302.426 114.702 302.747 114.669 303.061 114.62C303.429 114.564 303.797 114.506 304.163 114.45C304.676 114.371 305.219 114.271 305.639 113.947C305.841 113.791 306.002 113.585 306.07 113.338C306.17 112.978 306.058 112.618 305.9 112.294C305.773 112.033 305.614 111.767 305.385 111.582C305.105 111.354 304.771 111.286 304.421 111.376C303.378 111.644 302.576 112.498 301.539 112.832C301.344 112.895 301.12 112.944 300.946 112.84C300.175 112.387 303.814 111.225 304.231 111.127C304.696 111.018 305.173 110.928 305.59 110.698C306.007 110.467 306.364 110.063 306.391 109.586C306.421 109.06 306.051 108.592 305.634 108.268C305.285 107.997 304.842 107.78 304.411 107.88C303.722 108.039 303.405 108.835 303.034 109.354C302.954 109.466 302.879 109.556 302.778 109.668C302.679 109.776 302.574 109.878 302.464 109.977C302.258 110.156 302.038 110.311 301.782 110.452C301.526 110.592 301.302 110.687 301.015 110.766C301.01 110.766 301.003 110.769 300.998 110.771C300.998 110.757 300.998 110.743 300.998 110.728C301.013 110.547 301.035 110.363 301.052 110.182C301.122 109.439 301.193 108.696 301.261 107.953C301.276 107.79 301.278 107.625 301.212 107.473C301.142 107.311 301.003 107.206 300.852 107.126C300.552 106.967 300.233 106.838 299.907 106.745C299.575 106.648 299.231 106.589 298.886 106.563C298.73 106.551 298.562 106.539 298.413 106.595C298.248 106.656 298.133 106.784 298.081 106.95C298.038 107.087 298.045 107.238 298.06 107.381C298.081 107.562 298.106 107.746 298.131 107.927C298.182 108.289 298.242 108.648 298.31 109.006C298.376 109.359 298.452 109.71 298.535 110.06C298.578 110.236 298.622 110.414 298.669 110.589C298.713 110.759 298.781 110.932 298.801 111.105C298.807 111.147 298.796 111.181 298.791 111.217C297.982 111.731 297.092 112.063 296.142 112.216C296.391 112.175 296.303 111.465 296.257 111.324C295.933 110.355 294.771 110.404 293.996 110.696C293.487 110.888 292.988 111.11 292.484 111.319C292.238 111.42 291.994 111.522 291.748 111.624C291.652 111.665 291.521 111.734 291.428 111.733C291.409 111.733 291.402 111.733 291.397 111.733C291.402 111.733 291.411 111.731 291.384 111.724C291.39 111.724 291.39 111.724 291.395 111.727C291.414 111.731 291.402 111.727 291.389 111.722C291.382 111.719 291.375 111.714 291.37 111.709C291.365 111.7 291.36 111.694 291.355 111.685C291.351 111.68 291.351 111.682 291.35 111.68C291.35 111.677 291.35 111.68 291.35 111.675C291.345 111.656 291.338 111.638 291.334 111.619C291.334 111.612 291.329 111.587 291.329 111.582C291.329 111.568 291.328 111.556 291.328 111.543C291.328 111.522 291.328 111.502 291.328 111.48C291.328 111.475 291.329 111.458 291.331 111.448C291.338 111.405 291.346 111.364 291.36 111.324C291.434 111.086 291.551 110.855 291.533 110.599C291.514 110.34 291.368 110.116 291.139 109.992C290.91 109.868 290.656 109.853 290.405 109.9C290.152 109.948 289.911 110.065 289.675 110.162L288.914 110.472C288.669 110.572 288.427 110.671 288.183 110.771C287.926 110.876 287.664 110.973 287.411 111.088C287.219 111.176 287.017 111.315 286.926 111.512C286.871 111.629 286.856 111.755 286.892 111.878C286.934 112.026 287.075 112.096 287.216 112.128C287.418 112.172 287.619 112.141 287.82 112.108C287.862 112.101 287.904 112.092 287.947 112.087C287.954 112.087 287.986 112.082 287.988 112.082C288.001 112.082 288.013 112.079 288.027 112.079C288.066 112.075 288.106 112.074 288.145 112.075C288.152 112.075 288.169 112.079 288.178 112.079C288.194 112.082 288.21 112.087 288.227 112.091C288.23 112.091 288.228 112.091 288.232 112.091C288.234 112.091 288.232 112.091 288.235 112.094C288.242 112.099 288.267 112.116 288.266 112.113C288.286 112.13 288.291 112.138 288.312 112.174C288.317 112.184 288.32 112.186 288.322 112.189C288.322 112.192 288.322 112.196 288.325 112.208C288.33 112.228 288.335 112.248 288.34 112.269C288.34 112.275 288.345 112.316 288.345 112.318C288.347 112.354 288.345 112.387 288.345 112.423C288.337 112.61 288.267 112.815 288.174 112.99C287.954 113.404 287.64 113.728 287.331 114.086C286.983 114.489 286.636 114.89 286.284 115.29C285.582 116.089 284.873 116.882 284.154 117.667C282.726 119.23 281.267 120.765 279.772 122.267C279.438 122.602 279.084 122.925 278.785 123.293C278.483 123.664 278.242 124.087 278.217 124.574C278.171 125.412 278.907 126.13 279.706 126.23C280.152 126.286 280.568 126.104 280.921 125.841C281.304 125.554 281.662 125.229 282.015 124.903C282.695 124.275 283.336 123.605 283.94 122.903C285.072 121.588 286.072 120.163 286.98 118.685C287.141 118.692 287.307 118.66 287.458 118.616C287.701 118.543 287.937 118.444 288.159 118.325C288.381 118.205 288.59 118.059 288.783 117.896C288.865 117.827 288.937 117.747 289.017 117.679C289.107 117.71 289.163 117.779 289.19 117.872C289.294 118.251 289.385 118.7 289.131 118.999C288.932 119.231 288.6 119.279 288.3 119.347C287.541 119.515 286.639 120.059 286.731 120.953C286.773 121.362 286.994 121.751 287.399 121.89C287.791 122.024 288.174 121.846 288.476 121.595C288.466 122.338 288.257 123.21 287.506 123.541C286.673 123.907 285.669 123.469 284.949 124.177C284.681 124.441 284.559 124.835 284.666 125.202C284.768 125.551 285.044 125.839 285.363 126.004C285.723 126.191 286.115 126.219 286.505 126.123C286.948 126.013 287.341 125.76 287.703 125.488C288.025 125.246 288.339 124.991 288.656 124.738C288.661 124.75 288.668 124.764 288.673 124.776C288.673 124.779 288.676 124.783 288.678 124.786C288.724 124.901 288.761 125.02 288.788 125.14C288.819 125.281 288.826 125.324 288.832 125.47C288.888 126.472 288.354 127.385 287.641 128.053C287.024 128.632 286.281 129.051 285.545 129.467C285.289 129.056 285.063 128.627 284.826 128.204C284.729 128.031 284.478 128.043 284.38 128.204C283.757 129.217 284.188 130.513 284.868 131.377C285.224 131.83 285.742 132.213 286.347 132.171C286.681 132.147 286.992 132.023 287.285 131.871C287.57 131.723 287.845 131.553 288.113 131.377C288.652 131.021 289.165 130.62 289.667 130.213C290.149 129.823 290.622 129.421 291.085 129.01C292.013 128.188 292.907 127.327 293.762 126.428C294.62 125.526 295.441 124.587 296.218 123.615C296.315 123.495 296.411 123.373 296.506 123.251C296.571 123.169 296.6 123.067 296.542 122.971C296.489 122.881 296.381 122.842 296.281 122.864C295.441 123.057 294.693 123.5 294.009 124.011C293.655 124.275 293.312 124.557 292.968 124.837C292.625 125.117 292.322 125.363 291.97 125.612C291.726 125.787 291.47 125.943 291.209 126.089C291.697 124.73 292.771 123.648 293.646 122.502C293.901 122.17 294.162 121.825 294.354 121.45C294.567 121.03 294.673 120.556 294.478 120.108C294.32 119.744 293.958 119.455 293.545 119.493C293.095 119.533 292.778 119.878 292.53 120.226C292.205 120.682 291.909 121.164 291.601 121.632C291.424 121.9 291.248 122.166 291.071 122.434C291.104 121.917 291.171 121.403 291.351 120.913C291.558 120.349 291.94 119.808 292.476 119.513C292.788 119.342 293.143 119.279 293.484 119.192C293.83 119.104 294.269 118.99 294.466 118.661C294.678 118.31 294.483 117.888 294.286 117.577C294.104 117.291 293.845 117.007 293.49 116.961C293.09 116.909 292.769 117.219 292.452 117.416C292.125 117.62 291.786 117.801 291.438 117.966C291.283 118.039 291.121 118.127 290.953 118.161C290.926 118.166 290.893 118.173 290.854 118.166C290.866 118.168 290.822 118.149 290.824 118.151C290.814 118.144 290.803 118.132 290.788 118.103C290.766 118.064 290.763 118.054 290.747 118.008C290.641 117.687 290.518 117.307 290.598 116.966C290.664 116.685 290.856 116.508 291.09 116.364C291.353 116.203 291.641 116.091 291.911 115.943C292.199 115.786 292.464 115.545 292.622 115.255C292.78 114.966 292.822 114.612 292.618 114.323C292.425 114.05 292.089 113.921 291.76 113.936C291.395 113.955 291.071 114.138 290.778 114.342C290.432 114.583 290.093 114.83 289.752 115.076C289.411 115.321 289.068 115.562 288.734 115.814C288.656 115.874 288.578 115.933 288.498 115.993C288.909 115.204 289.299 114.406 289.677 113.602C290.671 113.444 291.669 113.304 292.669 113.187C292.939 113.154 293.207 113.129 293.477 113.1C293.368 113.47 293.434 113.886 293.663 114.199C293.96 114.603 294.433 114.793 294.924 114.822C295.433 114.853 295.926 114.696 296.391 114.506C296.654 114.4 297.519 113.835 297.646 114.372C297.684 114.534 297.604 114.707 297.478 114.817C297.353 114.927 297.192 114.985 297.03 115.026C296.625 115.129 296.199 115.144 295.796 115.256C295.392 115.368 294.988 115.604 294.834 115.994C294.688 116.361 294.8 116.8 295.059 117.099C295.631 117.757 296.491 117.693 297.205 117.33C297.427 117.216 297.628 117.075 297.831 116.934C298.058 116.776 298.491 116.474 298.64 116.91C298.698 117.082 298.642 117.272 298.561 117.433C298.282 117.986 297.767 118.261 297.198 118.436C296.98 118.504 296.759 118.561 296.54 118.627C296.065 118.768 295.468 118.86 295.256 119.37C295.117 119.706 295.144 120.086 295.2 120.448C295.265 120.874 295.363 121.294 295.495 121.703C295.529 121.807 295.573 121.922 295.675 121.965C295.77 122.005 295.877 121.965 295.972 121.927C296.939 121.532 297.906 121.138 298.874 120.743C299.025 120.682 299.205 120.623 299.343 120.709C299.432 120.767 299.478 120.874 299.512 120.975C299.946 122.255 299.587 123.7 298.868 124.845C298.148 125.989 297.103 126.886 296.062 127.748C295.95 127.841 295.824 127.962 295.848 128.106C295.879 128.291 296.118 128.345 296.306 128.347C298.676 128.367 300.978 126.779 301.8 124.557C303.468 126.469 305.135 128.381 306.803 130.291C307.429 131.009 308.199 131.789 309.149 131.725C310.089 131.66 310.759 130.778 311.113 129.906C312.017 127.677 311.695 125.168 311.188 122.803L311.186 122.808Z" fill="#261F1A"/><path d="M310.895 118.319C310.597 117.868 310.13 117.493 309.569 117.476C309.29 117.467 309.016 117.554 308.799 117.728C308.6 117.89 308.473 118.129 308.403 118.37C308.246 118.913 308.374 119.495 308.271 120.037C308.135 120.75 307.818 121.273 307.285 121.739C306.771 122.189 306.259 122.64 305.745 123.09C304.987 123.755 306.583 123.47 306.885 123.366C307.562 123.134 308.162 122.715 308.737 122.299C309.219 121.951 309.696 121.593 310.135 121.191C310.537 120.825 310.922 120.418 311.116 119.9C311.316 119.367 311.204 118.784 310.893 118.317L310.895 118.319Z" fill="#261F1A"/><path d="M311.564 90.1999C311.265 89.7011 310.777 89.3465 310.256 89.0598C309.979 88.9071 309.695 88.768 309.41 88.6255C309.096 88.4694 308.782 88.3116 308.468 88.1555C307.846 87.8434 307.223 87.5329 306.6 87.2224C305.978 86.9103 305.355 86.5998 304.733 86.2893C304.11 85.9788 303.488 85.6667 302.865 85.3562L300.998 84.4231C300.412 84.1296 299.827 83.8344 299.233 83.5545C298.655 83.2813 298.065 83.0268 297.457 82.8114C297.164 82.7079 296.865 82.6129 296.563 82.5314C296.548 82.528 296.531 82.5263 296.516 82.5263C296.523 82.5196 296.526 82.5128 296.533 82.506C296.543 82.4958 296.552 82.4873 296.562 82.4771C296.565 82.4738 296.569 82.4704 296.572 82.467C296.572 82.467 296.572 82.467 296.574 82.4653C296.596 82.4449 296.619 82.4246 296.642 82.4042C296.686 82.3652 296.731 82.3295 296.779 82.2922C296.874 82.2193 296.972 82.1497 297.072 82.0818C297.485 81.8019 297.927 81.5474 298.255 81.1759C298.436 80.9689 298.567 80.7297 298.64 80.4735C298.713 80.219 298.718 79.9493 298.677 79.6914C298.591 79.1264 298.304 78.6056 297.98 78.1306C297.819 77.8947 297.642 77.6691 297.457 77.4502C297.279 77.2365 297.091 77.0312 296.881 76.8446C296.489 76.4917 295.975 76.188 295.396 76.2576C294.786 76.3305 294.362 76.7886 294.065 77.2534C293.892 77.5215 293.743 77.8014 293.585 78.078C293.412 78.385 293.237 78.6904 293.064 78.9958C292.715 79.6066 292.363 80.2173 292.009 80.8264C291.653 81.4372 291.295 82.0479 290.933 82.6553C290.574 83.261 290.213 83.8666 289.846 84.4706C289.48 85.0763 289.112 85.6819 288.74 86.2842C288.37 86.8848 285.951 90.9718 285.573 91.5673C283.466 94.8841 278.281 98.8082 278.216 98.8659C277.987 99.0763 278.011 99.2833 278.435 99.1866C283.762 97.9701 286.175 97.1744 288.221 91.3349C288.255 91.2399 288.358 91.1788 288.428 91.1008C288.455 91.3468 288.53 91.5826 288.672 91.793C288.827 92.0186 289.061 92.1967 289.344 92.2646C289.519 92.307 289.702 92.3036 289.882 92.2934C290.001 92.2867 290.119 92.2799 290.238 92.2731C290.185 92.3817 290.141 92.4953 290.095 92.6056C289.882 93.118 289.666 93.632 289.451 94.1444L288.157 97.2355C288.129 97.2983 288.104 97.3628 288.077 97.4255C288.048 97.4934 288.09 97.5935 288.18 97.5952C288.213 97.5952 288.245 97.5969 288.277 97.602C288.292 97.6037 288.308 97.6071 288.325 97.6088C288.331 97.6088 288.345 97.6138 288.353 97.6155C288.414 97.6325 288.474 97.6529 288.53 97.68C288.543 97.6868 288.555 97.6919 288.569 97.6987C288.576 97.7021 288.582 97.7055 288.589 97.7089C288.589 97.7089 288.589 97.7089 288.591 97.7089C288.621 97.7258 288.65 97.7428 288.679 97.7598C288.735 97.7937 288.791 97.831 288.845 97.8666C288.993 97.9667 289.144 98.0702 289.308 98.1466C289.202 98.1551 289.101 98.2059 289.008 98.2585C288.781 98.3858 288.56 98.5283 288.355 98.6861C287.938 99.0067 287.575 99.3969 287.342 99.8516C287.108 100.306 287.003 100.831 287.1 101.324C287.124 101.448 287.151 101.601 287.246 101.697C287.347 101.799 287.492 101.82 287.638 101.804C287.77 101.791 287.904 101.762 288.033 101.735C288.179 101.704 288.323 101.669 288.467 101.63C289.008 101.484 289.531 101.28 290.033 101.038C290.545 100.792 291.035 100.508 291.512 100.206C291.931 99.9398 292.338 99.6582 292.743 99.3732C292.811 99.6378 292.852 99.9093 292.857 100.182C292.859 100.318 292.852 100.466 292.837 100.61C292.828 100.681 292.82 100.752 292.804 100.822C292.798 100.856 292.794 100.868 292.786 100.892C292.781 100.905 292.774 100.92 292.769 100.934C292.765 100.942 292.762 100.949 292.757 100.958C292.757 100.959 292.742 100.983 292.75 100.97C292.735 100.993 292.716 101.015 292.698 101.036C292.693 101.041 292.694 101.039 292.693 101.041C292.687 101.046 292.682 101.049 292.677 101.054C292.665 101.065 292.652 101.075 292.638 101.083C292.626 101.092 292.615 101.099 292.603 101.107C292.599 101.109 292.582 101.119 292.579 101.121C292.55 101.134 292.521 101.148 292.492 101.161C292.363 101.214 292.228 101.248 292.094 101.285C291.766 101.377 291.439 101.467 291.112 101.558C290.457 101.74 289.802 101.921 289.147 102.105C288.532 102.276 287.916 102.444 287.302 102.624C286.698 102.799 286.097 102.983 285.505 103.19C284.915 103.396 284.333 103.623 283.768 103.883C283.488 104.012 283.212 104.147 282.942 104.293C282.8 104.37 282.657 104.449 282.516 104.532C282.41 104.595 282.308 104.665 282.22 104.75C282.125 104.839 282.05 104.943 282.014 105.063C281.975 105.203 282.018 105.34 282.097 105.457C282.181 105.576 282.301 105.676 282.404 105.778C282.52 105.89 282.633 106.002 282.749 106.114C283.203 106.558 283.655 107.004 284.113 107.445C284.488 107.807 284.918 108.172 285.485 108.231C286.118 108.295 286.708 107.982 287.232 107.68C287.492 107.53 287.741 107.384 287.997 107.247C288.258 107.106 288.525 106.972 288.793 106.845C289.325 106.59 289.872 106.36 290.426 106.151C290.984 105.942 291.551 105.756 292.124 105.589C292.267 105.549 292.409 105.508 292.553 105.469C292.589 105.459 292.625 105.45 292.66 105.44C292.703 105.428 292.709 105.427 292.747 105.416C292.818 105.398 292.891 105.379 292.962 105.36C293.254 105.287 293.546 105.218 293.839 105.155C294.43 105.026 295.023 104.916 295.62 104.823C296.217 104.728 296.818 104.649 297.42 104.585C298.027 104.519 298.635 104.468 299.244 104.427C299.853 104.387 300.463 104.356 301.072 104.336C301.374 104.325 301.676 104.317 301.978 104.312C302.131 104.308 302.285 104.307 302.438 104.303C302.592 104.302 302.713 104.3 302.869 104.298C302.909 104.298 302.948 104.298 302.989 104.298C303.055 104.312 303.121 104.331 303.188 104.344C303.501 104.407 303.819 104.465 304.139 104.504C304.444 104.541 304.757 104.56 305.065 104.524C305.371 104.49 305.673 104.397 305.925 104.227C306.053 104.142 306.161 104.035 306.232 103.906C306.307 103.769 306.322 103.615 306.319 103.465C306.304 102.905 306.02 102.369 305.649 101.945C305.26 101.501 304.758 101.16 304.236 100.859C303.968 100.705 303.693 100.559 303.417 100.417C303.281 100.345 303.142 100.279 302.992 100.233C302.841 100.188 302.685 100.16 302.526 100.154C302.21 100.14 301.897 100.193 301.588 100.26C301.257 100.333 300.93 100.417 300.602 100.5C299.932 100.668 299.264 100.839 298.582 100.959C298.419 100.988 298.255 101.014 298.092 101.034C298.014 101.044 297.936 101.051 297.858 101.058C297.82 101.061 297.781 101.063 297.744 101.065C297.698 101.065 297.69 101.066 297.644 101.065C297.566 101.065 297.49 101.06 297.412 101.051C297.374 101.046 297.337 101.041 297.301 101.034C297.284 101.031 297.267 101.027 297.25 101.024C297.24 101.022 297.232 101.021 297.222 101.017C297.205 101.014 297.215 101.015 297.205 101.012C297.142 100.995 297.079 100.975 297.02 100.949C296.991 100.937 296.964 100.924 296.937 100.91C296.937 100.91 296.937 100.91 296.935 100.91C296.93 100.907 296.925 100.905 296.918 100.902C296.903 100.893 296.886 100.883 296.87 100.875C296.818 100.841 296.767 100.803 296.721 100.764C296.721 100.764 296.718 100.761 296.714 100.759C296.709 100.756 296.706 100.751 296.701 100.747C296.691 100.737 296.682 100.729 296.672 100.719C296.65 100.696 296.631 100.673 296.611 100.647C296.602 100.637 296.596 100.625 296.587 100.615C296.584 100.61 296.58 100.605 296.577 100.6C296.577 100.598 296.574 100.595 296.574 100.595C296.558 100.568 296.545 100.542 296.531 100.515C296.519 100.49 296.511 100.462 296.501 100.435C296.501 100.43 296.497 100.425 296.497 100.418C296.494 100.401 296.491 100.384 296.487 100.367C296.484 100.342 296.48 100.316 296.48 100.289C296.48 100.283 296.48 100.266 296.482 100.26C296.482 100.245 296.485 100.23 296.489 100.216C296.492 100.203 296.494 100.188 296.497 100.172C296.497 100.167 296.501 100.16 296.502 100.155C296.513 100.126 296.523 100.098 296.536 100.07C296.543 100.057 296.55 100.043 296.558 100.03C296.56 100.026 296.562 100.023 296.565 100.02C296.565 100.018 296.569 100.014 296.569 100.013C296.586 99.9873 296.604 99.9619 296.625 99.9398C296.635 99.928 296.645 99.9161 296.657 99.9059C296.66 99.9025 296.665 99.8974 296.669 99.894C296.694 99.8737 296.72 99.8533 296.747 99.8346C296.75 99.833 296.765 99.8228 296.77 99.8194C296.772 99.8194 296.777 99.816 296.782 99.8126C296.786 99.8126 296.791 99.8126 296.794 99.8126L297.734 99.6853C297.734 99.6853 297.732 99.6853 297.731 99.6887C297.692 99.7396 297.69 99.8279 297.754 99.8618C297.961 99.9755 298.194 100.035 298.436 100.045C298.68 100.055 298.926 100.028 299.167 99.9873C299.408 99.9466 299.649 99.8957 299.89 99.855C300.005 99.8363 300.121 99.8194 300.236 99.8092C300.294 99.8041 300.351 99.8007 300.409 99.799C300.409 99.799 300.409 99.799 300.411 99.799C300.407 99.799 300.407 99.799 300.402 99.799C300.406 99.799 300.409 99.799 300.412 99.799C300.417 99.799 300.421 99.799 300.419 99.799C300.419 99.799 300.421 99.799 300.423 99.799C300.436 99.799 300.45 99.799 300.462 99.799C300.489 99.799 300.518 99.8007 300.545 99.8024C300.606 99.8058 300.665 99.8143 300.724 99.8245C300.738 99.8279 300.752 99.8296 300.765 99.8329C300.772 99.8329 300.777 99.8363 300.784 99.8363C300.748 99.8279 300.78 99.8363 300.787 99.8363C300.814 99.8431 300.842 99.8516 300.867 99.8601C300.894 99.8703 300.923 99.8805 300.948 99.8923C300.962 99.8974 300.974 99.9042 300.986 99.9093C300.991 99.9127 300.998 99.9144 301.003 99.9178C300.972 99.9025 301.003 99.9178 301.006 99.9195C301.06 99.95 301.11 99.9839 301.157 100.023C301.211 100.067 301.303 100.048 301.345 99.9975C301.647 99.6395 301.949 99.2765 302.165 98.8676C302.37 98.4825 302.482 98.0583 302.434 97.6325C302.389 97.2118 302.175 96.8216 301.797 96.5806C301.608 96.4602 301.396 96.3754 301.177 96.316C300.945 96.2532 300.706 96.2108 300.465 96.1887C299.49 96.1005 298.518 96.3448 297.603 96.6638C297.128 96.8283 296.662 97.0167 296.194 97.2016C295.963 97.2932 295.732 97.3831 295.498 97.4713C295.269 97.5579 295.037 97.6461 294.803 97.7156C294.806 97.7156 294.757 97.7275 294.777 97.7224C294.762 97.7258 294.747 97.7292 294.731 97.7326C294.716 97.736 294.701 97.7377 294.686 97.7394C294.687 97.7394 294.664 97.7394 294.657 97.7411C294.633 97.7411 294.609 97.7377 294.586 97.7343C294.586 97.7343 294.586 97.7343 294.584 97.7343C294.572 97.7292 294.56 97.7258 294.548 97.7207C294.543 97.719 294.53 97.7106 294.533 97.7122C294.53 97.7106 294.526 97.7089 294.523 97.7055C294.516 97.7021 294.492 97.68 294.491 97.68C294.48 97.6698 294.47 97.6597 294.462 97.6478C294.457 97.641 294.45 97.6342 294.445 97.6257C294.445 97.624 294.441 97.6206 294.44 97.6189C294.44 97.6189 294.44 97.6189 294.438 97.6155C294.423 97.585 294.409 97.5545 294.397 97.5222C294.397 97.5222 294.397 97.5222 294.397 97.5188C294.396 97.5104 294.394 97.5002 294.392 97.4917C294.389 97.4696 294.385 97.4476 294.384 97.4255C294.384 97.4204 294.384 97.4154 294.384 97.4103C294.384 97.4103 294.384 97.3967 294.384 97.3916C294.384 97.3729 294.387 97.3543 294.391 97.3356C294.391 97.3271 294.394 97.3169 294.396 97.3085C294.396 97.3068 294.397 97.3 294.399 97.2949C294.406 97.2762 294.413 97.2576 294.421 97.2389C294.431 97.2185 294.441 97.1999 294.453 97.1795C294.457 97.1744 294.463 97.1626 294.465 97.1626C294.472 97.1524 294.479 97.1422 294.487 97.1337C294.516 97.0947 294.55 97.0591 294.586 97.0234C294.589 97.0201 294.589 97.0201 294.591 97.0184C294.591 97.0184 294.592 97.0184 294.597 97.0133C294.608 97.0048 294.616 96.9963 294.626 96.9878C294.645 96.9709 294.665 96.9556 294.686 96.9403C294.73 96.9064 294.776 96.8741 294.821 96.8436C295.028 96.7079 295.247 96.584 295.461 96.4568C296.397 95.8969 297.335 95.3354 298.272 94.7755C298.64 94.555 299.008 94.3361 299.345 94.0748C299.651 93.8373 299.941 93.5709 300.158 93.2588C300.367 92.9568 300.502 92.6158 300.485 92.2578C300.47 91.9117 300.307 91.5792 300.048 91.3349C299.501 90.8242 298.679 90.6529 297.929 90.5596C297.736 90.5358 297.541 90.5104 297.349 90.4798C297.252 90.4645 297.155 90.4476 297.06 90.4272C297.013 90.4187 296.967 90.4086 296.921 90.3984C296.901 90.3933 296.879 90.3882 296.859 90.3848C296.852 90.3848 296.842 90.3797 296.84 90.3797C296.825 90.3763 296.809 90.3729 296.794 90.3678C296.613 90.3203 296.433 90.2627 296.263 90.188C296.223 90.1693 296.182 90.1507 296.143 90.132C296.143 90.132 296.139 90.1303 296.136 90.1286C295.955 89.9488 295.766 89.7757 295.569 89.6112C295.569 89.5976 295.571 89.5823 295.573 89.5688C295.575 89.5535 295.578 89.5382 295.581 89.5247C295.583 89.5162 295.585 89.5077 295.586 89.4992C295.586 89.4992 295.595 89.4687 295.592 89.4771C295.597 89.4585 295.614 89.4161 295.625 89.3889C295.632 89.3754 295.637 89.3635 295.644 89.3516C295.647 89.3448 295.653 89.338 295.656 89.3295C295.656 89.3295 295.673 89.3024 295.666 89.3126C295.658 89.3245 295.673 89.3041 295.675 89.3007C295.68 89.2939 295.685 89.2871 295.688 89.2804C295.698 89.2668 295.709 89.2549 295.719 89.2413C295.739 89.2159 295.761 89.1904 295.785 89.1667C295.79 89.1599 295.797 89.1548 295.802 89.1497C295.804 89.148 295.822 89.1294 295.812 89.1395C295.802 89.1497 295.821 89.1311 295.824 89.1294C295.829 89.126 295.834 89.1209 295.837 89.1175C295.865 89.0937 295.893 89.07 295.922 89.0479C296.034 88.9614 296.156 88.885 296.277 88.8087C296.847 88.449 297.434 88.1012 298.022 87.7755C298.441 87.5431 298.872 87.3208 299.306 87.102C299.82 87.4837 300.338 87.8603 300.858 88.2319C301.386 88.6068 301.917 88.9784 302.453 89.3431C302.986 89.7079 303.523 90.0659 304.064 90.4204C304.597 90.7682 305.135 91.1143 305.676 91.4502C306.171 91.7573 306.678 92.0542 307.218 92.2968C307.742 92.5327 308.304 92.7176 308.887 92.7888C309.43 92.855 309.991 92.8245 310.512 92.6412C310.989 92.4716 311.426 92.1713 311.657 91.7421C311.923 91.2484 311.835 90.6664 311.559 90.205L311.564 90.1999ZM290.971 94.521L290.989 94.4582C291.023 94.3904 291.061 94.3242 291.101 94.2597C291.246 94.029 291.415 93.8119 291.563 93.5828C291.641 93.4573 291.707 93.3249 291.753 93.1875C291.777 93.1027 291.793 93.0179 291.802 92.9313C291.805 92.8923 291.826 92.8567 291.851 92.8245C291.841 92.7532 291.829 92.682 291.819 92.609C291.81 92.5428 291.833 92.4784 291.873 92.4241C291.916 92.3698 291.983 92.3375 292.053 92.3257C292.119 92.3138 292.201 92.3359 292.253 92.3732C292.307 92.4105 292.346 92.4733 292.355 92.5377C292.358 92.5649 292.362 92.592 292.367 92.6209C292.392 92.8058 292.423 92.9907 292.445 93.1757C292.464 93.3317 292.474 93.4912 292.457 93.6473C292.448 93.7253 292.428 93.8017 292.401 93.8763C292.375 93.951 292.335 94.0171 292.29 94.085C292.255 94.1393 292.214 94.1885 292.167 94.2343C292.097 94.3022 292.024 94.3666 291.944 94.4243C291.756 94.5617 291.548 94.6737 291.339 94.7823C291.288 94.8094 291.217 94.806 291.162 94.7942C291.117 94.7823 291.079 94.7636 291.045 94.7331C291.003 94.6958 290.974 94.6466 290.967 94.5906C290.967 94.5685 290.967 94.5465 290.967 94.5227L290.971 94.521ZM292.492 97.4985C292.279 97.6834 292.058 97.8615 291.834 98.0329C291.609 98.206 291.378 98.3722 291.144 98.5317C291.027 98.6114 290.91 98.6895 290.791 98.7658C290.732 98.8031 290.672 98.8422 290.611 98.8795C290.581 98.8981 290.552 98.9168 290.521 98.9355C290.506 98.944 290.492 98.9541 290.477 98.9626C290.47 98.966 290.465 98.9694 290.459 98.9745C290.457 98.9745 290.431 98.9898 290.443 98.983C290.414 98.9982 290.386 99.0118 290.355 99.0254C290.34 99.0322 290.323 99.039 290.308 99.044C290.301 99.0457 290.294 99.0491 290.287 99.0508C290.284 99.0508 290.284 99.0508 290.282 99.0525C290.279 99.0525 290.279 99.0525 290.272 99.0525C290.258 99.0559 290.243 99.0576 290.23 99.0593C290.221 99.0593 290.213 99.0593 290.204 99.061C290.204 99.061 290.204 99.061 290.201 99.061C290.185 99.061 290.172 99.0576 290.157 99.0559C290.155 99.0559 290.135 99.0491 290.129 99.0474C290.126 99.0474 290.112 99.0407 290.106 99.0373C290.104 99.0356 290.094 99.0305 290.09 99.0288C290.08 99.022 290.072 99.0152 290.062 99.0084C290.06 99.0084 290.058 99.005 290.056 99.0033C290.055 99.0016 290.051 98.9982 290.05 98.9965C290.033 98.9796 290.019 98.9609 290.006 98.9423C290 98.9338 289.99 98.9168 290 98.9355C289.994 98.9236 289.987 98.9117 289.98 98.8981C289.933 98.8082 289.904 98.7115 289.872 98.6165C289.838 98.5181 289.788 98.4231 289.722 98.3417C289.693 98.306 289.66 98.2738 289.622 98.2467C289.766 98.267 289.914 98.2484 290.05 98.1975C290.25 98.1211 290.428 97.9871 290.604 97.8717C290.978 97.6274 291.352 97.3848 291.726 97.1405C292.099 96.8962 292.474 96.6536 292.847 96.4093L292.862 96.3991C292.901 96.6027 292.966 96.8029 293.054 96.9929C292.874 97.1643 292.689 97.3339 292.496 97.5019L292.492 97.4985ZM295.958 90.3119C296.255 90.6071 296.531 90.9192 296.782 91.2534C296.887 91.3943 296.988 91.5368 297.084 91.6827C297.135 91.759 297.167 91.8116 297.215 91.888C297.261 91.9626 297.305 92.0373 297.347 92.1136C297.368 92.1509 297.39 92.1866 297.408 92.2256C297.42 92.2476 297.43 92.2697 297.439 92.2917C297.449 92.3172 297.449 92.3155 297.452 92.3426C297.456 92.3698 297.457 92.3647 297.452 92.3868C297.452 92.3901 297.449 92.402 297.449 92.4037C297.447 92.4088 297.446 92.4139 297.444 92.419C297.44 92.4275 297.435 92.436 297.43 92.4444C297.43 92.4478 297.43 92.4461 297.43 92.4478C297.43 92.4495 297.43 92.4478 297.427 92.4529C297.415 92.4682 297.401 92.4851 297.388 92.5004C297.383 92.5072 297.376 92.5123 297.371 92.5191C297.371 92.5191 297.369 92.5208 297.366 92.5242C297.366 92.5242 297.366 92.5242 297.362 92.5259C297.349 92.5377 297.334 92.5513 297.32 92.5632C297.281 92.5954 297.24 92.6277 297.201 92.6599L296.959 92.8567C296.669 93.0925 296.379 93.3283 296.089 93.5642C296.114 93.0128 296.097 92.4614 296.029 91.9151C295.99 91.5962 295.936 91.2789 295.865 90.9633C295.829 90.8056 295.79 90.6495 295.748 90.4951C295.725 90.4136 295.702 90.3322 295.676 90.2508C295.666 90.2185 295.658 90.1863 295.647 90.1541C295.647 90.1541 295.647 90.1541 295.647 90.1473L295.642 90.1269C295.639 90.1168 295.637 90.1083 295.634 90.0981C295.732 90.1795 295.841 90.2491 295.956 90.3136L295.958 90.3119ZM296.725 85.2697C296.641 85.3867 296.412 85.4478 296.19 85.5106C295.731 85.6412 295.273 85.8007 294.877 86.0654C294.128 86.5676 293.685 87.3904 292.928 87.8824C292.279 88.3048 291.469 88.4389 290.686 88.5237C291.963 87.0137 293.135 85.4275 294.19 83.7801C294.272 83.6529 294.377 83.5104 294.536 83.4985C294.628 83.4917 294.713 83.5307 294.793 83.5714C295.464 83.9124 296.072 84.3552 296.587 84.8761C296.767 85.0576 296.789 85.1815 296.726 85.2714L296.725 85.2697Z" fill="#261F1A"/><path d="M306.267 65.5985C306.261 65.5883 306.252 65.5799 306.244 65.5697C306.072 65.3831 305.767 65.3966 305.535 65.4984C305.099 65.6867 304.803 66.099 304.585 66.5215C303.854 67.9228 303.736 69.6329 304.271 71.1208C304.366 71.3855 304.488 71.6552 304.707 71.8334C304.888 71.9827 305.304 72.1082 305.506 71.9148C305.743 71.6892 305.533 71.1921 305.453 70.9393C304.995 69.5125 305.219 67.8855 306.042 66.6351C306.149 66.4723 306.267 66.3111 306.328 66.1245C306.384 65.9497 306.378 65.7427 306.269 65.6002L306.267 65.5985Z" fill="#E49544"/><path d="M286.428 65.5985C286.421 65.5883 286.412 65.5799 286.404 65.5697C286.232 65.3831 285.927 65.3966 285.695 65.4984C285.259 65.6867 284.964 66.099 284.745 66.5215C284.014 67.9228 283.897 69.6329 284.431 71.1208C284.526 71.3855 284.648 71.6552 284.867 71.8334C285.048 71.9827 285.464 72.1082 285.666 71.9148C285.903 71.6892 285.693 71.1921 285.613 70.9393C285.155 69.5125 285.379 67.8855 286.202 66.6351C286.309 66.4723 286.428 66.3111 286.489 66.1245C286.545 65.9497 286.538 65.7427 286.429 65.6002L286.428 65.5985Z" fill="#E49544"/><path d="M324.578 72.3097C323.374 71.8822 322.156 71.4971 320.924 71.1543C320.877 71.1408 320.832 71.1357 320.79 71.1357C320.717 71.0899 320.629 71.061 320.522 71.061H305.126C304.472 71.061 304.47 72.079 305.126 72.079H320.52C320.559 72.1027 320.602 72.1231 320.653 72.1367C321.884 72.4794 323.102 72.8645 324.307 73.292C324.566 73.3836 324.863 73.1885 324.932 72.9357C325.01 72.6541 324.837 72.4013 324.576 72.3097H324.578Z" fill="#E49544"/><path d="M271.216 71.061C271.639 71.061 285.14 71.061 285.14 71.061C285.794 71.061 285.796 72.079 285.14 72.079H271.218C270.881 72.079 270.794 71.061 271.218 71.061H271.216Z" fill="#E49544"/><path d="M307.164 64.0102C307.074 63.8965 306.954 63.8914 306.825 63.9101C306.772 63.9186 306.718 63.9576 306.672 63.978C306.626 63.9983 306.631 64 306.58 64.0204C306.199 64.1782 305.81 64.1765 305.42 64.3767C305.03 64.5769 304.796 64.9942 304.757 65.4404C304.738 65.6576 304.767 65.8798 304.935 66.0206C305.105 66.1614 305.295 66.1733 305.5 66.1258C305.875 66.0393 306.19 65.9324 306.518 65.6932C306.845 65.454 307.105 65.0807 307.223 64.6736C307.286 64.4564 307.306 64.1934 307.162 64.0085L307.164 64.0102Z" fill="#E49544"/><path d="M307.881 62.399C307.784 62.2904 307.664 62.304 307.537 62.3311C307.486 62.343 307.431 62.3871 307.389 62.4109C307.347 62.4346 307.35 62.4363 307.299 62.4601C306.926 62.6416 306.536 62.6603 306.151 62.8639C305.766 63.0674 305.481 63.4305 305.41 63.8767C305.376 64.0922 305.389 64.2958 305.557 64.44C305.725 64.5842 305.925 64.5842 306.139 64.5384C306.531 64.4552 306.882 64.3551 307.231 64.1108C307.581 63.8665 307.866 63.4848 307.973 63.0539C308.029 62.8248 308.037 62.5754 307.879 62.3973L307.881 62.399Z" fill="#E47944"/><path d="M308.389 60.9884C308.285 60.8866 308.166 60.9053 308.042 60.9443C307.993 60.9595 307.942 61.0087 307.903 61.0359C307.864 61.063 307.866 61.0647 307.82 61.0919C307.473 61.2989 307.087 61.3447 306.726 61.5686C306.365 61.7926 306.092 62.1675 306.043 62.6052C306.019 62.8173 306.046 63.0124 306.217 63.143C306.389 63.2753 306.59 63.2804 306.804 63.2245C307.194 63.121 307.542 62.9971 307.883 62.7341C308.226 62.4712 308.47 62.0759 308.539 61.6365C308.577 61.4023 308.556 61.153 308.389 60.9884Z" fill="#E49544"/><path d="M308.772 59.3332C308.663 59.2416 308.549 59.2603 308.431 59.3027C308.383 59.3196 308.342 59.3671 308.307 59.3977C308.269 59.4265 308.276 59.4248 308.232 59.4554C307.905 59.6844 307.532 59.754 307.199 60.0118C306.867 60.2697 306.66 60.6667 306.656 61.0993C306.655 61.3097 306.69 61.4997 306.872 61.6185C307.053 61.7372 307.255 61.7237 307.464 61.6541C307.842 61.5269 308.163 61.3623 308.475 61.079C308.787 60.7956 308.979 60.3986 308.992 59.9626C308.999 59.7302 308.953 59.4842 308.775 59.3349L308.772 59.3332Z" fill="#E47944"/><path d="M309.116 57.5512C309.002 57.4647 308.885 57.4884 308.766 57.5393C308.719 57.5597 308.68 57.6123 308.642 57.6428C308.605 57.6734 308.61 57.6717 308.566 57.7039C308.237 57.9397 307.867 58.0263 307.54 58.3011C307.211 58.5742 307.031 59.0052 307.075 59.4429C307.097 59.655 307.16 59.8518 307.35 59.9552C307.54 60.0587 307.74 60.0265 307.935 59.9434C308.293 59.7924 308.588 59.6295 308.865 59.3224C309.141 59.0153 309.319 58.598 309.333 58.1705C309.34 57.9431 309.3 57.692 309.116 57.5495V57.5512Z" fill="#E49544"/><path d="M309.294 55.8449C309.168 55.7702 309.058 55.8059 308.948 55.8737C308.904 55.9009 308.872 55.9552 308.839 55.9891C308.807 56.023 308.812 56.0213 308.773 56.0552C308.478 56.3182 308.12 56.4336 307.823 56.722C307.526 57.0121 307.36 57.4125 307.406 57.84C307.428 58.047 307.496 58.2387 307.689 58.3303C307.883 58.4219 308.078 58.3914 308.271 58.2964C308.626 58.1234 308.926 57.9367 309.207 57.628C309.489 57.3192 309.638 56.8883 309.604 56.4539C309.586 56.2232 309.497 55.9653 309.292 55.8449H309.294Z" fill="#E47944"/><path d="M308.823 54.3435C308.689 54.2841 308.589 54.3317 308.487 54.4114C308.447 54.4436 308.425 54.4962 308.397 54.5335C308.37 54.5709 308.377 54.5692 308.345 54.6065C308.106 54.8949 307.783 55.0425 307.539 55.3496C307.295 55.6567 307.191 56.0503 307.283 56.449C307.327 56.6424 307.41 56.8239 307.607 56.8985C307.804 56.9732 307.992 56.9223 308.179 56.8171C308.52 56.6271 308.81 56.4507 309.045 56.1029C309.281 55.7551 309.358 55.3292 309.247 54.9017C309.19 54.6744 309.042 54.4402 308.823 54.3418V54.3435Z" fill="#E49544"/><path d="M308.455 52.6402C308.314 52.5995 308.214 52.6538 308.119 52.742C308.08 52.7776 308.063 52.837 308.041 52.8777C308.019 52.9185 308.023 52.9185 307.995 52.9609C307.787 53.2815 307.481 53.4868 307.288 53.838C307.095 54.1892 307.091 54.5879 307.28 54.9543C307.371 55.1325 307.483 55.3004 307.685 55.3496C307.885 55.3988 308.079 55.3496 308.243 55.2224C308.543 54.9883 308.784 54.7813 308.937 54.3996C309.089 54.0161 309.076 53.5581 308.918 53.1526C308.835 52.9371 308.684 52.7064 308.455 52.6402Z" fill="#E47944"/><path d="M306.884 52.4433C306.691 52.8284 306.672 53.2729 306.903 53.6597C307.015 53.848 307.164 53.9871 307.379 54.0143C307.595 54.0414 307.759 53.9668 307.909 53.8175C308.182 53.5443 308.382 53.2864 308.516 52.903C308.65 52.5196 308.765 52.0022 308.521 51.6594C308.095 51.0623 307.077 52.0581 306.882 52.4433H306.884Z" fill="#E49544"/><path d="M357.807 53.7022C358.075 92.472 358.344 131.24 358.612 170.01C370.101 169.277 380.361 162.815 386.291 154.524C389.877 149.512 392.404 143.542 398.273 140.393C403.142 137.78 409.305 137.694 414.741 136.048C419.562 134.587 434.406 134.891 434.371 112.14C434.344 94.496 433.568 65.4221 433.545 49.7628C433.541 47.9509 432.072 46.4868 430.261 46.4902C417.966 46.5139 375.148 46.6038 369.379 46.7107C366.907 46.7565 361.934 46.0355 359.735 46.9482C357.747 47.7745 357.793 50.1615 357.793 51.8004C357.798 52.4349 357.802 53.0694 357.807 53.7039V53.7022Z" fill="#00B0F4"/></svg>