<svg width="480" height="240" viewBox="0 0 480 240" fill="none" xmlns="http://www.w3.org/2000/svg"><path d="M412.137 81.7978C359.438 42.8639 280.76 58.2295 252.912 71.7581C230.83 82.4866 212.613 105.29 209.647 129.138C207.97 142.616 203.83 199.014 283.069 197.056C301.152 196.609 319.158 190.059 336.935 193.376C361.199 197.904 373.764 211.031 398.468 210.636C419.797 210.291 450.184 195.359 449.999 156.693C449.757 105.462 423.242 90.0004 412.137 81.7978Z" fill="#FBFAF3"/><mask id="mask0_1287_6547" style="mask-type:luminance" maskUnits="userSpaceOnUse" x="209" y="57" width="241" height="154"><path d="M412.137 81.7978C359.438 42.8639 280.76 58.2295 252.912 71.7581C230.83 82.4866 212.613 105.29 209.647 129.138C207.97 142.616 203.83 199.014 283.069 197.056C301.152 196.609 319.158 190.059 336.935 193.376C361.199 197.904 373.764 211.031 398.468 210.636C419.797 210.291 450.184 195.359 449.999 156.693C449.757 105.462 423.242 90.0004 412.137 81.7978Z" fill="white"/></mask><g mask="url(#mask0_1287_6547)"><path d="M487.457 168.883C486.493 135.773 466.733 86.8248 441.302 65.3423C407.28 36.5947 357.133 27.397 317.58 29.8463C286.345 31.7854 254.989 37.5005 226.624 50.3849C198.259 63.2693 174.544 88.7639 170.787 119.036C168.663 136.143 172.898 153.518 179.812 169.374C185.349 182.08 192.933 194.416 204.395 202.529C222.975 215.682 248.074 215.446 270.801 212.225C293.527 209.004 316.604 203.34 339.158 207.549C369.953 213.296 396.264 236.89 427.621 236.75C463.735 236.584 487.112 205.693 487.489 172.838C487.501 171.518 487.489 170.204 487.457 168.883Z" fill="#FFBE37"/><path d="M561.883 153.556C564.3 164.852 565.729 176.397 566.016 188.031C566.067 190.098 566.086 192.164 566.061 194.231C565.55 245.775 534.085 294.225 485.482 294.487C443.282 294.717 407.869 257.696 366.422 248.683C336.061 242.082 305.004 250.961 274.413 256.012C243.822 261.064 210.049 261.44 185.039 240.806C169.609 228.081 159.41 208.729 151.954 188.803C147.712 177.462 144.23 165.617 141.959 153.556H561.876H561.883Z" fill="#E8E7E0"/><path d="M313.732 101.514L346.466 101.284C347.908 101.271 349.05 100.365 349.005 99.2684C348.852 95.7921 348.552 88.5016 348.476 83.233C348.456 81.7724 346.396 80.8156 344.719 81.5236C342.595 82.423 340.936 83.8198 339.782 85.2614C338.021 87.4619 337.052 89.8857 334.992 91.9842C332.931 94.0827 329.296 95.8878 325.29 95.6582C322.101 95.4732 318.395 93.5533 315.658 91.8312C314.032 90.8106 311.576 91.6653 311.487 93.2663L311.149 99.4725C311.085 100.589 312.265 101.52 313.732 101.507V101.514Z" fill="#FFE96B"/><path d="M258.704 92.9727C258.238 91.8501 257.217 90.9125 256.005 90.2428C255.31 89.8601 254.494 89.4965 254.239 88.8523C253.945 88.1124 254.526 87.3534 255.081 86.7219C255.706 86.0075 256.331 85.2931 256.956 84.5724C257.581 83.8516 256.943 82.8311 255.827 82.8311H246.744C245.628 82.8311 244.971 83.8389 245.615 84.5724C246.259 85.3059 246.865 86.0011 247.49 86.7219C248.045 87.3534 248.626 88.1124 248.332 88.8523C248.077 89.4965 247.261 89.8601 246.565 90.2428C245.353 90.9125 244.333 91.8501 243.867 92.9727C243.402 94.0954 243.542 95.4029 244.409 96.3597C245.258 97.2973 246.725 97.8523 247.337 98.9047C247.592 99.3448 247.656 99.8423 247.554 100.314C247.407 100.984 248.109 101.577 248.957 101.577C249.735 101.577 250.514 101.577 251.292 101.577C252.07 101.577 252.848 101.577 253.626 101.577C254.468 101.577 255.176 100.978 255.03 100.314C254.928 99.8423 254.991 99.3448 255.246 98.9047C255.859 97.8523 257.319 97.2973 258.174 96.3597C259.042 95.4029 259.182 94.0954 258.716 92.9727H258.704Z" fill="#FF5BB1"/><path d="M226.207 95.1411C226.673 96.1872 227.693 97.0611 228.905 97.6861C229.6 98.0433 230.417 98.3814 230.672 98.9873C230.959 99.6762 230.385 100.384 229.83 100.977C229.703 101.111 229.581 101.245 229.454 101.379H237.803C237.676 101.245 237.554 101.111 237.427 100.977C236.872 100.384 236.291 99.6762 236.585 98.9873C236.84 98.3878 237.656 98.0497 238.352 97.6861C239.564 97.0611 240.584 96.1872 241.05 95.1411C241.515 94.0951 241.375 92.8768 240.508 91.9838C239.825 91.2758 238.747 90.7974 238.033 90.1277H238.23C239.162 90.1277 239.761 89.4707 239.564 88.8584H227.815C227.623 89.4707 228.216 90.1277 229.148 90.1277H229.224C228.51 90.7974 227.438 91.2758 226.749 91.9838C225.882 92.8768 225.742 94.0951 226.207 95.1411Z" fill="#009873"/><path d="M253.734 113.588C253.294 113.588 252.873 113.69 252.478 113.881C252.057 114.079 251.566 114.079 251.151 113.881C250.756 113.69 250.335 113.588 249.895 113.588C247.777 113.588 246.055 115.954 246.055 118.869C246.055 121.784 247.777 124.151 249.895 124.151C250.335 124.151 250.756 124.049 251.151 123.857C251.572 123.659 252.063 123.659 252.478 123.857C252.873 124.049 253.294 124.151 253.734 124.151C255.852 124.151 257.574 121.784 257.574 118.869C257.574 115.954 255.858 113.588 253.734 113.588Z" fill="#F66041"/><path d="M219.385 125.185C219.385 125.293 219.385 125.408 219.436 125.504C219.545 125.708 219.806 125.727 220.023 125.727C229.297 125.644 238.572 125.561 247.852 125.484C248.356 125.484 249.064 125.402 249.466 125.032C252.202 122.525 246.832 118.251 244.803 117.767C243.426 117.435 241.888 117.511 240.734 116.644C239.739 115.898 239.222 114.577 238.202 113.863C237.009 113.034 235.44 113.238 234.068 113.633C233.399 113.831 232.684 114.061 232.021 113.844C231.205 113.582 230.713 112.734 230.241 111.988C229.285 110.489 228.079 109.105 226.529 108.346C224.979 107.587 223.04 107.542 221.637 108.562C219.494 110.125 219.302 113.34 219.321 116.102C219.328 117.008 219.334 117.913 219.341 118.825C219.36 120.943 219.373 123.061 219.392 125.178L219.385 125.185Z" fill="#9DA38B"/><path d="M268.223 91.7227H264.453V153.555H268.223V91.7227Z" fill="#CD5744"/><path d="M216.51 91.7227H212.74V153.555H216.51V91.7227Z" fill="#CD5744"/><path d="M357.875 91.7227H354.105V153.555H357.875V91.7227Z" fill="#CD5744"/><path d="M368.881 100.506H202.979V103.293H368.881V100.506Z" fill="#FBFAF3"/><path d="M368.881 124.15H202.979V126.938H368.881V124.15Z" fill="#FBFAF3"/><path d="M368.881 144.593H202.979V147.38H368.881V144.593Z" fill="#FBFAF3"/><path d="M257.739 139.242H226.625V144.594H257.739V139.242Z" fill="#0342A4"/><path d="M257.737 136.11H231.324V139.249H257.737V136.11Z" fill="#DE8AFF"/><path d="M252.031 131.99H236.053C234.884 131.99 233.936 132.938 233.936 134.108V134.223C233.936 135.392 234.884 136.34 236.053 136.34H252.031C253.201 136.34 254.149 135.392 254.149 134.223V134.108C254.149 132.938 253.201 131.99 252.031 131.99Z" fill="#00B337"/><path d="M284.018 89.7204C282.857 85.7977 276.772 84.8537 273.665 83.0932C271.095 81.6389 269.755 78.1181 271.943 75.7006C273.704 73.7488 277.033 73.4299 278.857 75.2733C279.508 75.9303 281.077 76.9508 281.096 75.0628C281.115 73.3406 279.151 72.352 279.795 70.3746C280.388 68.5568 282.595 67.4533 284.419 68.0784C286.244 68.7035 285.657 70.2088 286.511 71.4207C287.698 73.0982 288.489 70.987 288.884 70.0557C290.587 66.0628 295.639 68.7099 295.103 72.4923C294.854 74.2208 293.47 75.4583 292.233 76.5235C291.321 77.3016 289.235 78.7687 289.835 80.2676C290.638 82.2577 292.915 79.668 293.56 78.8643C294.701 77.4356 296.162 76.9572 298.012 77.5504C299.466 78.016 300.946 79.7892 300.55 81.3838C300.187 82.8445 298.216 83.9224 296.966 84.4901C295.32 85.2364 293.368 85.3895 292.118 86.8182C291.678 87.3221 291.321 87.8834 291.161 88.5595C291.085 88.8912 291.263 89.8225 290.983 90.0393C290.632 90.3136 289.42 89.7778 289.076 89.7268C288.24 89.5928 287.379 89.5865 286.531 89.6247C285.682 89.663 284.917 89.9054 284.024 89.7332L284.018 89.7204Z" fill="#00B337"/><path d="M292.22 96.8389H279.775V100.5H292.22V96.8389Z" fill="#F66041"/><path d="M293.93 85.8867H279.406C277.085 85.8867 275.203 87.7686 275.203 90.0901V92.6415C275.203 94.9629 277.085 96.8449 279.406 96.8449H293.93C296.252 96.8449 298.134 94.9629 298.134 92.6415V90.0901C298.134 87.7686 296.252 85.8867 293.93 85.8867Z" fill="#0342A4"/><path d="M320.676 96.5437C320.676 96.5437 320.676 96.5379 320.676 96.5322C320.676 96.5437 320.671 96.5494 320.676 96.5437Z" fill="#19191A"/><path d="M381.381 110.539V153.498C394.144 153.53 406.907 153.555 419.671 153.619C421.826 153.632 423.982 153.657 426.138 153.67V110.539C426.138 98.7005 416.067 89.0117 403.763 89.0117C391.452 89.0117 381.387 98.7005 381.387 110.539H381.381Z" fill="#FF5BB1"/><path d="M348.695 164.513C348.874 163.218 348.53 163.256 348.37 162.995C348.211 162.733 340.486 161.821 338.439 161.687C336.863 161.579 330.919 161.1 328.265 160.883C328.048 160.864 327.844 160.909 327.659 160.992V158.153H322.946V161.107C322.716 160.941 322.435 160.851 322.129 160.877C319.476 161.094 313.531 161.572 311.956 161.681C309.908 161.821 302.178 162.727 302.024 162.988C301.871 163.25 301.527 163.218 301.699 164.506C300.334 164.978 299.422 166.413 299.818 168.008C300.073 169.035 300.908 169.858 301.942 170.1C303.868 170.553 305.584 169.105 305.584 167.255C305.584 166.35 305.163 165.546 304.512 165.01L314.979 165.476C312.702 166.624 310.865 167.542 310.591 167.702C309.844 168.136 309.411 168.301 309.455 169.003C309.468 169.169 309.487 169.488 309.513 169.864C308.046 170.183 306.987 171.599 307.255 173.213C307.459 174.469 308.518 175.471 309.774 175.624C311.554 175.841 313.066 174.457 313.066 172.722C313.066 171.395 312.173 170.285 310.961 169.928C311.892 169.501 319.514 167.338 322.952 166.241V168.678C322.952 168.678 322.824 169.52 325.312 169.52C327.8 169.52 327.666 168.678 327.666 168.678V166.165C330.976 167.236 338.943 169.494 339.893 169.934C338.471 170.355 337.489 171.81 337.871 173.442C338.12 174.482 338.968 175.33 340.008 175.573C341.928 176.019 343.637 174.571 343.637 172.728C343.637 171.325 342.655 170.158 341.335 169.87C341.36 169.494 341.379 169.175 341.392 169.009C341.443 168.301 341.003 168.142 340.257 167.708C339.982 167.549 338.126 166.624 335.83 165.469L345.889 165.023C345.079 165.693 344.62 166.783 344.9 167.97C345.149 169.022 346.004 169.877 347.056 170.119C348.97 170.553 350.666 169.111 350.666 167.268C350.666 165.986 349.837 164.908 348.689 164.513H348.695Z" fill="#0342A4"/><path d="M334.755 94.2031H317.846C313.217 94.2031 309.465 97.9555 309.465 102.584V131.013C309.465 135.642 313.217 139.394 317.846 139.394H334.755C339.384 139.394 343.137 135.642 343.137 131.013V102.584C343.137 97.9555 339.384 94.2031 334.755 94.2031Z" fill="black"/><path d="M343.883 126.937C344.808 126.867 355.626 125.406 343.545 113.982C341.102 111.667 338.149 109.326 335.923 106.787C333.703 104.249 330.91 102.099 327.81 101.959C323.938 101.78 320.532 104.689 317.483 107.464C314.166 110.481 302.487 119.015 303.948 125.546C304.324 127.218 329.736 128.034 343.877 126.943L343.883 126.937Z" fill="#0342A4"/><path d="M321.249 110.992L321.549 112.816L319.75 112.395L310.342 102.355L311.841 100.952L321.249 110.992Z" fill="#FFE96B"/><path d="M321.518 107.312C320.912 106.393 318.717 105.73 317.792 105.475C317.231 105.322 316.644 105.22 316.07 105.315C315.35 105.437 314.718 105.877 314.17 106.362C312.467 107.88 311.382 109.959 310.413 112.019C310.158 112.561 309.909 113.123 309.902 113.716C309.902 114.743 310.706 115.674 311.695 115.955C312.683 116.235 313.78 115.929 314.584 115.298C315.388 114.666 315.93 113.735 316.243 112.759C316.708 113.237 317.512 113.333 318.08 112.982C318.647 112.632 318.915 111.866 318.692 111.235C319.508 111.298 320.267 110.463 320.114 109.659C320.152 109.851 321.243 108.983 321.313 108.887C321.613 108.473 321.824 107.88 321.588 107.414C321.569 107.376 321.549 107.337 321.524 107.306L321.518 107.312Z" fill="#FAB3E3"/><path d="M332.39 101.264C332.479 101.418 332.658 101.507 332.836 101.494C333.066 101.481 333.295 101.367 333.5 101.264C334.233 100.895 334.852 100.257 335.209 99.5168C335.63 98.643 335.719 97.6352 335.49 96.6975C335.381 96.2574 335.196 95.7663 334.782 95.5239C334.444 95.3325 333.991 95.3708 333.71 95.6387C333.691 95.6323 333.678 95.6196 333.659 95.6132C333.5 95.5622 333.289 95.6706 333.264 95.8365C333.238 95.964 333.219 96.0916 333.193 96.2128C333.002 97.2333 332.817 98.2539 332.626 99.2744C332.53 99.7847 332.428 100.289 332.345 100.799C332.32 100.958 332.313 101.118 332.396 101.258L332.39 101.264Z" fill="#FAB3E3"/><path d="M320.963 100.8C320.88 100.289 320.778 99.7854 320.683 99.2752C320.491 98.2546 320.306 97.2341 320.115 96.2135C320.089 96.086 320.07 95.9584 320.045 95.8372C320.013 95.6714 319.802 95.5629 319.649 95.614C319.63 95.6203 319.617 95.6331 319.598 95.6395C319.318 95.3716 318.865 95.3269 318.527 95.5247C318.112 95.767 317.927 96.2582 317.819 96.6983C317.589 97.6359 317.678 98.6437 318.099 99.5176C318.457 100.257 319.075 100.895 319.809 101.265C320.013 101.367 320.243 101.482 320.472 101.495C320.651 101.501 320.823 101.412 320.919 101.265C321.008 101.125 320.995 100.959 320.97 100.806L320.963 100.8Z" fill="#FAB3E3"/><path d="M323.396 104.805C324.735 105.94 328.938 107.024 331.496 104.25C332.574 103.076 332.957 102.088 333.25 99.7594C333.588 97.0677 333.958 94.2421 333.123 92.2903C331.732 89.0373 328.122 86.8495 324.946 87.9147C322.892 88.6035 321.303 90.4916 320.5 92.6475C320.142 93.5979 319.645 94.7077 319.728 95.8941C319.989 99.8679 321.246 102.981 323.402 104.805H323.396Z" fill="#FAB3E3"/><path d="M317.676 95.0966C317.676 95.441 317.829 95.7918 318.116 96.0725C318.416 96.3595 318.773 96.6529 318.792 97.042C318.798 97.2589 318.703 97.463 318.664 97.6735C318.569 98.2603 319.034 98.8662 319.679 99.0512C320.323 99.2362 321.063 99.0257 321.516 98.5856C321.975 98.1391 322.166 97.4885 322.721 97.1313C323.193 96.8251 323.85 96.7996 324.316 96.4871C324.998 96.0278 325.036 95.1476 325.062 94.3822C325.062 94.2419 325.081 94.076 325.209 93.9867C325.336 93.8974 325.515 93.9166 325.681 93.923C326.606 93.974 327.403 93.4637 327.773 92.7366C327.824 92.6345 327.913 92.5325 328.041 92.5197C328.111 92.5197 328.181 92.5388 328.245 92.5644C328.659 92.7238 329.182 92.9726 329.393 93.368C329.661 93.8719 329.227 94.3631 329.291 94.8861C329.361 95.4474 330.005 95.7918 330.598 95.996C330.943 96.1171 331.326 96.2447 331.491 96.5381C331.702 96.9144 331.504 97.3737 331.67 97.7755C331.791 98.0562 332.027 98.3113 332.34 98.4261C332.582 98.5154 332.863 98.5218 333.073 98.6621C333.322 98.828 333.405 99.1278 333.641 99.3C333.928 99.5105 334.381 99.4722 334.662 99.2617C334.942 99.0512 335.063 98.7004 335.038 98.3751C335.019 98.1072 334.649 97.6543 334.706 97.4311C334.757 97.2206 335.37 96.8379 335.529 96.6465C335.963 96.1299 336.282 95.492 336.109 94.8414C335.918 94.1207 335.197 93.604 334.917 92.9088C334.655 92.2646 334.802 91.5438 334.63 90.8804C334.445 90.1597 333.877 89.6111 333.163 89.2476C332.448 88.884 331.549 88.7883 330.943 88.2398C330.19 87.5509 329.788 86.3773 328.653 86.0839C327.365 85.7458 326.146 86.8684 324.8 86.9131C324.373 86.9258 323.946 86.8302 323.518 86.8238C322.236 86.8046 321.018 87.7295 320.846 88.8521C320.788 89.2348 320.706 89.4453 320.24 89.5346C319.5 89.6749 318.862 90.0449 318.499 90.6508C318.16 91.2185 318.135 91.9265 318.428 92.5133C318.664 92.9917 318.856 93.5403 318.467 93.9931C318.141 94.3694 317.682 94.5544 317.676 95.0902V95.0966Z" fill="#F66041"/><path d="M329.319 99.4474C329.534 99.4474 329.708 99.2617 329.708 99.0328C329.708 98.8038 329.534 98.6182 329.319 98.6182C329.104 98.6182 328.93 98.8038 328.93 99.0328C328.93 99.2617 329.104 99.4474 329.319 99.4474Z" fill="black"/><path d="M324.766 99.4474C324.981 99.4474 325.155 99.2617 325.155 99.0328C325.155 98.8038 324.981 98.6182 324.766 98.6182C324.551 98.6182 324.377 98.8038 324.377 99.0328C324.377 99.2617 324.551 99.4474 324.766 99.4474Z" fill="black"/><path d="M327.399 172.621C327.399 172.812 327.552 172.92 327.724 172.946C327.922 172.971 328.126 172.94 328.311 172.876C328.923 172.901 329.536 172.92 330.148 172.946C332.706 173.048 335.27 173.144 337.828 173.246L339.767 173.322C340.073 173.335 340.379 173.354 340.685 173.354C340.921 173.354 341.183 173.322 341.381 173.182C341.668 172.978 341.719 172.659 341.687 172.327C341.661 172.002 341.636 171.683 341.604 171.358C341.553 170.726 341.502 170.095 341.444 169.463C341.234 166.899 341.017 164.335 340.806 161.771L340.488 157.944C340.385 156.745 340.303 155.539 340.169 154.346C339.92 152.146 339.416 149.875 337.936 148.159C336.648 146.66 334.645 145.665 332.655 146.15C330.722 146.622 329.306 148.306 328.617 150.098C328.19 151.215 328.005 152.401 327.916 153.587C327.82 154.799 327.814 156.018 327.782 157.236C327.718 159.794 327.654 162.351 327.59 164.909C327.526 167.48 327.463 170.05 327.393 172.627L327.399 172.621Z" fill="#F66041"/><path d="M325.938 164.539C325.875 161.981 325.811 159.423 325.747 156.865C325.715 155.647 325.709 154.429 325.613 153.217C325.517 152.03 325.332 150.844 324.911 149.728C324.223 147.935 322.807 146.252 320.874 145.78C318.878 145.295 316.881 146.296 315.593 147.789C314.113 149.505 313.615 151.782 313.36 153.976C313.226 155.175 313.143 156.374 313.041 157.573L312.722 161.4C312.512 163.964 312.295 166.529 312.084 169.093C312.033 169.724 311.982 170.356 311.925 170.987C311.9 171.312 311.874 171.631 311.842 171.957C311.817 172.288 311.861 172.607 312.148 172.811C312.346 172.952 312.607 172.984 312.843 172.984C313.15 172.984 313.456 172.964 313.762 172.952L315.701 172.875C318.259 172.773 320.823 172.677 323.381 172.575C323.993 172.55 324.605 172.531 325.218 172.505C325.409 172.563 325.607 172.601 325.804 172.575C325.977 172.556 326.136 172.448 326.13 172.25C326.066 169.68 326.002 167.109 325.932 164.532L325.938 164.539Z" fill="#F66041"/><path d="M311.901 121.63L311.404 110.079C311.372 109.416 311.908 108.854 312.571 108.854H342.339C343.002 108.854 343.532 109.409 343.506 110.073L343.066 121.624C343.041 122.256 342.524 122.753 341.899 122.753H313.069C312.443 122.753 311.927 122.262 311.901 121.63Z" fill="#79D5FF"/><path d="M327.308 178.368C327.429 178.674 327.589 178.948 327.793 179.197C328.833 180.479 330.714 180.581 332.36 180.581C334.586 180.581 336.806 180.581 339.032 180.581C340.122 180.581 341.232 180.581 342.259 180.198C343.286 179.816 344.205 178.993 344.383 177.921C344.543 176.958 344.077 175.989 343.426 175.262C342.776 174.534 341.959 173.979 341.22 173.348C339.37 171.766 337.979 169.655 335.919 168.354C335.064 167.812 334.088 167.422 333.074 167.416C331.167 167.403 329.47 168.787 328.546 170.465C327.519 172.334 326.364 176.065 327.295 178.374L327.308 178.368Z" fill="#19191A"/><path d="M326.208 176.671C326.208 176.416 326.189 176.161 326.169 175.912C326.061 174.407 325.882 172.889 325.391 171.46C324.996 170.312 324.39 169.221 323.51 168.386C322.629 167.55 321.456 166.995 320.244 166.982C318.745 166.976 317.354 167.786 316.225 168.781C315.096 169.776 314.152 170.956 313.011 171.932C311.123 173.533 306.186 177.143 310.453 179.401C311.544 179.982 312.832 180.014 314.07 180.039C316.359 180.077 318.649 180.122 320.939 180.16C321.877 180.179 322.833 180.192 323.739 179.943C324.645 179.695 325.512 179.14 325.914 178.291C326.15 177.788 326.208 177.233 326.201 176.678L326.208 176.671Z" fill="#19191A"/><path d="M362.178 105.328L362.676 104.352C362.81 104.084 363.173 104.04 363.371 104.269L364.079 105.098C364.13 105.162 364.168 105.239 364.175 105.322L365.737 118.442C365.763 118.672 365.603 118.882 365.367 118.908L364.162 119.054C363.932 119.08 363.722 118.92 363.696 118.684L362.134 105.564C362.121 105.481 362.134 105.398 362.178 105.322V105.328Z" fill="#00B337"/><path d="M372.155 104.824L372.939 104.065C373.156 103.854 373.513 103.931 373.622 104.211L374.024 105.232C374.056 105.308 374.062 105.391 374.043 105.474L371.255 118.391C371.204 118.62 370.981 118.76 370.758 118.709L369.572 118.454C369.342 118.403 369.202 118.18 369.253 117.957L372.04 105.04C372.059 104.958 372.097 104.887 372.161 104.83L372.155 104.824Z" fill="#9DA38B"/><path d="M363.941 104.186L364.42 103.204C364.547 102.936 364.911 102.885 365.109 103.108L365.836 103.925C365.893 103.988 365.925 104.065 365.938 104.148L367.762 117.236C367.794 117.466 367.635 117.677 367.405 117.708L366.199 117.874C365.97 117.906 365.759 117.747 365.727 117.517L363.903 104.429C363.89 104.346 363.903 104.263 363.941 104.186Z" fill="#0342A4"/><path d="M367.667 106.164L368.381 105.335C368.579 105.105 368.942 105.15 369.076 105.418L369.567 106.394C369.606 106.47 369.618 106.553 369.612 106.636L367.992 119.75C367.966 119.98 367.756 120.145 367.526 120.114L366.321 119.967C366.091 119.941 365.925 119.731 365.957 119.501L367.577 106.387C367.59 106.304 367.622 106.228 367.673 106.164H367.667Z" fill="#F66041"/><path d="M369.612 102.929L370.326 102.099C370.524 101.87 370.887 101.914 371.021 102.182L371.513 103.158C371.551 103.235 371.564 103.318 371.557 103.401L369.937 116.515C369.912 116.744 369.701 116.91 369.471 116.878L368.266 116.731C368.036 116.706 367.87 116.495 367.902 116.266L369.522 103.152C369.535 103.069 369.567 102.992 369.618 102.929H369.612Z" fill="black"/><path d="M373.84 109.875H362.703V123.346H373.84V109.875Z" fill="#FBFAF3"/><path d="M389.148 125.413H358.346C356.856 125.413 355.648 126.621 355.648 128.111V186.627C355.648 188.117 356.856 189.325 358.346 189.325H389.148C390.638 189.325 391.846 188.117 391.846 186.627V128.111C391.846 126.621 390.638 125.413 389.148 125.413Z" fill="#F68541"/><path d="M268.557 127.996C268.557 126.57 267.401 125.413 265.974 125.413C264.547 125.413 263.391 126.57 263.391 127.996V186.742C263.391 188.168 264.547 189.325 265.974 189.325C267.401 189.325 268.557 188.168 268.557 186.742V127.996Z" fill="#F68541"/><path d="M391.852 123.697H263.391V159.595H391.852V123.697Z" fill="#D3AE13"/><path d="M398.535 122.639H254.096V125.643H398.535V122.639Z" fill="#233E82"/><path d="M296.374 120.254H272.768V122.69H296.374V120.254Z" fill="#F68541"/><path d="M297.157 117.848H275.324C274.834 117.848 274.438 118.245 274.438 118.734V119.398C274.438 119.887 274.834 120.284 275.324 120.284H297.157C297.647 120.284 298.044 119.887 298.044 119.398V118.734C298.044 118.245 297.647 117.848 297.157 117.848Z" fill="black"/><path d="M277.284 117.339C277.124 117.613 277.316 117.951 277.635 117.951H293.606C293.606 117.951 295.482 117.817 295.277 115.732C295.112 114.016 293.606 113.869 293.606 113.869H277.667C277.348 113.869 277.15 114.214 277.316 114.488C277.52 114.826 277.705 115.304 277.686 115.904C277.667 116.503 277.475 116.988 277.277 117.326L277.284 117.339Z" fill="#F66041"/><path d="M327.786 68.498C327.538 68.498 327.34 68.3002 327.34 68.0515V52.0608C327.34 51.812 327.538 51.6143 327.786 51.6143C328.035 51.6143 328.233 51.812 328.233 52.0608V68.0515C328.233 68.3002 328.035 68.498 327.786 68.498Z" fill="#0342A4"/><path d="M327.728 76.031C338.332 76.031 346.927 73.3694 346.927 70.0863C346.927 66.8031 338.332 64.1416 327.728 64.1416C317.125 64.1416 308.529 66.8031 308.529 70.0863C308.529 73.3694 317.125 76.031 327.728 76.031Z" fill="#FFF58C"/><path d="M346.197 68.4598C343.913 65.9658 336.514 64.1416 327.731 64.1416C318.948 64.1416 311.549 65.9658 309.266 68.4598H346.197Z" fill="#0342A4"/></g><path d="M302.452 182.204C302.452 182.204 302.452 182.217 302.452 182.224C302.439 182.185 302.439 182.185 302.446 182.204H302.452Z" fill="#19191A"/><path d="M302.312 181.684C302.312 181.698 302.312 181.705 302.312 181.719C302.312 181.739 302.312 181.739 302.305 181.677L302.312 181.684Z" fill="#19191A"/></svg>