<svg width="124" height="40" viewBox="0 0 124 40" fill="none" xmlns="http://www.w3.org/2000/svg"><path d="M20.648 28.46C16.163 28.46 13.127 24.964 13.127 19.812C13.127 14.66 16.209 11.279 20.648 11.279C24.374 11.279 27.088 13.418 27.479 16.822H24.765C24.351 14.867 22.902 13.717 20.786 13.717C17.704 13.717 15.933 16.109 15.933 19.812C15.933 23.584 17.704 26.022 20.786 26.022C23.155 26.022 24.558 24.596 24.88 22.342H27.571C27.157 26.183 24.558 28.46 20.648 28.46ZM38.011 16.132H40.702V28H38.126L38.08 26.344C37.275 27.609 36.01 28.299 34.4 28.299C31.916 28.299 30.444 26.758 30.444 24.228V16.132H33.135V23.653C33.135 25.079 33.802 25.907 35.182 25.907C36.677 25.907 38.011 24.895 38.011 22.595V16.132ZM50.1996 15.764C50.4756 15.764 50.7056 15.787 50.9586 15.833V18.386C50.7056 18.363 50.4756 18.34 50.2456 18.34C48.4516 18.34 47.1176 19.513 47.0716 21.882V28H44.3806V16.132H46.9566L46.9106 18.294C47.5086 16.707 48.6126 15.764 50.1996 15.764ZM53.4207 14.246V11.624H56.1117V14.246H53.4207ZM53.4207 28V16.132H56.1117V28H53.4207ZM65.0089 28.345C61.5359 28.345 59.1209 25.746 59.1209 22.089C59.1209 18.386 61.5589 15.833 65.0549 15.833C68.5049 15.833 70.9199 18.363 70.9199 22.043C70.9199 25.7 68.4819 28.345 65.0089 28.345ZM65.0089 26.183C67.0789 26.183 68.2979 24.527 68.2979 22.043C68.2979 19.559 67.0789 17.995 65.0089 17.995C62.9849 17.995 61.7659 19.605 61.7659 22.089C61.7659 24.573 63.0079 26.183 65.0089 26.183ZM78.4121 28.368C75.2841 28.368 73.5131 26.965 73.2371 24.366L75.7441 24.297C75.9281 25.7 76.8251 26.39 78.5041 26.39C80.0681 26.39 80.9881 25.815 80.9881 24.803C80.9881 24.021 80.4361 23.584 79.2861 23.354L76.9171 22.871C74.5941 22.388 73.5361 21.261 73.5361 19.513C73.5361 17.282 75.2381 15.833 78.1591 15.833C80.9421 15.833 82.8511 17.167 83.1501 19.605L80.6431 19.674C80.4361 18.455 79.5621 17.811 78.1131 17.811C76.8251 17.811 76.0201 18.317 76.0201 19.237C76.0201 19.927 76.4801 20.364 77.6071 20.617L80.0451 21.123C82.4601 21.652 83.5181 22.733 83.5181 24.504C83.5181 26.942 81.5631 28.368 78.4121 28.368ZM86.4032 14.246V11.624H89.0942V14.246H86.4032ZM86.4032 28V16.132H89.0942V28H86.4032ZM96.1744 18.064V24.665C96.1744 25.516 96.4734 25.815 97.3014 25.815H98.6124V28H96.4734C94.3574 28 93.4834 27.126 93.4834 25.01V18.087L91.7814 18.156V16.132L93.4834 16.201V12.475H96.1744V16.201L98.6124 16.132V18.156L96.1744 18.064ZM108.954 16.132H111.783L106.654 30.208C105.964 32.163 105.021 32.692 103.342 32.692H101.295V30.415H102.652C103.664 30.415 104.101 30.093 104.469 29.127L104.791 28.253L100.099 16.132H103.043L105.665 23.538L105.987 25.148L108.954 16.132Z" fill="black"/></svg>