<svg width="360" height="64" viewBox="0 0 360 64" fill="none" xmlns="http://www.w3.org/2000/svg"><path d="M302.603 1.37552H287.358L271.217 23.5932L255.071 1.37552H239.826L259.615 28.607L264.874 35.8507V62.1895H277.555V35.8507L282.818 28.607L302.603 1.37552Z" fill="black"/><path d="M0.999878 62.1895H10.8711L27.5417 39.2483L42.6975 62.1895H57.481L35.2719 28.607L55.0566 1.37552H39.8119L13.6763 37.3443V1.37552H0.999878V62.1895Z" fill="black"/><path d="M359.793 29.4613C359.484 24.2908 358.223 19.6197 356.014 15.4478C353.446 10.5947 349.858 6.80356 345.259 4.08295C341.336 1.76429 336.936 0.431514 332.058 0.0887926C330.378 -0.0296789 328.584 -0.0296789 326.908 0.0887926C322.03 0.431514 317.629 1.76006 313.707 4.08295C309.104 6.80356 305.52 10.5905 302.952 15.4478C300.743 19.6197 299.486 24.2908 299.173 29.4613C299.072 31.141 299.076 32.935 299.178 34.619C299.495 39.7556 300.756 44.4014 302.952 48.5521C305.52 53.4052 309.108 57.1963 313.707 59.9169C317.629 62.2356 322.03 63.5684 326.908 63.9111C328.588 64.0296 330.382 64.0296 332.058 63.9111C336.936 63.5684 341.336 62.2398 345.259 59.9169C349.862 57.1963 353.446 53.4095 356.014 48.5521C358.21 44.4014 359.467 39.7556 359.788 34.619C359.894 32.9392 359.894 31.1453 359.793 29.4613ZM346.752 34.619C346.52 37.712 345.86 40.4791 344.781 42.9162C343.401 46.0261 341.408 48.4252 338.802 50.1134C336.61 51.5308 334.072 52.3517 331.177 52.5802C330.094 52.6648 328.863 52.6648 327.78 52.5802C324.89 52.3517 322.347 51.5308 320.155 50.1134C317.549 48.4252 315.556 46.0261 314.177 42.9162C313.098 40.4791 312.442 37.712 312.205 34.619C312.078 32.9392 312.074 31.141 312.201 29.4613C312.429 26.3345 313.089 23.5419 314.177 21.0836C315.556 17.9738 317.549 15.5747 320.155 13.8865C322.347 12.4691 324.886 11.6482 327.78 11.4198C328.863 11.3351 330.094 11.3351 331.177 11.4198C334.067 11.6482 336.61 12.4691 338.802 13.8865C341.408 15.5747 343.401 17.9738 344.781 21.0836C345.868 23.5419 346.528 26.3345 346.756 29.4613C346.879 31.141 346.879 32.9392 346.752 34.619Z" fill="black"/><path d="M196.865 35.7582C196.873 39.8921 196.865 44.614 199.369 47.9058C201.464 50.6603 204.578 51.9634 208.39 52.3231C209.786 52.4542 211.187 52.4542 212.583 52.3231C216.395 51.9634 219.514 50.6603 221.604 47.9058C224.105 44.614 224.1 39.8921 224.121 35.7582V1.37611H236.802V35.7582C236.789 40.1882 236.802 44.7917 235.33 48.972C232.228 57.7516 224.447 62.9263 214.284 63.8402C213.717 63.891 213.15 63.9291 212.583 63.9502C211.187 64.0095 209.786 64.0095 208.39 63.9502C207.823 63.9249 207.256 63.891 206.689 63.8402C196.522 62.9305 188.741 57.7516 185.644 48.972C184.167 44.7917 184.184 40.1882 184.184 35.7582V1.37611H196.865V35.7582Z" fill="black"/><path d="M115.9 29.4613C115.591 24.2908 114.33 19.6197 112.121 15.4478C109.553 10.5947 105.965 6.80356 101.366 4.08295C97.4436 1.76429 93.0432 0.431514 88.1648 0.0887926C86.485 -0.0296789 84.691 -0.0296789 83.0155 0.0887926C78.137 0.431514 73.7367 1.76006 69.8144 4.08295C65.211 6.80356 61.6272 10.5905 59.0589 15.4478C56.8503 19.6197 55.5937 24.2908 55.2806 29.4613C55.179 31.141 55.1832 32.935 55.2848 34.619C55.6021 39.7556 56.863 44.4014 59.0589 48.5521C61.6272 53.4052 65.2152 57.1963 69.8144 59.9169C73.7367 62.2356 78.137 63.5684 83.0155 63.9111C84.6952 64.0296 86.4892 64.0296 88.1648 63.9111C93.0432 63.5684 97.4436 62.2398 101.366 59.9169C105.969 57.1963 109.553 53.4095 112.121 48.5521C114.317 44.4014 115.574 39.7556 115.896 34.619C116.001 32.9392 116.001 31.1453 115.9 29.4613ZM102.859 34.619C102.627 37.712 101.967 40.4791 100.888 42.9162C99.5084 46.0261 97.5156 48.4252 94.9092 50.1134C92.7175 51.5308 90.1788 52.3517 87.2847 52.5802C86.2015 52.6648 84.9703 52.6648 83.8871 52.5802C80.9973 52.3517 78.4544 51.5308 76.2626 50.1134C73.6563 48.4252 71.6634 46.0261 70.2841 42.9162C69.2051 40.4791 68.5493 37.712 68.3124 34.619C68.1854 32.9392 68.1812 31.141 68.3082 29.4613C68.5367 26.3345 69.1967 23.5419 70.2841 21.0836C71.6634 17.9738 73.6563 15.5747 76.2626 13.8865C78.4544 12.4691 80.993 11.6482 83.8871 11.4198C84.9703 11.3351 86.2015 11.3351 87.2847 11.4198C90.1746 11.6482 92.7175 12.4691 94.9092 13.8865C97.5156 15.5747 99.5084 17.9738 100.888 21.0836C101.975 23.5419 102.635 26.3345 102.864 29.4613C102.986 31.141 102.986 32.9392 102.859 34.619Z" fill="black"/><path d="M124.769 62.1895H134.644L151.311 39.2483L166.471 62.1895H181.25L159.041 28.607L178.83 1.37552H163.585L137.449 37.3443V1.37552H124.769V62.1895Z" fill="black"/></svg>