<svg width="42" height="40" viewBox="0 0 42 40" fill="none" xmlns="http://www.w3.org/2000/svg"><path d="M13.61 14.246V11.624H16.301V14.246H13.61ZM13.61 28V16.132H16.301V28H13.61ZM24.4852 28.368C21.3572 28.368 19.5862 26.965 19.3102 24.366L21.8172 24.297C22.0012 25.7 22.8982 26.39 24.5772 26.39C26.1412 26.39 27.0612 25.815 27.0612 24.803C27.0612 24.021 26.5092 23.584 25.3592 23.354L22.9902 22.871C20.6672 22.388 19.6092 21.261 19.6092 19.513C19.6092 17.282 21.3112 15.833 24.2322 15.833C27.0152 15.833 28.9242 17.167 29.2232 19.605L26.7162 19.674C26.5092 18.455 25.6352 17.811 24.1862 17.811C22.8982 17.811 22.0932 18.317 22.0932 19.237C22.0932 19.927 22.5532 20.364 23.6802 20.617L26.1182 21.123C28.5332 21.652 29.5912 22.733 29.5912 24.504C29.5912 26.942 27.6362 28.368 24.4852 28.368Z" fill="black"/></svg>