<svg width="66" height="40" viewBox="0 0 66 40" fill="none" xmlns="http://www.w3.org/2000/svg"><path d="M16.508 25.539H24.765V28H13.725V11.624H16.508V25.539ZM27.5016 14.246V11.624H30.1926V14.246H27.5016ZM27.5016 28V16.132H30.1926V28H27.5016ZM38.7909 13.809C37.7559 13.809 37.3649 14.223 37.3649 15.235V16.201L39.8259 16.132V18.156L37.3649 18.064V28H34.6739V18.087L32.8799 18.156V16.132L34.6739 16.201V15.304C34.6739 12.843 35.8699 11.624 38.3539 11.624H39.8259V13.809H38.7909ZM53.0232 22.135V22.802H44.2602C44.3752 25.01 45.5942 26.206 47.4572 26.206C48.8602 26.206 49.7572 25.539 50.2172 24.274L52.7932 24.504C52.0572 27.011 50.0792 28.345 47.4572 28.345C43.7082 28.345 41.5232 25.654 41.5232 22.02C41.5232 18.478 43.6622 15.833 47.2502 15.833C50.6772 15.833 53.0232 18.202 53.0232 22.135ZM47.3192 17.903C45.6402 17.903 44.4442 18.984 44.2832 20.939H50.3322C50.1022 18.984 49.0212 17.903 47.3192 17.903Z" fill="black"/></svg>