<svg width="184" height="72" viewBox="0 0 184 72" fill="none" xmlns="http://www.w3.org/2000/svg"><path d="M137.727 24.4854H131.994L125.925 32.8398L119.853 24.4854H114.121L121.562 34.7251L123.54 37.4489V47.353H128.308V37.4489L130.287 34.7251L137.727 24.4854Z" fill="black"/><path d="M24.3164 47.353H28.0282L34.2967 38.7265L39.9957 47.353H45.5547L37.2035 34.7251L44.643 24.4854H38.9106L29.0831 38.0106V24.4854H24.3164V47.353Z" fill="black"/><path d="M159.23 35.0454C159.114 33.1012 158.64 31.3447 157.81 29.776C156.844 27.9511 155.495 26.5255 153.765 25.5025C152.29 24.6306 150.636 24.1295 148.801 24.0006C148.17 23.9561 147.495 23.9561 146.865 24.0006C145.031 24.1295 143.376 24.629 141.901 25.5025C140.17 26.5255 138.823 27.9495 137.857 29.776C137.026 31.3447 136.554 33.1012 136.436 35.0454C136.398 35.677 136.399 36.3516 136.438 36.9848C136.557 38.9163 137.031 40.6632 137.857 42.224C138.823 44.0489 140.172 45.4744 141.901 46.4974C143.376 47.3693 145.031 47.8704 146.865 47.9993C147.497 48.0439 148.171 48.0439 148.801 47.9993C150.636 47.8704 152.29 47.3709 153.765 46.4974C155.496 45.4744 156.844 44.0505 157.81 42.224C158.635 40.6632 159.108 38.9163 159.229 36.9848C159.268 36.3532 159.268 35.6786 159.23 35.0454ZM154.327 36.9848C154.239 38.1478 153.991 39.1883 153.585 40.1047C153.067 41.2741 152.317 42.1762 151.337 42.8111C150.513 43.344 149.559 43.6527 148.47 43.7386C148.063 43.7704 147.6 43.7704 147.193 43.7386C146.106 43.6527 145.15 43.344 144.326 42.8111C143.346 42.1762 142.596 41.2741 142.078 40.1047C141.672 39.1883 141.425 38.1478 141.336 36.9848C141.289 36.3532 141.287 35.677 141.335 35.0454C141.421 33.8696 141.669 32.8195 142.078 31.8952C142.596 30.7258 143.346 29.8237 144.326 29.1889C145.15 28.6559 146.105 28.3472 147.193 28.2613C147.6 28.2295 148.063 28.2295 148.47 28.2613C149.557 28.3472 150.513 28.6559 151.337 29.1889C152.317 29.8237 153.067 30.7258 153.585 31.8952C153.994 32.8195 154.243 33.8696 154.328 35.0454C154.375 35.677 154.375 36.3532 154.327 36.9848Z" fill="black"/><path d="M97.9674 37.4131C97.9706 38.9675 97.9674 40.7431 98.9093 41.9809C99.6968 43.0166 100.868 43.5067 102.301 43.6419C102.826 43.6912 103.353 43.6912 103.878 43.6419C105.311 43.5067 106.484 43.0166 107.27 41.9809C108.21 40.7431 108.209 38.9675 108.217 37.4131V24.4846H112.985V37.4131C112.98 39.0789 112.985 40.8099 112.431 42.3818C111.265 45.6832 108.339 47.629 104.518 47.9726C104.304 47.9917 104.091 48.006 103.878 48.014C103.353 48.0363 102.826 48.0363 102.301 48.014C102.088 48.0044 101.875 47.9917 101.662 47.9726C97.8386 47.6306 94.9127 45.6832 93.7481 42.3818C93.1929 40.8099 93.1992 39.0789 93.1992 37.4131V24.4846H97.9674V37.4131Z" fill="black"/><path d="M67.5213 35.0454C67.4052 33.1012 66.9311 31.3447 66.1006 29.776C65.1348 27.9511 63.7857 26.5255 62.0562 25.5025C60.5814 24.6306 58.9267 24.1295 57.0923 24.0006C56.4607 23.9561 55.7861 23.9561 55.1561 24.0006C53.3216 24.1295 51.667 24.629 50.1922 25.5025C48.4611 26.5255 47.1136 27.9495 46.1478 29.776C45.3173 31.3447 44.8448 33.1012 44.7271 35.0454C44.6889 35.677 44.6905 36.3516 44.7287 36.9848C44.848 38.9163 45.3221 40.6632 46.1478 42.224C47.1136 44.0489 48.4627 45.4744 50.1922 46.4974C51.667 47.3693 53.3216 47.8704 55.1561 47.9993C55.7877 48.0439 56.4623 48.0439 57.0923 47.9993C58.9267 47.8704 60.5814 47.3709 62.0562 46.4974C63.7873 45.4744 65.1348 44.0505 66.1006 42.224C66.9263 40.6632 67.3988 38.9163 67.5197 36.9848C67.5595 36.3532 67.5595 35.6786 67.5213 35.0454ZM62.6179 36.9848C62.5303 38.1478 62.2822 39.1883 61.8765 40.1047C61.3578 41.2741 60.6084 42.1762 59.6284 42.8111C58.8042 43.344 57.8496 43.6527 56.7614 43.7386C56.3541 43.7704 55.8911 43.7704 55.4838 43.7386C54.3972 43.6527 53.441 43.344 52.6168 42.8111C51.6368 42.1762 50.8874 41.2741 50.3687 40.1047C49.963 39.1883 49.7164 38.1478 49.6273 36.9848C49.5796 36.3532 49.578 35.677 49.6258 35.0454C49.7117 33.8696 49.9599 32.8195 50.3687 31.8952C50.8874 30.7258 51.6368 29.8237 52.6168 29.1889C53.441 28.6559 54.3956 28.3472 55.4838 28.2613C55.8911 28.2295 56.3541 28.2295 56.7614 28.2613C57.848 28.3472 58.8042 28.6559 59.6284 29.1889C60.6084 29.8237 61.3578 30.7258 61.8765 31.8952C62.2853 32.8195 62.5335 33.8696 62.6194 35.0454C62.6656 35.677 62.6656 36.3532 62.6179 36.9848Z" fill="black"/><path d="M70.8574 47.353H74.5708L80.8378 38.7265L86.5383 47.353H92.0957L83.7445 34.7251L91.1856 24.4854H85.4532L75.6256 38.0106V24.4854H70.8574V47.353Z" fill="black"/></svg>