<svg id="_&#x30EC;&#x30A4;&#x30E4;&#x30FC;_1" data-name="&#x30EC;&#x30A4;&#x30E4;&#x30FC; 1" xmlns="http://www.w3.org/2000/svg" viewBox="0 0 200.99529713955053 64.002127821123395"><path d="M92.265555832536847,21.041068250810895c-1.24102783203125,0-2.125.79901123046875-2.2440185546875,2.2440185546875h4.47100830078125c-.16998291015625-1.44500732421875-.968994140625-2.2440185546875-2.22698974609375-2.2440185546875Z" fill="#fff"/><path d="M117.097953293474347,21.109061414873395c-1.49603271484375,0-2.39703369140625,1.19000244140625-2.39703369140625,3.0260009765625s.91802978515625,3.0260009765625,2.39703369140625,3.0260009765625c1.52996826171875,0,2.43096923828125-1.2239990234375,2.43096923828125-3.05999755859375s-.9010009765625-2.99200439453125-2.43096923828125-2.99200439453125Z" fill="#fff"/><path d="M143.608939621599347,21.194083387529645c-1.30902099609375,0-2.2440185546875,1.0369873046875-2.2440185546875,2.85601806640625,0,1.8189697265625.93499755859375,2.9580078125,2.2440185546875,2.9580078125,1.32598876953125,0,2.1929931640625-1.19000244140625,2.1929931640625-3.009033203125,0-1.802001953125-.86700439453125-2.80499267578125-2.1929931640625-2.80499267578125Z" fill="#fff"/><path d="M133.390922043474347,21.041068250810895c-1.240966796875,0-2.125.79901123046875-2.24395751953125,2.2440185546875h4.470947265625c-.16998291015625-1.44500732421875-.968994140625-2.2440185546875-2.22698974609375-2.2440185546875Z" fill="#fff"/><path d="M51.272941086443097,21.041068250810895c-1.24102783203125,0-2.125.79901123046875-2.2440185546875,2.2440185546875h4.47100830078125c-.16998291015625-1.44500732421875-.968994140625-2.2440185546875-2.22698974609375-2.2440185546875Z" fill="#fff"/><path d="M29.561942551286847,17.947074110185895c-2.21002197265625,0-3.655029296875,1.7850341796875-3.655029296875,4.48797607421875,0,2.78802490234375,1.44500732421875,4.6070556640625,3.655029296875,4.6070556640625,2.1929931640625,0,3.6719970703125-1.802001953125,3.6719970703125-4.6070556640625,0-2.719970703125-1.49603271484375-4.48797607421875-3.6719970703125-4.48797607421875Z" fill="#fff"/><path d="M41.299308273943097,21.194083387529645c-1.3089599609375,0-2.24395751953125,1.0369873046875-2.24395751953125,2.85601806640625,0,1.8189697265625.93499755859375,2.9580078125,2.24395751953125,2.9580078125,1.3260498046875,0,2.19305419921875-1.19000244140625,2.19305419921875-3.009033203125,0-1.802001953125-.86700439453125-2.80499267578125-2.19305419921875-2.80499267578125Z" fill="#fff"/><path d="M153.479911301286847,21.109061414873395c-1.4959716796875,0-2.39697265625,1.19000244140625-2.39697265625,3.0260009765625s.91802978515625,3.0260009765625,2.39697265625,3.0260009765625c1.530029296875,0,2.4310302734375-1.2239990234375,2.4310302734375-3.05999755859375s-.9010009765625-2.99200439453125-2.4310302734375-2.99200439453125Z" fill="#fff"/><path d="M163.573966477068097,21.109061414873395c-1.49603271484375,0-2.39703369140625,1.19000244140625-2.39703369140625,3.0260009765625s.91802978515625,3.0260009765625,2.39703369140625,3.0260009765625c1.52996826171875,0,2.43096923828125-1.2239990234375,2.43096923828125-3.05999755859375s-.9010009765625-2.99200439453125-2.43096923828125-2.99200439453125Z" fill="#fff"/><path d="M196.573173020036847,16.355643446123395c-3.44140625-5.77880859375-9.0537109375-10.47509765625-15.0126953125-12.5625-8.93359375-3.12109375-18.59375-2.8984375-27.931640625-2.681640625-8.3515625.197265625-31.82421875.39453125-54.5244140625.58544921875-22.74560546875.19140625-46.2265625.38916015625-54.5693359375.58642578125-4.79345703125.11181640625-10.22607421875.23876953125-15.62646484375.86083984375-6.21240234375.7158203125-11.00830078125,1.94140625-14.6630859375,3.74658203125C6.669852707536847,10.632987196123395-.247627761213153,19.153495008623395,1.188895676286847,28.197928602373395l.072265625.41748046875c1.24951171875,6.7119140625,7.951171875,14.33203125,20.10205078125,16.2099609375,2.12451171875.328125,6.67724609375.5048828125,13.53271484375.5263671875,5.58935546875.0107421875,12.8447265625-.072265625,21.5693359375-.2666015625,12.646484375-.2822265625,25.234375-.7138671875,31.99658203125-.9462890625l4.1630859375-.12890625c1.04541015625.0244140625,1.86767578125.072265625,2.61279296875.2255859375,1.2587890625.259765625,2.2861328125.7724609375,3.0537109375,1.5234375l.162109375.1669921875c1.18603515625,1.28515625,1.58837890625,2.8681640625,1.205078125,4.712890625-.31689453125,1.525390625-1.10888671875,3.068359375-1.9619140625,4.6474609375l-.26953125.498046875c-.74658203125,1.375-1.45166015625,2.673828125-1.90234375,3.966796875-.44287109375,1.2724609375-.55810546875,2.31640625-.35498046875,3.2509765625,1.31103515625,0,2.58203125-.4677734375,3.87890625-1.43359375,1.6435546875-1.224609375,2.8984375-2.9375,3.662109375-4.1591796875.3466796875-.556640625.6923828125-1.140625,1.04296875-1.732421875.658203125-1.111328125,1.3388671875-2.2607421875,2.0830078125-3.318359375,1.41015625-2,2.828125-3.3388671875,4.462890625-4.212890625,2.7294921875-1.4521484375,5.955078125-1.4521484375,8.546875-1.4521484375,31.873046875,0,37.2265625-.0078125,43.4609375-.017578125l3.9931640625-.005859375c7.763671875,0,16.5625,0,23.873046875-3.9296875,5.384765625-2.888671875,8.6982421875-7.076171875,9.58203125-12.11181640625.751953125-4.28857421875-.2763671875-9.18603515625-2.89453125-13.78955078125l-.2880859375-.4833984375ZM29.544913742693097,28.844107801592145c-3.2979736328125,0-5.71197509765625-2.5670166015625-5.71197509765625-6.4090576171875,0-3.79095458984375,2.41400146484375-6.28997802734375,5.71197509765625-6.28997802734375,3.31500244140625,0,5.76300048828125,2.4990234375,5.76300048828125,6.28997802734375,0,3.842041015625-2.447998046875,6.4090576171875-5.76300048828125,6.4090576171875ZM41.639335129411847,28.742057020342145c-1.0369873046875,0-1.90399169921875-.42498779296875-2.48199462890625-1.1729736328125v4.40301513671875h-1.989013671875v-12.239990234375h1.7509765625l.0340576171875,1.25799560546875c.57794189453125-.93499755859375,1.5469970703125-1.4620361328125,2.80499267578125-1.4620361328125,2.10797119140625,0,3.68896484375,1.70001220703125,3.68896484375,4.47100830078125s-1.51300048828125,4.74298095703125-3.8079833984375,4.74298095703125ZM55.488944504411847,24.662100965654645h-6.47698974609375c.0849609375,1.6319580078125.9859619140625,2.5159912109375,2.36297607421875,2.5159912109375,1.0369873046875,0,1.70001220703125-.4930419921875,2.03997802734375-1.42803955078125l1.904052734375.1700439453125c-.54400634765625,1.85296630859375-2.00604248046875,2.8389892578125-3.94403076171875,2.8389892578125-2.77099609375,0-4.385986328125-1.989013671875-4.385986328125-4.67498779296875,0-2.6180419921875,1.58099365234375-4.572998046875,4.23297119140625-4.572998046875,2.53302001953125,0,4.26702880859375,1.7509765625,4.26702880859375,4.657958984375v.4930419921875ZM64.941825363786847,28.504080946123395h-1.989013671875v-5.55902099609375c0-1.053955078125-.49298095703125-1.66595458984375-1.51300048828125-1.66595458984375-1.10498046875,0-2.09100341796875.74798583984375-2.09100341796875,2.447998046875v4.7769775390625h-1.98895263671875v-8.77197265625h1.90399169921875l.03399658203125,1.2239990234375c.594970703125-.93499755859375,1.52996826171875-1.44500732421875,2.719970703125-1.44500732421875,1.83599853515625,0,2.92401123046875,1.13897705078125,2.92401123046875,3.00897216796875v5.9840087890625ZM76.734855148943097,21.228079969560895l-1.802001953125-.0679931640625v4.87896728515625c0,.6290283203125.22100830078125.85003662109375.8330078125.85003662109375h.968994140625v1.614990234375h-1.58099365234375c-1.56402587890625,0-2.21002197265625-.64599609375-2.21002197265625-2.21002197265625v-5.11700439453125l-1.25799560546875.051025390625v-1.4959716796875l1.25799560546875.05096435546875v-2.75396728515625h1.989013671875v2.75396728515625l1.802001953125-.05096435546875v1.4959716796875ZM86.265555832536847,28.504080946123395h-1.989013671875v-5.55902099609375c0-1.053955078125-.49298095703125-1.66595458984375-1.51300048828125-1.66595458984375-1.10498046875,0-2.09100341796875.74798583984375-2.09100341796875,2.447998046875v4.7769775390625h-1.989013671875v-12.10400390625h1.989013671875v4.47100830078125c.594970703125-.884033203125,1.51300048828125-1.3599853515625,2.66900634765625-1.3599853515625,1.83599853515625,0,2.92401123046875,1.13897705078125,2.92401123046875,3.00897216796875v5.9840087890625ZM96.481559250505597,24.662100965654645h-6.47705078125c.08502197265625,1.6319580078125.98602294921875,2.5159912109375,2.363037109375,2.5159912109375,1.0369873046875,0,1.70001220703125-.4930419921875,2.03997802734375-1.42803955078125l1.90399169921875.1700439453125c-.54400634765625,1.85296630859375-2.0059814453125,2.8389892578125-3.9439697265625,2.8389892578125-2.77099609375,0-4.385986328125-1.989013671875-4.385986328125-4.67498779296875,0-2.6180419921875,1.58099365234375-4.572998046875,4.23297119140625-4.572998046875,2.53302001953125,0,4.26702880859375,1.7509765625,4.26702880859375,4.657958984375v.4930419921875ZM111.030936691911847,28.504080946123395h-1.989013671875v-5.55902099609375c0-1.053955078125-.49298095703125-1.66595458984375-1.51300048828125-1.66595458984375-1.10498046875,0-2.09100341796875.74798583984375-2.09100341796875,2.447998046875v4.7769775390625h-1.989013671875v-8.77197265625h1.904052734375l.03399658203125,1.2239990234375c.594970703125-.93499755859375,1.52996826171875-1.44500732421875,2.719970703125-1.44500732421875,1.83599853515625,0,2.92401123046875,1.13897705078125,2.92401123046875,3.00897216796875v5.9840087890625ZM117.097953293474347,28.759085828935895c-2.5670166015625,0-4.35198974609375-1.9210205078125-4.35198974609375-4.6240234375,0-2.73699951171875,1.80194091796875-4.62396240234375,4.385986328125-4.62396240234375,2.54998779296875,0,4.3349609375,1.8699951171875,4.3349609375,4.5899658203125,0,2.7030029296875-1.802001953125,4.65802001953125-4.36895751953125,4.65802001953125ZM127.990958664568097,21.228079969560895l-1.802001953125-.0679931640625v4.87896728515625c0,.6290283203125.22100830078125.85003662109375.8330078125.85003662109375h.968994140625v1.614990234375h-1.58099365234375c-1.56402587890625,0-2.21002197265625-.64599609375-2.21002197265625-2.21002197265625v-5.11700439453125l-1.25799560546875.051025390625v-1.4959716796875l1.25799560546875.05096435546875v-2.75396728515625h1.989013671875v2.75396728515625l1.802001953125-.05096435546875v1.4959716796875ZM137.606925461443097,24.662100965654645h-6.47698974609375c.08502197265625,1.6319580078125.98602294921875,2.5159912109375,2.36297607421875,2.5159912109375,1.03704833984375,0,1.70001220703125-.4930419921875,2.0400390625-1.42803955078125l1.90399169921875.1700439453125c-.54400634765625,1.85296630859375-2.0059814453125,2.8389892578125-3.94403076171875,2.8389892578125-2.77099609375,0-4.385986328125-1.989013671875-4.385986328125-4.67498779296875,0-2.6180419921875,1.58099365234375-4.572998046875,4.2330322265625-4.572998046875,2.532958984375,0,4.2669677734375,1.7509765625,4.2669677734375,4.657958984375v.4930419921875ZM143.948966477068097,28.742057020342145c-1.17303466796875,0-2.1080322265625-.54400634765625-2.68603515625-1.46197509765625l-.03399658203125,1.2239990234375h-1.7509765625v-12.10400390625h1.98895263671875v4.301025390625c.5780029296875-.748046875,1.47900390625-1.17303466796875,2.60101318359375-1.17303466796875,2.1080322265625,0,3.68902587890625,1.70001220703125,3.68902587890625,4.47100830078125s-1.51300048828125,4.74298095703125-3.8079833984375,4.74298095703125ZM153.479911301286847,28.759085828935895c-2.56695556640625,0-4.35198974609375-1.9210205078125-4.35198974609375-4.6240234375,0-2.73699951171875,1.802001953125-4.62396240234375,4.38604736328125-4.62396240234375,2.54998779296875,0,4.3349609375,1.8699951171875,4.3349609375,4.5899658203125,0,2.7030029296875-1.802001953125,4.65802001953125-4.3690185546875,4.65802001953125ZM163.573966477068097,28.759085828935895c-2.5670166015625,0-4.35205078125-1.9210205078125-4.35205078125-4.6240234375,0-2.73699951171875,1.802001953125-4.62396240234375,4.38604736328125-4.62396240234375,2.54998779296875,0,4.3349609375,1.8699951171875,4.3349609375,4.5899658203125,0,2.7030029296875-1.802001953125,4.65802001953125-4.36895751953125,4.65802001953125ZM175.350944016130597,28.504080946123395l-2.6519775390625-4.198974609375-1.071044921875,1.0369873046875v3.1619873046875h-1.98895263671875v-12.10400390625h1.98895263671875v6.833984375l3.4169921875-3.501953125h2.4990234375l-3.468017578125,3.3489990234375,3.62103271484375,5.4229736328125h-2.34600830078125Z" fill="#fff"/><path d="M197.725516770036847,16.336112196123395l-.29296875-.4921875c-3.5576171875-5.97412109375-9.3671875-10.83203125-15.5419921875-12.99462890625C172.785087082536847-.331856553876605,163.033133957536847-.106270616376605,153.605399582536847.111502821123395c-8.3447265625.197265625-31.8134765625.39453125-54.5478515625.5859375-22.7109375.19091796875-46.19580078125.388671875-54.5458984375.5859375-4.814453125.1123046875-10.27197265625.23974609375-15.71728515625.86767578125-6.32861328125.72900390625-11.232421875,1.986328125-14.99169921875,3.84326171875C5.898856613786847,9.898612196123395-1.311104323713153,18.832694227373395.202567551286847,28.361502821123395l.07421875.43115234375c1.3154296875,7.06494140625,8.298828125,15.06787109375,20.93408203125,17.02099609375,2.17333984375.3359375,6.77685546875.5166015625,13.68212890625.5380859375,5.59423828125.009765625,12.8603515625-.072265625,21.5947265625-.2666015625,12.65234375-.2822265625,25.24365234375-.71484375,32.00830078125-.9462890625l4.1396484375-.12890625c.9248046875-.0107421875,1.72216796875.0654296875,2.39990234375.2041015625,1.0830078125.2236328125,1.9189453125.6357421875,2.5478515625,1.251953125l.1455078125.1484375c.9580078125,1.0390625,1.2685546875,2.2890625.9501953125,3.8212890625-.2890625,1.392578125-1.0458984375,2.8642578125-1.8623046875,4.3759765625l-.2685546875.4951171875c-.73291015625,1.349609375-1.49072265625,2.74609375-1.9677734375,4.1162109375-.5625,1.6142578125-.6533203125,2.9912109375-.2783203125,4.208984375l.10009765625.3232421875.33740234375.02734375c.16162109375.013671875.3232421875.01953125.4853515625.01953125,1.4794921875,0,2.96435546875-.546875,4.4208984375-1.630859375,1.76904296875-1.318359375,3.10400390625-3.1376953125,3.91259765625-4.4326171875.3515625-.5625.701171875-1.1533203125,1.0556640625-1.751953125.6484375-1.095703125,1.318359375-2.2275390625,2.041015625-3.251953125,1.3154296875-1.8681640625,2.6240234375-3.109375,4.115234375-3.9072265625,2.5087890625-1.333984375,5.466796875-1.333984375,8.076171875-1.333984375,31.8740234375,0,37.2275390625-.0078125,43.462890625-.017578125l3.9921875-.005859375c7.880859375,0,16.8134765625,0,24.3447265625-4.0498046875,5.6650390625-3.037109375,9.1552734375-7.4697265625,10.09375-12.81884765625.79296875-4.517578125-.2763671875-9.6513671875-3.0146484375-14.46533203125ZM199.755790207536847,30.628592664873395c-.8837890625,5.03564453125-4.197265625,9.22314453125-9.58203125,12.11181640625-7.310546875,3.9296875-16.109375,3.9296875-23.873046875,3.9296875l-3.9931640625.005859375c-6.234375.009765625-11.587890625.017578125-43.4609375.017578125-2.591796875,0-5.8173828125,0-8.546875,1.4521484375-1.634765625.8740234375-3.052734375,2.212890625-4.462890625,4.212890625-.744140625,1.0576171875-1.4248046875,2.20703125-2.0830078125,3.318359375-.3505859375.591796875-.6962890625,1.17578125-1.04296875,1.732421875-.763671875,1.2216796875-2.0185546875,2.9345703125-3.662109375,4.1591796875-1.296875.9658203125-2.56787109375,1.43359375-3.87890625,1.43359375-.203125-.9345703125-.087890625-1.978515625.35498046875-3.2509765625.45068359375-1.29296875,1.15576171875-2.591796875,1.90234375-3.966796875l.26953125-.498046875c.85302734375-1.5791015625,1.64501953125-3.1220703125,1.9619140625-4.6474609375.38330078125-1.8447265625-.01904296875-3.427734375-1.205078125-4.712890625l-.162109375-.1669921875c-.767578125-.7509765625-1.794921875-1.263671875-3.0537109375-1.5234375-.7451171875-.1533203125-1.5673828125-.201171875-2.61279296875-.2255859375l-4.1630859375.12890625c-6.76220703125.232421875-19.35009765625.6640625-31.99658203125.9462890625-8.724609375.1943359375-15.97998046875.27734375-21.5693359375.2666015625-6.85546875-.021484375-11.408203125-.1982421875-13.53271484375-.5263671875-12.15087890625-1.8779296875-18.8525390625-9.498046875-20.10205078125-16.2099609375l-.072265625-.41748046875C-.247627761213153,19.153495008623395,6.669852707536847,10.632987196123395,14.245536301286847,6.890799696123395c3.65478515625-1.80517578125,8.45068359375-3.03076171875,14.6630859375-3.74658203125,5.400390625-.6220703125,10.8330078125-.7490234375,15.62646484375-.86083984375,8.3427734375-.197265625,31.82373046875-.39501953125,54.5693359375-.58642578125,22.7001953125-.19091796875,46.1728515625-.38818359375,54.5244140625-.58544921875,9.337890625-.216796875,18.998046875-.439453125,27.931640625,2.681640625,5.958984375,2.08740234375,11.5712890625,6.78369140625,15.0126953125,12.5625l.2880859375.4833984375c2.6181640625,4.603515625,3.646484375,9.5009765625,2.89453125,13.78955078125Z" fill="#222"/><path d="M83.341544602068097,19.511099989092145c-1.156005859375,0-2.07403564453125.4759521484375-2.66900634765625,1.3599853515625v-4.47100830078125h-1.989013671875v12.10400390625h1.989013671875v-4.7769775390625c0-1.70001220703125.98602294921875-2.447998046875,2.09100341796875-2.447998046875,1.02001953125,0,1.51300048828125.61199951171875,1.51300048828125,1.66595458984375v5.55902099609375h1.989013671875v-5.9840087890625c0-1.8699951171875-1.0880126953125-3.00897216796875-2.92401123046875-3.00897216796875Z" fill="#222"/><path d="M133.339957688005597,19.511099989092145c-2.65203857421875,0-4.2330322265625,1.9549560546875-4.2330322265625,4.572998046875,0,2.68597412109375,1.614990234375,4.67498779296875,4.385986328125,4.67498779296875,1.93804931640625,0,3.4000244140625-.98602294921875,3.94403076171875-2.8389892578125l-1.90399169921875-.1700439453125c-.34002685546875.93499755859375-1.00299072265625,1.42803955078125-2.0400390625,1.42803955078125-1.376953125,0-2.2779541015625-.884033203125-2.36297607421875-2.5159912109375h6.47698974609375v-.4930419921875c0-2.906982421875-1.7340087890625-4.657958984375-4.2669677734375-4.657958984375ZM131.146964523943097,23.285086805498395c.11895751953125-1.44500732421875,1.00299072265625-2.2440185546875,2.24395751953125-2.2440185546875,1.25799560546875,0,2.0570068359375.79901123046875,2.22698974609375,2.2440185546875h-4.470947265625Z" fill="#222"/><path d="M144.067923996599347,19.528067762529645c-1.12200927734375,0-2.02301025390625.42498779296875-2.60101318359375,1.17303466796875v-4.301025390625h-1.98895263671875v12.10400390625h1.7509765625l.03399658203125-1.2239990234375c.5780029296875.91796875,1.51300048828125,1.46197509765625,2.68603515625,1.46197509765625,2.29498291015625,0,3.8079833984375-1.97198486328125,3.8079833984375-4.74298095703125s-1.58099365234375-4.47100830078125-3.68902587890625-4.47100830078125ZM143.608939621599347,27.008109266435895c-1.30902099609375,0-2.2440185546875-1.1390380859375-2.2440185546875-2.9580078125,0-1.81903076171875.93499755859375-2.85601806640625,2.2440185546875-2.85601806640625,1.32598876953125,0,2.1929931640625,1.00299072265625,2.1929931640625,2.80499267578125,0,1.81903076171875-.86700439453125,3.009033203125-2.1929931640625,3.009033203125Z" fill="#222"/><path d="M117.131949875505597,19.511099989092145c-2.58404541015625,0-4.385986328125,1.886962890625-4.385986328125,4.62396240234375,0,2.7030029296875,1.78497314453125,4.6240234375,4.35198974609375,4.6240234375,2.56695556640625,0,4.36895751953125-1.95501708984375,4.36895751953125-4.65802001953125,0-2.719970703125-1.78497314453125-4.5899658203125-4.3349609375-4.5899658203125ZM117.097953293474347,27.161063367998395c-1.47900390625,0-2.39703369140625-1.19000244140625-2.39703369140625-3.0260009765625s.9010009765625-3.0260009765625,2.39703369140625-3.0260009765625c1.52996826171875,0,2.43096923828125,1.156005859375,2.43096923828125,2.99200439453125s-.9010009765625,3.05999755859375-2.43096923828125,3.05999755859375Z" fill="#222"/><path d="M126.188956711443097,17.029105360185895h-1.989013671875v2.75396728515625l-1.25799560546875-.05096435546875v1.4959716796875l1.25799560546875-.051025390625v5.11700439453125c0,1.56402587890625.64599609375,2.21002197265625,2.21002197265625,2.21002197265625h1.58099365234375v-1.614990234375h-.968994140625c-.61199951171875,0-.8330078125-.22100830078125-.8330078125-.85003662109375v-4.87896728515625l1.802001953125.0679931640625v-1.4959716796875l-1.802001953125.05096435546875v-2.75396728515625Z" fill="#222"/><polygon points="177.543937180193097 19.732108289873395 175.044913742693097 19.732108289873395 171.627921555193097 23.234061414873395 171.627921555193097 16.400077039873395 169.638968918474347 16.400077039873395 169.638968918474347 28.504080946123395 171.627921555193097 28.504080946123395 171.627921555193097 25.342093641435895 172.698966477068097 24.305106336748395 175.350944016130597 28.504080946123395 177.696952316911847 28.504080946123395 174.075919602068097 23.081107313310895 177.543937180193097 19.732108289873395" fill="#222"/><path d="M163.607963059099347,19.511099989092145c-2.58404541015625,0-4.38604736328125,1.886962890625-4.38604736328125,4.62396240234375,0,2.7030029296875,1.7850341796875,4.6240234375,4.35205078125,4.6240234375,2.56695556640625,0,4.36895751953125-1.95501708984375,4.36895751953125-4.65802001953125,0-2.719970703125-1.78497314453125-4.5899658203125-4.3349609375-4.5899658203125ZM163.573966477068097,27.161063367998395c-1.47900390625,0-2.39703369140625-1.19000244140625-2.39703369140625-3.0260009765625s.9010009765625-3.0260009765625,2.39703369140625-3.0260009765625c1.52996826171875,0,2.43096923828125,1.156005859375,2.43096923828125,2.99200439453125s-.9010009765625,3.05999755859375-2.43096923828125,3.05999755859375Z" fill="#222"/><path d="M153.513968918474347,19.511099989092145c-2.58404541015625,0-4.38604736328125,1.886962890625-4.38604736328125,4.62396240234375,0,2.7030029296875,1.7850341796875,4.6240234375,4.35198974609375,4.6240234375,2.5670166015625,0,4.3690185546875-1.95501708984375,4.3690185546875-4.65802001953125,0-2.719970703125-1.78497314453125-4.5899658203125-4.3349609375-4.5899658203125ZM153.479911301286847,27.161063367998395c-1.47894287109375,0-2.39697265625-1.19000244140625-2.39697265625-3.0260009765625s.9010009765625-3.0260009765625,2.39697265625-3.0260009765625c1.530029296875,0,2.4310302734375,1.156005859375,2.4310302734375,2.99200439453125s-.9010009765625,3.05999755859375-2.4310302734375,3.05999755859375Z" fill="#222"/><path d="M108.106925461443097,19.511099989092145c-1.19000244140625,0-2.125.510009765625-2.719970703125,1.44500732421875l-.03399658203125-1.2239990234375h-1.904052734375v8.77197265625h1.989013671875v-4.7769775390625c0-1.70001220703125.98602294921875-2.447998046875,2.09100341796875-2.447998046875,1.02001953125,0,1.51300048828125.61199951171875,1.51300048828125,1.66595458984375v5.55902099609375h1.989013671875v-5.9840087890625c0-1.8699951171875-1.0880126953125-3.00897216796875-2.92401123046875-3.00897216796875Z" fill="#222"/><path d="M29.544913742693097,16.145072157060895c-3.2979736328125,0-5.71197509765625,2.4990234375-5.71197509765625,6.28997802734375,0,3.842041015625,2.41400146484375,6.4090576171875,5.71197509765625,6.4090576171875,3.31500244140625,0,5.76300048828125-2.5670166015625,5.76300048828125-6.4090576171875,0-3.79095458984375-2.447998046875-6.28997802734375-5.76300048828125-6.28997802734375ZM29.561942551286847,27.042105848467145c-2.21002197265625,0-3.655029296875-1.81903076171875-3.655029296875-4.6070556640625,0-2.70294189453125,1.44500732421875-4.48797607421875,3.655029296875-4.48797607421875,2.17596435546875,0,3.6719970703125,1.76800537109375,3.6719970703125,4.48797607421875,0,2.8050537109375-1.47900390625,4.6070556640625-3.6719970703125,4.6070556640625Z" fill="#222"/><path d="M51.221915695818097,19.511099989092145c-2.6519775390625,0-4.23297119140625,1.9549560546875-4.23297119140625,4.572998046875,0,2.68597412109375,1.614990234375,4.67498779296875,4.385986328125,4.67498779296875,1.93798828125,0,3.4000244140625-.98602294921875,3.94403076171875-2.8389892578125l-1.904052734375-.1700439453125c-.3399658203125.93499755859375-1.00299072265625,1.42803955078125-2.03997802734375,1.42803955078125-1.37701416015625,0-2.27801513671875-.884033203125-2.36297607421875-2.5159912109375h6.47698974609375v-.4930419921875c0-2.906982421875-1.7340087890625-4.657958984375-4.26702880859375-4.657958984375ZM49.028922531755597,23.285086805498395c.1190185546875-1.44500732421875,1.00299072265625-2.2440185546875,2.2440185546875-2.2440185546875,1.25799560546875,0,2.0570068359375.79901123046875,2.22698974609375,2.2440185546875h-4.47100830078125Z" fill="#222"/><path d="M41.758353684099347,19.528067762529645c-1.25799560546875,0-2.22705078125.52703857421875-2.80499267578125,1.4620361328125l-.0340576171875-1.25799560546875h-1.7509765625v12.239990234375h1.989013671875v-4.40301513671875c.5780029296875.74798583984375,1.44500732421875,1.1729736328125,2.48199462890625,1.1729736328125,2.29498291015625,0,3.8079833984375-1.97198486328125,3.8079833984375-4.74298095703125s-1.58099365234375-4.47100830078125-3.68896484375-4.47100830078125ZM41.299308273943097,27.008109266435895c-1.3089599609375,0-2.24395751953125-1.1390380859375-2.24395751953125-2.9580078125,0-1.81903076171875.93499755859375-2.85601806640625,2.24395751953125-2.85601806640625,1.3260498046875,0,2.19305419921875,1.00299072265625,2.19305419921875,2.80499267578125,0,1.81903076171875-.86700439453125,3.009033203125-2.19305419921875,3.009033203125Z" fill="#222"/><path d="M62.017814133318097,19.511099989092145c-1.19000244140625,0-2.125.510009765625-2.719970703125,1.44500732421875l-.03399658203125-1.2239990234375h-1.90399169921875v8.77197265625h1.98895263671875v-4.7769775390625c0-1.70001220703125.98602294921875-2.447998046875,2.09100341796875-2.447998046875,1.02001953125,0,1.51300048828125.61199951171875,1.51300048828125,1.66595458984375v5.55902099609375h1.989013671875v-5.9840087890625c0-1.8699951171875-1.0880126953125-3.00897216796875-2.92401123046875-3.00897216796875Z" fill="#222"/><path d="M74.932853195818097,17.029105360185895h-1.989013671875v2.75396728515625l-1.25799560546875-.05096435546875v1.4959716796875l1.25799560546875-.051025390625v5.11700439453125c0,1.56402587890625.64599609375,2.21002197265625,2.21002197265625,2.21002197265625h1.58099365234375v-1.614990234375h-.968994140625c-.61199951171875,0-.8330078125-.22100830078125-.8330078125-.85003662109375v-4.87896728515625l1.802001953125.0679931640625v-1.4959716796875l-1.802001953125.05096435546875v-2.75396728515625Z" fill="#222"/><path d="M92.214530441911847,19.511099989092145c-2.6519775390625,0-4.23297119140625,1.9549560546875-4.23297119140625,4.572998046875,0,2.68597412109375,1.614990234375,4.67498779296875,4.385986328125,4.67498779296875,1.93798828125,0,3.39996337890625-.98602294921875,3.9439697265625-2.8389892578125l-1.90399169921875-.1700439453125c-.3399658203125.93499755859375-1.00299072265625,1.42803955078125-2.03997802734375,1.42803955078125-1.37701416015625,0-2.27801513671875-.884033203125-2.363037109375-2.5159912109375h6.47705078125v-.4930419921875c0-2.906982421875-1.7340087890625-4.657958984375-4.26702880859375-4.657958984375ZM90.021537277849347,23.285086805498395c.1190185546875-1.44500732421875,1.00299072265625-2.2440185546875,2.2440185546875-2.2440185546875,1.25799560546875,0,2.0570068359375.79901123046875,2.22698974609375,2.2440185546875h-4.47100830078125Z" fill="#222"/></svg>