<svg width="223" height="64" viewBox="0 0 223 64" fill="none" xmlns="http://www.w3.org/2000/svg"><path d="M28.4359 24.86C28.0719 29.06 27.2599 32.588 25.9999 35.528C27.2039 36.284 28.2959 37.012 28.9399 37.544L27.1759 40.232C26.6719 39.728 25.7479 38.972 24.5999 38.16C23.0319 40.708 20.9599 42.668 18.3559 44.208C18.1039 43.648 17.2639 42.472 16.7319 41.744C18.9439 40.512 20.8199 38.748 22.3039 36.536C20.7079 35.472 19.0279 34.436 17.7959 33.792C18.3839 32.168 19.0279 29.844 19.6159 27.436H18.3839C17.9359 27.436 17.5439 27.436 17.1239 27.464V24.832C17.5439 24.86 17.9359 24.86 18.3839 24.86H20.1759C20.5959 22.704 20.9319 20.632 21.0719 19.008C21.9119 19.092 23.3119 19.232 24.0399 19.344C23.9839 19.54 23.8999 19.904 23.8439 20.156C23.5919 21.752 23.3119 23.32 22.9759 24.86H28.4359ZM41.3439 30.572C41.9879 30.572 42.5479 30.572 43.0519 30.544V33.288C42.5479 33.26 41.9879 33.26 41.3439 33.26H38.0679C38.3199 34.688 38.4319 36.172 38.4319 37.768C38.4319 42.416 37.2839 44.012 33.8119 44.012C33.1679 44.012 32.3279 43.956 31.9079 43.9C31.7959 43.396 31.2079 41.884 30.7879 40.904C31.4039 41.016 32.4959 41.156 33.3079 41.156C34.9879 41.156 35.4919 40.82 35.4919 37.432C35.4919 35.948 35.3799 34.548 35.1279 33.26H30.5639C29.9199 33.26 29.3599 33.26 28.8559 33.288V30.544C29.3599 30.572 29.9199 30.572 30.5639 30.572H34.4279C33.9519 29.34 33.3639 28.248 32.6079 27.268L34.9319 25.756L35.0159 25.896C35.2119 26.176 35.4079 26.428 35.5759 26.708C36.6399 25.728 37.7599 24.468 38.6559 23.292H30.8159C30.2839 23.292 29.8359 23.292 29.3879 23.32V20.632C29.8359 20.66 30.2839 20.66 30.8159 20.66H39.8599L40.1399 20.38C40.7279 20.744 41.7919 21.528 42.6599 22.34L42.2399 22.536C40.9239 24.86 38.7119 27.436 36.8359 29.032C37.0599 29.536 37.2559 30.04 37.4239 30.572H41.3439ZM21.0439 32.644C21.8279 33.036 22.7239 33.568 23.6759 34.1C24.5719 32.14 25.2439 29.928 25.5799 27.436H22.4159C21.9399 29.368 21.4639 31.132 21.0439 32.644ZM68.4199 29.76C69.2039 29.76 69.8479 29.76 70.4079 29.704V32.448C69.7079 32.392 68.8959 32.392 67.8599 32.392H66.4879V39.532C66.4879 39.924 66.5439 41.212 66.5439 41.548C66.5439 43.396 64.9759 44.46 60.2439 44.46C59.9359 43.788 59.2079 42.388 58.7599 41.52C58.7879 41.52 60.2159 41.744 61.5319 41.744C63.0999 41.744 63.5759 41.408 63.5759 40.82V39.532V32.392H48.2319C47.1959 32.392 46.4119 32.392 45.7119 32.448V29.704C46.3559 29.76 47.0559 29.76 47.9799 29.76C47.6439 29.144 47.1119 28.108 46.7479 27.464C50.8359 27.016 53.6079 26.064 55.1479 24.328H49.7719C48.8759 24.328 48.1759 24.328 47.5319 24.384V21.696C48.1759 21.752 48.8759 21.752 49.7719 21.752H56.4359C56.5759 21.164 56.6319 20.548 56.6319 19.848C56.6319 19.624 56.6039 19.26 56.6039 19.148L59.3759 19.26C59.3759 19.428 59.3479 19.68 59.3479 19.848C59.3479 20.52 59.2919 21.164 59.2079 21.752H66.5439C67.4679 21.752 68.1399 21.752 68.7839 21.696V24.384C68.1399 24.328 67.4679 24.328 66.5439 24.328H60.2719C61.9519 25.728 65.2559 27.044 69.4559 27.436C69.1479 28.08 68.6719 29.116 68.4199 29.76ZM66.9639 29.76C62.9879 29.004 59.9639 27.296 57.9759 25.084C56.3519 27.576 53.3559 29.004 49.0999 29.76H66.9639ZM52.6839 40.624V42.36H49.7719C49.7999 42.136 49.8279 41.8 49.8279 41.464V34.856C49.8279 34.52 49.7999 34.212 49.7719 33.96H60.2439C60.2159 34.212 60.2159 34.464 60.2159 34.772V39.812L60.2439 40.624H52.6839ZM52.6839 38.16H57.4159V36.424H52.6839V38.16ZM82.5039 19.064C85.1359 19.708 88.6359 21.08 91.0159 22.564L89.4199 25.308C87.3199 23.908 83.8759 22.368 81.0199 21.612L82.5039 19.064ZM83.8479 25.336C83.8199 25.448 83.7919 25.7 83.7919 25.924V40.148C83.7919 40.876 84.0719 41.128 84.5479 41.268C84.8839 41.352 85.3879 41.38 86.8719 41.38C88.2999 41.38 89.0559 41.156 89.6159 40.596C90.0919 40.008 90.2879 38.944 90.2879 35.948C91.1559 36.48 92.5559 37.376 93.3119 37.824C93.0319 42.5 91.9679 44.264 86.6199 44.264C83.5399 44.264 82.4199 44.012 81.7759 43.536C80.9919 43.004 80.6839 41.996 80.6839 40.064L80.7119 25.84C80.7119 25.616 80.6839 25.308 80.6559 25.14L83.8479 25.336ZM94.9079 28.052C96.4759 30.348 98.1559 33.932 99.3039 37.544C98.4919 37.964 97.1479 38.692 96.4479 39.168C95.4959 35.836 93.8439 32.084 92.2759 29.452L94.9079 28.052ZM79.0039 29.732L78.8359 30.096C78.1639 34.24 76.8199 37.74 75.4759 39.924C74.9719 39.448 73.7399 38.552 72.9559 37.992C74.2439 36.032 75.6439 32.364 76.1479 28.444L79.0039 29.732ZM124.091 31.384C123.503 31.44 122.915 31.524 122.327 31.692C120.143 32.196 117.735 32.924 115.579 33.764C115.635 34.716 115.635 35.752 115.635 36.872C115.635 37.404 115.663 37.908 115.663 38.692L112.863 38.776C112.891 38.104 112.891 36.144 112.891 35.612V34.996C110.735 36.144 109.279 37.46 109.279 38.86C109.279 40.316 110.875 41.212 114.011 41.212C116.727 41.212 118.855 40.848 120.843 40.204L121.151 43.424C118.491 43.928 116.419 44.068 114.263 44.068C109.643 44.068 106.283 42.5 106.283 39.14C106.283 36.256 109.139 34.044 112.611 32.336C112.247 31.02 111.547 30.376 110.203 30.376C107.991 30.376 105.975 32.98 103.371 36.368L101.131 33.876C103.343 31.888 106.143 28.78 108.019 25.644C105.779 25.616 104.099 25.504 103.175 25.364L103.147 22.312C104.239 22.564 106.647 22.872 109.111 22.872H109.391C109.699 22.116 109.923 21.36 110.035 20.632C110.091 20.268 110.147 19.96 110.119 19.652L113.563 19.904C113.479 20.128 113.311 20.492 113.283 20.66C113.115 21.36 112.863 22.06 112.583 22.788C114.851 22.676 117.231 22.48 118.799 22.144L119.051 24.972C117.399 25.336 113.843 25.532 111.183 25.616C110.595 26.568 109.951 27.548 109.251 28.528C109.867 28.276 110.511 28.136 111.183 28.136C113.591 28.136 114.683 29.256 115.215 31.16C117.399 30.264 119.583 29.536 121.319 28.948C121.907 28.78 122.439 28.556 122.859 28.332L124.091 31.384ZM139.929 21.696C140.265 33.008 145.893 38.972 151.577 41.716C151.073 42.5 150.205 43.844 149.785 44.628C145.081 41.912 140.629 37.544 138.641 29.956C137.493 36.004 133.517 41.156 127.497 44.6C126.993 43.704 126.153 42.416 125.649 41.716C133.769 37.852 136.849 31.076 136.849 21.08C136.849 20.576 136.821 19.82 136.765 19.428C137.773 19.456 139.341 19.54 139.985 19.568C139.985 19.624 139.929 20.072 139.929 20.408V21.696ZM176.609 40.848C177.701 40.848 178.513 40.848 179.213 40.792V43.648C178.513 43.592 177.701 43.592 176.609 43.592H156.785C155.693 43.592 154.881 43.592 154.181 43.648V40.792C154.881 40.848 155.693 40.848 156.785 40.848H165.269V35.108H160.061C159.249 35.108 158.605 35.108 158.017 35.164V32.42C158.605 32.476 159.249 32.476 160.061 32.476H165.269V27.436H159.837C158.801 29.62 157.569 31.496 156.449 32.672C156.001 32.056 154.937 31.02 154.237 30.404C156.449 28.276 158.633 23.908 159.221 20.1L162.133 20.828C162.077 20.912 162.021 21.08 161.993 21.192C161.741 22.396 161.377 23.628 160.957 24.804H165.269V20.632C165.269 20.268 165.241 19.568 165.213 19.26C165.913 19.26 167.845 19.316 168.517 19.372C168.489 19.764 168.461 20.268 168.461 20.66V24.804H174.985C175.769 24.804 176.413 24.804 177.001 24.748V27.492C176.413 27.436 175.769 27.436 174.985 27.436H168.461V32.476H174.313C175.125 32.476 175.769 32.476 176.357 32.42V35.164C175.769 35.108 175.125 35.108 174.313 35.108H168.461V40.848H176.609ZM185.894 36.592C186.202 35.22 186.622 33.904 186.986 32.756L188.722 34.184C187.462 37.936 187.21 40.036 187.182 42.864L184.438 43.648C183.598 41.352 183.178 37.936 183.178 34.744C183.178 30.376 183.71 25.28 184.69 20.716L187.91 21.276C186.762 25.14 185.838 30.46 185.838 34.884C185.838 35.388 185.866 35.976 185.894 36.592ZM199.53 27.128C196.87 27.128 193.706 27.38 192.054 27.94L191.746 25.056C193.65 24.524 196.926 24.272 199.698 24.272C201.462 24.272 203.03 24.356 204.01 24.58L203.758 27.408C202.862 27.212 201.294 27.128 199.53 27.128ZM205.018 38.524L205.158 41.38C202.946 41.744 200.538 42.024 198.438 42.024C194.546 42.024 191.158 40.596 191.158 37.32C191.158 36.256 191.55 35.08 192.586 33.736L195.162 34.576C194.462 35.276 194.07 36.004 194.07 36.984C194.07 38.58 195.834 39.252 199.082 39.252C201.042 39.252 203.254 38.972 205.018 38.524Z" fill="#222222"/></svg>