<svg width="416" height="286" viewBox="0 0 416 286" fill="none" xmlns="http://www.w3.org/2000/svg"><path d="M49.088 81.26C31.928 81.26 20.312 67.884 20.312 48.172C20.312 28.46 32.104 15.524 49.088 15.524C63.344 15.524 73.728 23.708 75.224 36.732H64.84C63.256 29.252 57.712 24.852 49.616 24.852C37.824 24.852 31.048 34.004 31.048 48.172C31.048 62.604 37.824 71.932 49.616 71.932C58.68 71.932 64.048 66.476 65.28 57.852H75.576C73.992 72.548 64.048 81.26 49.088 81.26ZM115.52 34.092H125.816V79.5H115.96L115.784 73.164C112.704 78.004 107.864 80.644 101.704 80.644C92.2004 80.644 86.5684 74.748 86.5684 65.068V34.092H96.8644V62.868C96.8644 68.324 99.4164 71.492 104.696 71.492C110.416 71.492 115.52 67.62 115.52 58.82V34.092ZM162.155 32.684C163.211 32.684 164.091 32.772 165.059 32.948V42.716C164.091 42.628 163.211 42.54 162.331 42.54C155.467 42.54 150.363 47.028 150.187 56.092V79.5H139.891V34.092H149.747L149.571 42.364C151.859 36.292 156.083 32.684 162.155 32.684ZM174.479 26.876V16.844H184.775V26.876H174.479ZM174.479 79.5V34.092H184.775V79.5H174.479ZM218.817 80.82C205.529 80.82 196.289 70.876 196.289 56.884C196.289 42.716 205.617 32.948 218.993 32.948C232.193 32.948 241.433 42.628 241.433 56.708C241.433 70.7 232.105 80.82 218.817 80.82ZM218.817 72.548C226.737 72.548 231.401 66.212 231.401 56.708C231.401 47.204 226.737 41.22 218.817 41.22C211.073 41.22 206.409 47.38 206.409 56.884C206.409 66.388 211.161 72.548 218.817 72.548ZM270.099 80.908C258.131 80.908 251.355 75.54 250.299 65.596L259.891 65.332C260.595 70.7 264.027 73.34 270.451 73.34C276.435 73.34 279.955 71.14 279.955 67.268C279.955 64.276 277.843 62.604 273.443 61.724L264.379 59.876C255.491 58.028 251.443 53.716 251.443 47.028C251.443 38.492 257.955 32.948 269.131 32.948C279.779 32.948 287.083 38.052 288.227 47.38L278.635 47.644C277.843 42.98 274.499 40.516 268.955 40.516C264.027 40.516 260.947 42.452 260.947 45.972C260.947 48.612 262.707 50.284 267.019 51.252L276.347 53.188C285.587 55.212 289.635 59.348 289.635 66.124C289.635 75.452 282.155 80.908 270.099 80.908ZM300.673 26.876V16.844H310.969V26.876H300.673ZM300.673 79.5V34.092H310.969V79.5H300.673ZM338.059 41.484V66.74C338.059 69.996 339.203 71.14 342.371 71.14H347.387V79.5H339.203C331.107 79.5 327.763 76.156 327.763 68.06V41.572L321.251 41.836V34.092L327.763 34.356V20.1H338.059V34.356L347.387 34.092V41.836L338.059 41.484ZM386.954 34.092H397.778L378.154 87.948C375.514 95.428 371.906 97.452 365.482 97.452H357.65V88.74H362.842C366.714 88.74 368.386 87.508 369.794 83.812L371.026 80.468L353.074 34.092H364.338L374.37 62.428L375.602 68.588L386.954 34.092Z" fill="black"/><path d="M22.16 121.876V111.844H32.456V121.876H22.16ZM22.16 174.5V129.092H32.456V174.5H22.16ZM63.7696 175.908C51.8016 175.908 45.0256 170.54 43.9696 160.596L53.5616 160.332C54.2656 165.7 57.6976 168.34 64.1216 168.34C70.1056 168.34 73.6256 166.14 73.6256 162.268C73.6256 159.276 71.5136 157.604 67.1136 156.724L58.0496 154.876C49.1616 153.028 45.1136 148.716 45.1136 142.028C45.1136 133.492 51.6256 127.948 62.8016 127.948C73.4496 127.948 80.7536 133.052 81.8976 142.38L72.3056 142.644C71.5136 137.98 68.1696 135.516 62.6256 135.516C57.6976 135.516 54.6176 137.452 54.6176 140.972C54.6176 143.612 56.3776 145.284 60.6896 146.252L70.0176 148.188C79.2576 150.212 83.3056 154.348 83.3056 161.124C83.3056 170.452 75.8256 175.908 63.7696 175.908Z" fill="black"/><path d="M33.248 260.084H64.84V269.5H22.6V206.844H33.248V260.084ZM75.3106 216.876V206.844H85.6066V216.876H75.3106ZM75.3106 269.5V224.092H85.6066V269.5H75.3106ZM118.504 215.204C114.544 215.204 113.048 216.788 113.048 220.66V224.356L122.464 224.092V231.836L113.048 231.484V269.5H102.752V231.572L95.8882 231.836V224.092L102.752 224.356V220.924C102.752 211.508 107.328 206.844 116.832 206.844H122.464V215.204H118.504ZM172.958 247.06V249.612H139.43C139.87 258.06 144.534 262.636 151.662 262.636C157.03 262.636 160.462 260.084 162.222 255.244L172.078 256.124C169.262 265.716 161.694 270.82 151.662 270.82C137.318 270.82 128.958 260.524 128.958 246.62C128.958 233.068 137.142 222.948 150.87 222.948C163.982 222.948 172.958 232.012 172.958 247.06ZM151.134 230.868C144.71 230.868 140.134 235.004 139.518 242.484H162.662C161.782 235.004 157.646 230.868 151.134 230.868Z" fill="black"/></svg>