<svg width="86" height="38" viewBox="0 0 86 38" fill="none" xmlns="http://www.w3.org/2000/svg">
<path d="M60.897 37.7591V22.3838H66.8714L72.9556 32.0482L79.0178 22.3838H85.0142V37.7591H80.2918V28.8634L75.7012 36.4412H70.188L65.6194 28.9073V37.7591H60.897Z" fill="#F2F2E4"/>
<path d="M48.2322 38.0001C42.0382 38.0001 38.2603 35.2326 38.2603 30.0928C38.2603 24.9311 42.0382 22.1636 48.2322 22.1636C53.3061 22.1636 57.9626 23.5473 57.9626 28.3137H53.1523C52.9107 27.2374 51.5489 26.5565 48.4299 26.5565C44.7398 26.5565 43.0486 27.6328 43.0486 30.0928C43.0486 32.5529 44.7398 33.6072 48.4299 33.6072C51.5489 33.6072 52.9107 32.9263 53.1523 31.85H57.9626C57.9626 36.6163 53.3061 38.0001 48.2322 38.0001Z" fill="#F2F2E4"/>
<path d="M38.8315 19.8386V4.46338H57.397C60.2524 4.46338 61.8998 6.22055 61.8998 8.37309C61.8998 9.60311 61.3726 10.8551 60.1207 11.6458C62.0536 12.3707 62.6246 13.8423 62.6246 15.27C62.6246 17.774 60.8675 19.8386 57.7924 19.8386H38.8315ZM43.5539 16.3243H55.8156C57.2872 16.3243 58.056 16.1266 58.056 15.2261C58.056 14.3255 57.3092 14.0839 55.8156 14.0839H43.5539V16.3243ZM43.5539 10.1303H55.3104C56.804 10.1303 57.3312 9.95455 57.3312 9.07596C57.3312 8.19737 56.804 7.97773 55.3104 7.97773H43.5539V10.1303Z" fill="#F2F2E4"/>
<path d="M85.1554 8.63667H69.8288V10.3499H84.5623V14.5232H69.8288V19.8386H65.1064V4.46338H85.1554V8.63667Z" fill="#F2F2E4"/>
<path d="M22.6677 4.39624C22.6677 4.39624 22.2334 4.51189 21.5386 4.74317C21.4228 4.33842 21.2491 3.90476 20.9886 3.41328C20.2069 1.88101 19.02 1.0715 17.6304 1.0715C17.5436 1.0715 17.4567 1.07151 17.3409 1.10042C17.312 1.04259 17.2541 1.01368 17.2251 0.955862C16.6172 0.290914 15.8355 -0.0271038 14.8802 0.00180692C13.0563 0.0596285 11.2325 1.36061 9.78502 3.7313C8.74283 5.37921 7.96118 7.46078 7.75854 9.05088C5.67415 9.68691 4.19772 10.1495 4.16877 10.1784C3.09763 10.5253 3.06868 10.5542 2.95288 11.5372C2.77918 12.2889 0 33.7696 0 33.7696L22.9282 37.7593V4.33842C22.9282 4.33842 22.7256 4.36733 22.6677 4.39624ZM17.3699 6.04416C16.154 6.42 14.8223 6.82475 13.5195 7.2295C13.8959 5.78396 14.6196 4.36733 15.4592 3.41328C15.8066 3.06635 16.2408 2.69051 16.7619 2.43031C17.283 3.52892 17.3988 5.03228 17.3699 6.01525V6.04416ZM14.9091 1.18715C15.3434 1.18715 15.6908 1.27388 16.0092 1.44735C15.5171 1.67863 15.0249 2.08338 14.5907 2.54595C13.4327 3.78912 12.5642 5.75505 12.1878 7.60534C11.0878 7.95227 10.0166 8.27029 9.00337 8.5883C9.64027 5.69723 12.101 1.27388 14.9091 1.18715ZM11.3483 17.9265C11.4641 19.8635 16.5882 20.2972 16.9067 24.894C17.1093 28.5078 14.996 30.9941 11.9273 31.1676C8.22173 31.3989 6.19525 29.2306 6.19525 29.2306L6.97689 25.8769C6.97689 25.8769 9.00338 27.4381 10.6535 27.3225C11.7247 27.2647 12.101 26.3684 12.072 25.7613C11.9273 23.2172 7.72959 23.3617 7.46904 19.1407C7.23744 15.6425 9.52447 12.0865 14.6196 11.7396C16.5882 11.6239 17.6015 12.1154 17.6015 12.1154L16.4435 16.5099C16.4435 16.5099 15.1407 15.9027 13.5774 16.0184C11.3194 16.1629 11.2904 17.6085 11.3194 17.9265H11.3483ZM18.5568 5.63941C18.5568 4.71426 18.441 3.41328 18.0068 2.31467C19.3963 2.57487 20.0622 4.13605 20.3806 5.0901C19.8306 5.23466 19.2226 5.43703 18.5568 5.63941Z" fill="#F2F2E4"/>
<path d="M23.7143 37.6415L33.2388 35.2709C33.2388 35.2709 29.1569 7.4587 29.099 7.28524C29.07 7.11177 28.9253 6.96722 28.7516 6.96722C28.5779 6.96722 25.9435 6.9094 25.9435 6.9094C25.9435 6.9094 24.2933 5.3193 23.6854 4.71218V37.6415H23.7143Z" fill="#F2F2E4"/>
<path d="M22.6677 4.39624C22.6677 4.39624 22.2334 4.51189 21.5386 4.74317C21.4228 4.33842 21.2491 3.90476 20.9886 3.41328C20.2069 1.88101 19.02 1.0715 17.6304 1.0715C17.5436 1.0715 17.4567 1.07151 17.3409 1.10042C17.312 1.04259 17.2541 1.01368 17.2251 0.955862C16.6172 0.290914 15.8355 -0.0271038 14.8802 0.00180692C13.0563 0.0596285 11.2325 1.36061 9.78502 3.7313C8.74283 5.37921 7.96118 7.46078 7.75854 9.05088C5.67415 9.68691 4.19772 10.1495 4.16877 10.1784C3.09763 10.5253 3.06868 10.5542 2.95288 11.5372C2.77918 12.2889 0 33.7696 0 33.7696L22.9282 37.7593V4.33842C22.9282 4.33842 22.7256 4.36733 22.6677 4.39624ZM17.3699 6.04416C16.154 6.42 14.8223 6.82475 13.5195 7.2295C13.8959 5.78396 14.6196 4.36733 15.4592 3.41328C15.8066 3.06635 16.2408 2.69051 16.7619 2.43031C17.283 3.52892 17.3988 5.03228 17.3699 6.01525V6.04416ZM14.9091 1.18715C15.3434 1.18715 15.6908 1.27388 16.0092 1.44735C15.5171 1.67863 15.0249 2.08338 14.5907 2.54595C13.4327 3.78912 12.5642 5.75505 12.1878 7.60534C11.0878 7.95227 10.0166 8.27029 9.00337 8.5883C9.64027 5.69723 12.101 1.27388 14.9091 1.18715ZM11.3483 17.9265C11.4641 19.8635 16.5882 20.2972 16.9067 24.894C17.1093 28.5078 14.996 30.9941 11.9273 31.1676C8.22173 31.3989 6.19525 29.2306 6.19525 29.2306L6.97689 25.8769C6.97689 25.8769 9.00338 27.4381 10.6535 27.3225C11.7247 27.2647 12.101 26.3684 12.072 25.7613C11.9273 23.2172 7.72959 23.3617 7.46904 19.1407C7.23744 15.6425 9.52447 12.0865 14.6196 11.7396C16.5882 11.6239 17.6015 12.1154 17.6015 12.1154L16.4435 16.5099C16.4435 16.5099 15.1407 15.9027 13.5774 16.0184C11.3194 16.1629 11.2904 17.6085 11.3194 17.9265H11.3483ZM18.5568 5.63941C18.5568 4.71426 18.441 3.41328 18.0068 2.31467C19.3963 2.57487 20.0622 4.13605 20.3806 5.0901C19.8306 5.23466 19.2226 5.43703 18.5568 5.63941Z" fill="#F2F2E4"/>
<path d="M23.7143 37.6415L33.2388 35.2709C33.2388 35.2709 29.1569 7.4587 29.099 7.28524C29.07 7.11177 28.9253 6.96722 28.7516 6.96722C28.5779 6.96722 25.9435 6.9094 25.9435 6.9094C25.9435 6.9094 24.2933 5.3193 23.6854 4.71218V37.6415H23.7143Z" fill="#F2F2E4"/>
</svg>
