<svg xmlns="http://www.w3.org/2000/svg" fill="none" viewBox="0 0 20 20" height="20" width="20">
<g id="Frame 2085653510">
<g id="Group 1547770679">
<g filter="url(#filter0_d_1505_459)" id="Vector">
<path fill="white" d="M9.00009 2C5.14182 2 2 5.0341 2 8.76046V13.6577C2 14.5627 2.6063 15.4143 3.48819 15.7338C4.31496 16.0532 5.19685 15.8403 5.80315 15.308C6.07874 15.0418 6.24409 14.9354 6.62992 14.9354C7.01575 14.9354 7.1811 15.0951 7.45669 15.308C7.7874 15.5742 8.22835 16 9 16C9.82677 16 10.2677 15.6274 10.5433 15.308C10.8189 15.0418 10.9843 14.9354 11.3701 14.9354C11.7559 14.9354 11.9213 15.0951 12.1968 15.308C12.8031 15.8935 13.7402 16.0532 14.5118 15.7338C15.3937 15.4145 16 14.616 16 13.6577V8.76046C16 5.03427 12.8585 2 9.00009 2Z"></path>
<path stroke-linejoin="round" stroke-width="2" stroke="black" d="M9 1C13.3777 1 17 4.44977 17 8.76074V13.6582C16.9998 15.0503 16.1212 16.1932 14.8936 16.6562L14.8945 16.6582C13.7927 17.1142 12.4638 16.9072 11.5605 16.0791C11.5318 16.0568 11.5039 16.0354 11.4824 16.0186C11.452 15.9948 11.4286 15.9771 11.4082 15.9619C11.392 15.9498 11.3802 15.9408 11.3711 15.9346L11.3701 15.9355C11.3574 15.9355 11.3467 15.9362 11.3379 15.9365C11.318 15.9532 11.2898 15.9785 11.248 16.0186C10.8398 16.4717 10.1537 17 9 17C7.83831 17 7.12732 16.3303 6.8457 16.0996L6.74219 16.0186C6.71175 15.9948 6.68837 15.9771 6.66797 15.9619C6.65171 15.9498 6.63997 15.9408 6.63086 15.9346L6.62988 15.9355C6.6171 15.9355 6.60644 15.9362 6.59766 15.9365C6.5763 15.9545 6.54499 15.982 6.49805 16.0273C6.48666 16.0383 6.47478 16.0491 6.46289 16.0596C5.60224 16.8152 4.3323 17.1322 3.12793 16.667V16.666C1.87554 16.2029 1.0002 14.9921 1 13.6582V8.76074C1 4.44956 4.62262 1.00005 9 1Z"></path>
</g>
<g id="Vector_2">
<path fill="black" d="M8.33191 9.68986C9.02768 9.68986 9.63647 8.74316 9.63647 7.60714C9.63647 6.47111 9.02768 5.52441 8.33191 5.52441C7.63614 5.52441 7.02734 6.47111 7.02734 7.60714C7.02734 8.74316 7.63614 9.68986 8.33191 9.68986Z"></path>
<path fill="black" d="M12.6228 9.68986C13.3185 9.68986 13.9273 8.74316 13.9273 7.60714C13.9273 6.47111 13.3185 5.52441 12.6228 5.52441C11.927 5.52441 11.3182 6.47111 11.3182 7.60714C11.3182 8.74316 11.927 9.68986 12.6228 9.68986Z"></path>
</g>
</g>
</g>
<defs>
<filter color-interpolation-filters="sRGB" filterUnits="userSpaceOnUse" height="20" width="20" y="0" x="0" id="filter0_d_1505_459">
<feFlood result="BackgroundImageFix" flood-opacity="0"></feFlood>
<feColorMatrix result="hardAlpha" values="0 0 0 0 0 0 0 0 0 0 0 0 0 0 0 0 0 0 127 0" type="matrix" in="SourceAlpha"></feColorMatrix>
<feOffset dy="2" dx="2"></feOffset>
<feComposite operator="out" in2="hardAlpha"></feComposite>
<feColorMatrix values="0 0 0 0 0 0 0 0 0 0 0 0 0 0 0 0 0 0 1 0" type="matrix"></feColorMatrix>
<feBlend result="effect1_dropShadow_1505_459" in2="BackgroundImageFix" mode="normal"></feBlend>
<feBlend result="shape" in2="effect1_dropShadow_1505_459" in="SourceGraphic" mode="normal"></feBlend>
</filter>
</defs>
</svg>
